<ttFont>
    <TTGlyph name=".notdef" xMin="251" yMin="-555" xMax="1107" yMax="2146">
      <contour>
        <pt x="1107" y="-555" on="1"/>
        <pt x="251" y="-555" on="1"/>
        <pt x="251" y="2146" on="1"/>
        <pt x="1107" y="2146" on="1"/>
      </contour>
      <contour>
        <pt x="454" y="1965" on="1"/>
        <pt x="454" y="1876" on="1"/>
        <pt x="629" y="1876" on="1"/>
        <pt x="629" y="1776" on="1"/>
        <pt x="451" y="1776" on="1"/>
        <pt x="451" y="1687" on="1"/>
        <pt x="899" y="1687" on="1"/>
        <pt x="899" y="1776" on="1"/>
        <pt x="721" y="1776" on="1"/>
        <pt x="721" y="1876" on="1"/>
        <pt x="899" y="1876" on="1"/>
        <pt x="899" y="1965" on="1"/>
      </contour>
      <contour>
        <pt x="451" y="1617" on="1"/>
        <pt x="451" y="1336" on="1"/>
        <pt x="899" y="1336" on="1"/>
        <pt x="899" y="1428" on="1"/>
        <pt x="721" y="1428" on="1"/>
        <pt x="721" y="1617" on="1"/>
      </contour>
      <contour>
        <pt x="629" y="1428" on="1"/>
        <pt x="540" y="1428" on="1"/>
        <pt x="540" y="1525" on="1"/>
        <pt x="629" y="1525" on="1"/>
      </contour>
      <contour>
        <pt x="451" y="1263" on="1"/>
        <pt x="451" y="1174" on="1"/>
        <pt x="629" y="1174" on="1"/>
        <pt x="629" y="1074" on="1"/>
        <pt x="451" y="1074" on="1"/>
        <pt x="451" y="985" on="1"/>
        <pt x="721" y="985" on="1"/>
        <pt x="721" y="1174" on="1"/>
        <pt x="899" y="1174" on="1"/>
        <pt x="899" y="1263" on="1"/>
      </contour>
      <contour>
        <pt x="810" y="1101" on="1"/>
        <pt x="810" y="922" on="1"/>
        <pt x="451" y="922" on="1"/>
        <pt x="451" y="831" on="1"/>
        <pt x="899" y="831" on="1"/>
        <pt x="899" y="1101" on="1"/>
      </contour>
      <contour>
        <pt x="629" y="771" on="1"/>
        <pt x="629" y="620" on="1"/>
        <pt x="721" y="620" on="1"/>
        <pt x="721" y="682" on="1"/>
        <pt x="810" y="682" on="1"/>
        <pt x="810" y="555" on="1"/>
        <pt x="540" y="555" on="1"/>
        <pt x="540" y="771" on="1"/>
        <pt x="451" y="771" on="1"/>
        <pt x="451" y="466" on="1"/>
        <pt x="899" y="466" on="1"/>
        <pt x="899" y="771" on="1"/>
      </contour>
      <contour>
        <pt x="451" y="304" on="1"/>
        <pt x="451" y="-1" on="1"/>
        <pt x="899" y="-1" on="1"/>
        <pt x="899" y="304" on="1"/>
      </contour>
      <contour>
        <pt x="810" y="88" on="1"/>
        <pt x="540" y="88" on="1"/>
        <pt x="540" y="215" on="1"/>
        <pt x="810" y="215" on="1"/>
      </contour>
      <contour>
        <pt x="451" y="-63" on="1"/>
        <pt x="451" y="-153" on="1"/>
        <pt x="640" y="-153" on="1"/>
        <pt x="451" y="-279" on="1"/>
        <pt x="451" y="-369" on="1"/>
        <pt x="899" y="-369" on="1"/>
        <pt x="899" y="-279" on="1"/>
        <pt x="624" y="-279" on="1"/>
        <pt x="813" y="-153" on="1"/>
        <pt x="899" y="-153" on="1"/>
        <pt x="899" y="-63" on="1"/>
      </contour>
    </TTGlyph>
    <TTGlyph name=".ttfautohint" xMin="0" yMin="0" xMax="0" yMax="0">
      <contour>
        <pt x="0" y="0" on="1"/>
      </contour>
    </TTGlyph>
    <TTGlyph name="A" xMin="17" yMin="0" xMax="1350" yMax="1456">
      <contour>
        <pt x="963" y="334" on="1"/>
        <pt x="404" y="334" on="1"/>
        <pt x="288" y="0" on="1"/>
        <pt x="17" y="0" on="1"/>
        <pt x="566" y="1456" on="1"/>
        <pt x="799" y="1456" on="1"/>
        <pt x="1350" y="0" on="1"/>
        <pt x="1079" y="0" on="1"/>
      </contour>
      <contour>
        <pt x="890" y="543" on="1"/>
        <pt x="683" y="1140" on="1"/>
        <pt x="476" y="543" on="1"/>
      </contour>
    </TTGlyph>
    <TTGlyph name="A.smcp" xMin="8" yMin="0" xMax="1175" yMax="1165">
      <contour>
        <pt x="830" y="246" on="1"/>
        <pt x="353" y="246" on="1"/>
        <pt x="259" y="0" on="1"/>
        <pt x="8" y="0" on="1"/>
        <pt x="478" y="1165" on="1"/>
        <pt x="707" y="1165" on="1"/>
        <pt x="1175" y="0" on="1"/>
        <pt x="924" y="0" on="1"/>
      </contour>
      <contour>
        <pt x="758" y="434" on="1"/>
        <pt x="591" y="871" on="1"/>
        <pt x="425" y="434" on="1"/>
      </contour>
    </TTGlyph>
    <TTGlyph name="AE" xMin="-8" yMin="0" xMax="1878" yMax="1456">
      <contour>
        <pt x="1878" y="202" on="1"/>
        <pt x="1878" y="0" on="1"/>
        <pt x="980" y="0" on="1"/>
        <pt x="966" y="340" on="1"/>
        <pt x="470" y="340" on="1"/>
        <pt x="288" y="0" on="1"/>
        <pt x="-8" y="0" on="1"/>
        <pt x="821" y="1456" on="1"/>
        <pt x="1816" y="1456" on="1"/>
        <pt x="1816" y="1254" on="1"/>
        <pt x="1176" y="1254" on="1"/>
        <pt x="1193" y="853" on="1"/>
        <pt x="1735" y="853" on="1"/>
        <pt x="1735" y="652" on="1"/>
        <pt x="1202" y="652" on="1"/>
        <pt x="1221" y="202" on="1"/>
      </contour>
      <contour>
        <pt x="957" y="559" on="1"/>
        <pt x="930" y="1197" on="1"/>
        <pt x="588" y="559" on="1"/>
      </contour>
    </TTGlyph>
    <TTGlyph name="AE.smcp" xMin="-19" yMin="0" xMax="1542" yMax="1165">
      <contour>
        <pt x="1542" y="198" on="1"/>
        <pt x="1542" y="0" on="1"/>
        <pt x="764" y="0" on="1"/>
        <pt x="754" y="258" on="1"/>
        <pt x="377" y="258" on="1"/>
        <pt x="249" y="0" on="1"/>
        <pt x="-19" y="0" on="1"/>
        <pt x="599" y="1165" on="1"/>
        <pt x="1496" y="1165" on="1"/>
        <pt x="1496" y="967" on="1"/>
        <pt x="974" y="967" on="1"/>
        <pt x="984" y="706" on="1"/>
        <pt x="1435" y="706" on="1"/>
        <pt x="1435" y="508" on="1"/>
        <pt x="992" y="508" on="1"/>
        <pt x="1004" y="198" on="1"/>
      </contour>
      <contour>
        <pt x="746" y="455" on="1"/>
        <pt x="727" y="966" on="1"/>
        <pt x="474" y="455" on="1"/>
      </contour>
    </TTGlyph>
    <TTGlyph name="Aacute" xMin="17" yMin="0" xMax="1350" yMax="1846">
      <component glyphName=".ttfautohint" x="17" y="0" flags="0x0"/>
      <component glyphName="A" x="0" y="0" flags="0x0"/>
      <component glyphName="acutecomb" x="1239" y="310" flags="0x4"/>
    </TTGlyph>
    <TTGlyph name="Aacute.smcp" xMin="8" yMin="0" xMax="1175" yMax="1566">
      <component glyphName=".ttfautohint" x="8" y="0" flags="0x0"/>
      <component glyphName="A.smcp" x="0" y="0" flags="0x0"/>
      <component glyphName="acutecomb" x="1147" y="30" flags="0x4"/>
    </TTGlyph>
    <TTGlyph name="Acircumflex" xMin="17" yMin="0" xMax="1350" yMax="1847">
      <component glyphName=".ttfautohint" x="17" y="0" flags="0x0"/>
      <component glyphName="A" x="0" y="0" flags="0x0"/>
      <component glyphName="circumflex" x="194" y="310" flags="0x4"/>
    </TTGlyph>
    <TTGlyph name="Acircumflex.smcp" xMin="8" yMin="0" xMax="1175" yMax="1567">
      <component glyphName=".ttfautohint" x="8" y="0" flags="0x0"/>
      <component glyphName="A.smcp" x="0" y="0" flags="0x0"/>
      <component glyphName="circumflex" x="102" y="30" flags="0x4"/>
    </TTGlyph>
    <TTGlyph name="Adieresis" xMin="17" yMin="0" xMax="1350" yMax="1796">
      <component glyphName=".ttfautohint" x="17" y="0" flags="0x0"/>
      <component glyphName="A" x="0" y="0" flags="0x0"/>
      <component glyphName="dieresis" x="235" y="310" flags="0x4"/>
    </TTGlyph>
    <TTGlyph name="Adieresis.smcp" xMin="8" yMin="0" xMax="1175" yMax="1516">
      <component glyphName=".ttfautohint" x="8" y="0" flags="0x0"/>
      <component glyphName="A.smcp" x="0" y="0" flags="0x0"/>
      <component glyphName="dieresis" x="143" y="30" flags="0x4"/>
    </TTGlyph>
    <TTGlyph name="Agrave" xMin="17" yMin="0" xMax="1350" yMax="1846">
      <component glyphName=".ttfautohint" x="17" y="0" flags="0x0"/>
      <component glyphName="A" x="0" y="0" flags="0x0"/>
      <component glyphName="gravecomb" x="1221" y="310" flags="0x4"/>
    </TTGlyph>
    <TTGlyph name="Agrave.smcp" xMin="8" yMin="0" xMax="1175" yMax="1566">
      <component glyphName=".ttfautohint" x="8" y="0" flags="0x0"/>
      <component glyphName="A.smcp" x="0" y="0" flags="0x0"/>
      <component glyphName="gravecomb" x="1129" y="30" flags="0x4"/>
    </TTGlyph>
    <TTGlyph name="Aring" xMin="17" yMin="0" xMax="1350" yMax="1939">
      <component glyphName=".ttfautohint" x="17" y="0" flags="0x0"/>
      <component glyphName="A" x="0" y="0" flags="0x0"/>
      <component glyphName="ring" x="344" y="367" flags="0x4"/>
    </TTGlyph>
    <TTGlyph name="Aring.smcp" xMin="8" yMin="0" xMax="1175" yMax="1659">
      <component glyphName=".ttfautohint" x="8" y="0" flags="0x0"/>
      <component glyphName="A.smcp" x="0" y="0" flags="0x0"/>
      <component glyphName="ring" x="252" y="87" flags="0x4"/>
    </TTGlyph>
    <TTGlyph name="Atilde" xMin="17" yMin="0" xMax="1350" yMax="1837">
      <component glyphName=".ttfautohint" x="17" y="0" flags="0x0"/>
      <component glyphName="A" x="0" y="0" flags="0x0"/>
      <component glyphName="tilde" x="196" y="310" flags="0x4"/>
    </TTGlyph>
    <TTGlyph name="Atilde.smcp" xMin="8" yMin="0" xMax="1175" yMax="1557">
      <component glyphName=".ttfautohint" x="8" y="0" flags="0x0"/>
      <component glyphName="A.smcp" x="0" y="0" flags="0x0"/>
      <component glyphName="tilde" x="104" y="30" flags="0x4"/>
    </TTGlyph>
    <TTGlyph name="B" xMin="146" yMin="0" xMax="1190" yMax="1456">
      <contour>
        <pt x="1065" y="726" on="0"/>
        <pt x="1190" y="545" on="0"/>
        <pt x="1190" y="426" on="1"/>
        <pt x="1190" y="219" on="0"/>
        <pt x="924" y="0" on="0"/>
        <pt x="683" y="0" on="1"/>
        <pt x="146" y="0" on="1"/>
        <pt x="146" y="1456" on="1"/>
        <pt x="646" y="1456" on="1"/>
        <pt x="892" y="1456" on="0"/>
        <pt x="1156" y="1261" on="0"/>
        <pt x="1156" y="1062" on="1"/>
        <pt x="1156" y="961" on="0"/>
        <pt x="1047" y="800" on="0"/>
        <pt x="945" y="758" on="1"/>
      </contour>
      <contour>
        <pt x="405" y="1247" on="1"/>
        <pt x="405" y="844" on="1"/>
        <pt x="648" y="844" on="1"/>
        <pt x="767" y="844" on="0"/>
        <pt x="898" y="950" on="0"/>
        <pt x="898" y="1046" on="1"/>
        <pt x="898" y="1152" on="0"/>
        <pt x="776" y="1247" on="0"/>
        <pt x="646" y="1247" on="1"/>
      </contour>
      <contour>
        <pt x="803" y="208" on="0"/>
        <pt x="932" y="327" on="0"/>
        <pt x="932" y="426" on="1"/>
        <pt x="932" y="654" on="0"/>
        <pt x="694" y="654" on="1"/>
        <pt x="405" y="654" on="1"/>
        <pt x="405" y="208" on="1"/>
        <pt x="683" y="208" on="1"/>
      </contour>
    </TTGlyph>
    <TTGlyph name="B.smcp" xMin="116" yMin="0" xMax="1038" yMax="1165">
      <contour>
        <pt x="934" y="574" on="0"/>
        <pt x="1038" y="426" on="0"/>
        <pt x="1038" y="335" on="1"/>
        <pt x="1038" y="167" on="0"/>
        <pt x="807" y="0" on="0"/>
        <pt x="590" y="0" on="1"/>
        <pt x="116" y="0" on="1"/>
        <pt x="116" y="1165" on="1"/>
        <pt x="549" y="1165" on="1"/>
        <pt x="769" y="1165" on="0"/>
        <pt x="1010" y="1004" on="0"/>
        <pt x="1010" y="844" on="1"/>
        <pt x="1010" y="762" on="0"/>
        <pt x="919" y="632" on="0"/>
        <pt x="831" y="599" on="1"/>
      </contour>
      <contour>
        <pt x="365" y="964" on="1"/>
        <pt x="365" y="678" on="1"/>
        <pt x="565" y="678" on="1"/>
        <pt x="659" y="678" on="0"/>
        <pt x="760" y="749" on="0"/>
        <pt x="760" y="818" on="1"/>
        <pt x="760" y="894" on="0"/>
        <pt x="661" y="964" on="0"/>
        <pt x="561" y="964" on="1"/>
      </contour>
      <contour>
        <pt x="687" y="200" on="0"/>
        <pt x="789" y="280" on="0"/>
        <pt x="789" y="346" on="1"/>
        <pt x="789" y="504" on="0"/>
        <pt x="600" y="504" on="1"/>
        <pt x="365" y="504" on="1"/>
        <pt x="365" y="200" on="1"/>
        <pt x="590" y="200" on="1"/>
      </contour>
    </TTGlyph>
    <TTGlyph name="C" xMin="100" yMin="-20" xMax="1262" yMax="1476">
      <contour>
        <pt x="1248" y="330" on="0"/>
        <pt x="1111" y="106" on="0"/>
        <pt x="863" y="-20" on="0"/>
        <pt x="689" y="-20" on="1"/>
        <pt x="510" y="-20" on="0"/>
        <pt x="244" y="149" on="0"/>
        <pt x="100" y="461" on="0"/>
        <pt x="100" y="670" on="1"/>
        <pt x="100" y="785" on="1"/>
        <pt x="100" y="994" on="0"/>
        <pt x="247" y="1306" on="0"/>
        <pt x="518" y="1476" on="0"/>
        <pt x="699" y="1476" on="1"/>
        <pt x="870" y="1476" on="0"/>
        <pt x="1112" y="1349" on="0"/>
        <pt x="1247" y="1122" on="0"/>
        <pt x="1262" y="973" on="1"/>
        <pt x="1004" y="973" on="1"/>
        <pt x="987" y="1119" on="0"/>
        <pt x="848" y="1266" on="0"/>
        <pt x="699" y="1266" on="1"/>
        <pt x="532" y="1266" on="0"/>
        <pt x="361" y="1019" on="0"/>
        <pt x="361" y="787" on="1"/>
        <pt x="361" y="670" on="1"/>
        <pt x="361" y="442" on="0"/>
        <pt x="520" y="190" on="0"/>
        <pt x="689" y="190" on="1"/>
        <pt x="793" y="190" on="0"/>
        <pt x="924" y="255" on="0"/>
        <pt x="991" y="380" on="0"/>
        <pt x="1003" y="476" on="1"/>
        <pt x="1261" y="476" on="1"/>
      </contour>
    </TTGlyph>
    <TTGlyph name="C.smcp" xMin="78" yMin="-16" xMax="1094" yMax="1181">
      <contour>
        <pt x="1083" y="269" on="0"/>
        <pt x="961" y="86" on="0"/>
        <pt x="743" y="-16" on="0"/>
        <pt x="592" y="-16" on="1"/>
        <pt x="434" y="-16" on="0"/>
        <pt x="202" y="120" on="0"/>
        <pt x="78" y="374" on="0"/>
        <pt x="78" y="546" on="1"/>
        <pt x="78" y="618" on="1"/>
        <pt x="78" y="790" on="0"/>
        <pt x="205" y="1044" on="0"/>
        <pt x="439" y="1181" on="0"/>
        <pt x="596" y="1181" on="1"/>
        <pt x="747" y="1181" on="0"/>
        <pt x="962" y="1076" on="0"/>
        <pt x="1081" y="890" on="0"/>
        <pt x="1094" y="768" on="1"/>
        <pt x="845" y="768" on="1"/>
        <pt x="834" y="869" on="0"/>
        <pt x="719" y="981" on="0"/>
        <pt x="596" y="981" on="1"/>
        <pt x="462" y="981" on="0"/>
        <pt x="326" y="798" on="0"/>
        <pt x="326" y="619" on="1"/>
        <pt x="326" y="546" on="1"/>
        <pt x="326" y="367" on="0"/>
        <pt x="454" y="184" on="0"/>
        <pt x="592" y="184" on="1"/>
        <pt x="715" y="184" on="0"/>
        <pt x="833" y="285" on="0"/>
        <pt x="844" y="390" on="1"/>
        <pt x="1093" y="390" on="1"/>
      </contour>
    </TTGlyph>
    <TTGlyph name="C.ss06" xMin="105" yMin="-21" xMax="1318" yMax="1477">
      <contour>
        <pt x="1302" y="325" on="0"/>
        <pt x="1161" y="102" on="0"/>
        <pt x="912" y="-21" on="0"/>
        <pt x="740" y="-21" on="1"/>
        <pt x="557" y="-21" on="0"/>
        <pt x="268" y="157" on="0"/>
        <pt x="105" y="485" on="0"/>
        <pt x="105" y="701" on="1"/>
        <pt x="105" y="754" on="1"/>
        <pt x="105" y="971" on="0"/>
        <pt x="266" y="1299" on="0"/>
        <pt x="552" y="1477" on="0"/>
        <pt x="734" y="1477" on="1"/>
        <pt x="906" y="1477" on="0"/>
        <pt x="1158" y="1352" on="0"/>
        <pt x="1303" y="1125" on="0"/>
        <pt x="1318" y="973" on="1"/>
        <pt x="1059" y="973" on="1"/>
        <pt x="1039" y="1117" on="0"/>
        <pt x="884" y="1268" on="0"/>
        <pt x="734" y="1268" on="1"/>
        <pt x="622" y="1268" on="0"/>
        <pt x="455" y="1143" on="0"/>
        <pt x="364" y="911" on="0"/>
        <pt x="364" y="756" on="1"/>
        <pt x="364" y="701" on="1"/>
        <pt x="364" y="546" on="0"/>
        <pt x="457" y="313" on="0"/>
        <pt x="627" y="187" on="0"/>
        <pt x="740" y="187" on="1"/>
        <pt x="888" y="187" on="0"/>
        <pt x="1037" y="334" on="0"/>
        <pt x="1058" y="476" on="1"/>
        <pt x="1317" y="476" on="1"/>
      </contour>
    </TTGlyph>
    <TTGlyph name="Ccedilla" xMin="100" yMin="-456" xMax="1262" yMax="1476">
      <component glyphName=".ttfautohint" x="100" y="0" flags="0x0"/>
      <component glyphName="C" x="0" y="0" flags="0x0"/>
      <component glyphName="cedilla" x="457" y="-6" flags="0x4"/>
    </TTGlyph>
    <TTGlyph name="Ccedilla.smcp" xMin="78" yMin="-450" xMax="1094" yMax="1181">
      <component glyphName=".ttfautohint" x="78" y="0" flags="0x0"/>
      <component glyphName="C.smcp" x="0" y="0" flags="0x0"/>
      <component glyphName="cedilla" x="363" y="0" flags="0x0"/>
    </TTGlyph>
    <TTGlyph name="D" xMin="146" yMin="0" xMax="1235" yMax="1456">
      <contour>
        <pt x="772" y="1456" on="0"/>
        <pt x="1070" y="1284" on="0"/>
        <pt x="1235" y="970" on="0"/>
        <pt x="1235" y="763" on="1"/>
        <pt x="1235" y="692" on="1"/>
        <pt x="1235" y="484" on="0"/>
        <pt x="1070" y="171" on="0"/>
        <pt x="768" y="0" on="0"/>
        <pt x="568" y="0" on="1"/>
        <pt x="146" y="0" on="1"/>
        <pt x="146" y="1456" on="1"/>
        <pt x="578" y="1456" on="1"/>
      </contour>
      <contour>
        <pt x="975" y="765" on="1"/>
        <pt x="975" y="999" on="0"/>
        <pt x="771" y="1247" on="0"/>
        <pt x="578" y="1247" on="1"/>
        <pt x="405" y="1247" on="1"/>
        <pt x="405" y="208" on="1"/>
        <pt x="568" y="208" on="1"/>
        <pt x="768" y="208" on="0"/>
        <pt x="975" y="461" on="0"/>
        <pt x="975" y="692" on="1"/>
      </contour>
    </TTGlyph>
    <TTGlyph name="D.smcp" xMin="116" yMin="0" xMax="1068" yMax="1165">
      <contour>
        <pt x="664" y="1165" on="0"/>
        <pt x="924" y="1025" on="0"/>
        <pt x="1068" y="772" on="0"/>
        <pt x="1068" y="607" on="1"/>
        <pt x="1068" y="557" on="1"/>
        <pt x="1068" y="392" on="0"/>
        <pt x="924" y="139" on="0"/>
        <pt x="663" y="0" on="0"/>
        <pt x="493" y="0" on="1"/>
        <pt x="116" y="0" on="1"/>
        <pt x="116" y="1165" on="1"/>
        <pt x="497" y="1165" on="1"/>
      </contour>
      <contour>
        <pt x="819" y="609" on="1"/>
        <pt x="819" y="786" on="0"/>
        <pt x="663" y="964" on="0"/>
        <pt x="497" y="964" on="1"/>
        <pt x="365" y="964" on="1"/>
        <pt x="365" y="200" on="1"/>
        <pt x="493" y="200" on="1"/>
        <pt x="661" y="200" on="0"/>
        <pt x="819" y="380" on="0"/>
        <pt x="819" y="557" on="1"/>
      </contour>
    </TTGlyph>
    <TTGlyph name="D.ss06" xMin="152" yMin="0" xMax="1304" yMax="1456">
      <contour>
        <pt x="803" y="1456" on="0"/>
        <pt x="1124" y="1278" on="0"/>
        <pt x="1304" y="956" on="0"/>
        <pt x="1304" y="748" on="1"/>
        <pt x="1304" y="707" on="1"/>
        <pt x="1304" y="499" on="0"/>
        <pt x="1124" y="178" on="0"/>
        <pt x="799" y="0" on="0"/>
        <pt x="588" y="0" on="1"/>
        <pt x="152" y="0" on="1"/>
        <pt x="152" y="1456" on="1"/>
        <pt x="599" y="1456" on="1"/>
      </contour>
      <contour>
        <pt x="1044" y="750" on="1"/>
        <pt x="1044" y="901" on="0"/>
        <pt x="940" y="1125" on="0"/>
        <pt x="735" y="1247" on="0"/>
        <pt x="590" y="1247" on="1"/>
        <pt x="411" y="1247" on="1"/>
        <pt x="411" y="208" on="1"/>
        <pt x="579" y="208" on="1"/>
        <pt x="730" y="208" on="0"/>
        <pt x="939" y="335" on="0"/>
        <pt x="1044" y="560" on="0"/>
        <pt x="1044" y="707" on="1"/>
      </contour>
    </TTGlyph>
    <TTGlyph name="E" xMin="146" yMin="0" xMax="1101" yMax="1456">
      <contour>
        <pt x="1101" y="208" on="1"/>
        <pt x="1101" y="0" on="1"/>
        <pt x="146" y="0" on="1"/>
        <pt x="146" y="1456" on="1"/>
        <pt x="1095" y="1456" on="1"/>
        <pt x="1095" y="1247" on="1"/>
        <pt x="405" y="1247" on="1"/>
        <pt x="405" y="852" on="1"/>
        <pt x="1000" y="852" on="1"/>
        <pt x="1000" y="648" on="1"/>
        <pt x="405" y="648" on="1"/>
        <pt x="405" y="208" on="1"/>
      </contour>
    </TTGlyph>
    <TTGlyph name="E.smcp" xMin="116" yMin="0" xMax="950" yMax="1165">
      <contour>
        <pt x="950" y="200" on="1"/>
        <pt x="950" y="0" on="1"/>
        <pt x="116" y="0" on="1"/>
        <pt x="116" y="1165" on="1"/>
        <pt x="948" y="1165" on="1"/>
        <pt x="948" y="964" on="1"/>
        <pt x="365" y="964" on="1"/>
        <pt x="365" y="702" on="1"/>
        <pt x="864" y="702" on="1"/>
        <pt x="864" y="502" on="1"/>
        <pt x="365" y="502" on="1"/>
        <pt x="365" y="200" on="1"/>
      </contour>
    </TTGlyph>
    <TTGlyph name="Eacute" xMin="146" yMin="0" xMax="1101" yMax="1853">
      <component glyphName=".ttfautohint" x="146" y="0" flags="0x0"/>
      <component glyphName="E" x="0" y="0" flags="0x0"/>
      <component glyphName="acutecomb" x="1181" y="317" flags="0x4"/>
    </TTGlyph>
    <TTGlyph name="Eacute.smcp" xMin="116" yMin="0" xMax="950" yMax="1566">
      <component glyphName=".ttfautohint" x="116" y="0" flags="0x0"/>
      <component glyphName="E.smcp" x="0" y="0" flags="0x0"/>
      <component glyphName="acutecomb" x="1099" y="30" flags="0x4"/>
    </TTGlyph>
    <TTGlyph name="Ecircumflex" xMin="146" yMin="0" xMax="1101" yMax="1854">
      <component glyphName=".ttfautohint" x="146" y="0" flags="0x0"/>
      <component glyphName="E" x="0" y="0" flags="0x0"/>
      <component glyphName="circumflex" x="136" y="317" flags="0x4"/>
    </TTGlyph>
    <TTGlyph name="Ecircumflex.smcp" xMin="116" yMin="0" xMax="950" yMax="1567">
      <component glyphName=".ttfautohint" x="116" y="0" flags="0x0"/>
      <component glyphName="E.smcp" x="0" y="0" flags="0x0"/>
      <component glyphName="circumflex" x="54" y="30" flags="0x4"/>
    </TTGlyph>
    <TTGlyph name="Edieresis" xMin="146" yMin="0" xMax="1101" yMax="1803">
      <component glyphName=".ttfautohint" x="146" y="0" flags="0x0"/>
      <component glyphName="E" x="0" y="0" flags="0x0"/>
      <component glyphName="dieresis" x="177" y="317" flags="0x4"/>
    </TTGlyph>
    <TTGlyph name="Edieresis.smcp" xMin="116" yMin="0" xMax="950" yMax="1516">
      <component glyphName=".ttfautohint" x="116" y="0" flags="0x0"/>
      <component glyphName="E.smcp" x="0" y="0" flags="0x0"/>
      <component glyphName="dieresis" x="95" y="30" flags="0x4"/>
    </TTGlyph>
    <TTGlyph name="Egrave" xMin="146" yMin="0" xMax="1101" yMax="1853">
      <component glyphName=".ttfautohint" x="146" y="0" flags="0x0"/>
      <component glyphName="E" x="0" y="0" flags="0x0"/>
      <component glyphName="gravecomb" x="1163" y="317" flags="0x4"/>
    </TTGlyph>
    <TTGlyph name="Egrave.smcp" xMin="116" yMin="0" xMax="950" yMax="1566">
      <component glyphName=".ttfautohint" x="116" y="0" flags="0x0"/>
      <component glyphName="E.smcp" x="0" y="0" flags="0x0"/>
      <component glyphName="gravecomb" x="1081" y="30" flags="0x4"/>
    </TTGlyph>
    <TTGlyph name="Eth" xMin="-10" yMin="0" xMax="1235" yMax="1456">
      <component glyphName=".ttfautohint" x="0" y="0" flags="0x0"/>
      <component glyphName="D" x="0" y="0" flags="0x0"/>
      <component glyphName="crossbar" x="-154" y="3" flags="0x4"/>
    </TTGlyph>
    <TTGlyph name="Eth.smcp" xMin="-93" yMin="0" xMax="1068" yMax="1165">
      <component glyphName=".ttfautohint" x="0" y="0" flags="0x0"/>
      <component glyphName="D.smcp" x="0" y="0" flags="0x0"/>
      <component glyphName="crossbar" x="-237" y="-149" flags="0x4"/>
    </TTGlyph>
    <TTGlyph name="Euro" xMin="94" yMin="-20" xMax="1075" yMax="1476">
      <contour>
        <pt x="952" y="187" on="0"/>
        <pt x="1046" y="219" on="1"/>
        <pt x="1075" y="10" on="1"/>
        <pt x="953" y="-20" on="0"/>
        <pt x="826" y="-20" on="1"/>
        <pt x="663" y="-20" on="0"/>
        <pt x="414" y="103" on="0"/>
        <pt x="270" y="349" on="0"/>
        <pt x="265" y="526" on="1"/>
        <pt x="94" y="526" on="1"/>
        <pt x="94" y="668" on="1"/>
        <pt x="265" y="668" on="1"/>
        <pt x="265" y="796" on="1"/>
        <pt x="94" y="796" on="1"/>
        <pt x="94" y="938" on="1"/>
        <pt x="266" y="938" on="1"/>
        <pt x="276" y="1112" on="0"/>
        <pt x="423" y="1354" on="0"/>
        <pt x="673" y="1476" on="0"/>
        <pt x="836" y="1476" on="1"/>
        <pt x="946" y="1476" on="0"/>
        <pt x="1075" y="1445" on="1"/>
        <pt x="1046" y="1235" on="1"/>
        <pt x="944" y="1268" on="0"/>
        <pt x="846" y="1268" on="1"/>
        <pt x="701" y="1268" on="0"/>
        <pt x="536" y="1106" on="0"/>
        <pt x="525" y="938" on="1"/>
        <pt x="877" y="938" on="1"/>
        <pt x="877" y="796" on="1"/>
        <pt x="524" y="796" on="1"/>
        <pt x="524" y="668" on="1"/>
        <pt x="877" y="668" on="1"/>
        <pt x="877" y="526" on="1"/>
        <pt x="524" y="526" on="1"/>
        <pt x="530" y="350" on="0"/>
        <pt x="696" y="187" on="0"/>
        <pt x="843" y="187" on="1"/>
      </contour>
    </TTGlyph>
    <TTGlyph name="Euro.smcp" xMin="71" yMin="-16" xMax="946" yMax="1183">
      <contour>
        <pt x="773" y="184" on="0"/>
        <pt x="859" y="197" on="0"/>
        <pt x="919" y="211" on="1"/>
        <pt x="946" y="15" on="1"/>
        <pt x="887" y="-1" on="0"/>
        <pt x="780" y="-16" on="0"/>
        <pt x="719" y="-16" on="1"/>
        <pt x="507" y="-16" on="0"/>
        <pt x="247" y="193" on="0"/>
        <pt x="222" y="386" on="1"/>
        <pt x="71" y="386" on="1"/>
        <pt x="71" y="536" on="1"/>
        <pt x="216" y="536" on="1"/>
        <pt x="216" y="625" on="1"/>
        <pt x="71" y="625" on="1"/>
        <pt x="71" y="775" on="1"/>
        <pt x="223" y="775" on="1"/>
        <pt x="249" y="971" on="0"/>
        <pt x="507" y="1183" on="0"/>
        <pt x="717" y="1183" on="1"/>
        <pt x="777" y="1183" on="0"/>
        <pt x="880" y="1167" on="0"/>
        <pt x="946" y="1150" on="1"/>
        <pt x="924" y="955" on="1"/>
        <pt x="871" y="970" on="0"/>
        <pt x="776" y="983" on="0"/>
        <pt x="717" y="983" on="1"/>
        <pt x="611" y="983" on="0"/>
        <pt x="490" y="879" on="0"/>
        <pt x="473" y="775" on="1"/>
        <pt x="850" y="775" on="1"/>
        <pt x="850" y="625" on="1"/>
        <pt x="465" y="625" on="1"/>
        <pt x="465" y="536" on="1"/>
        <pt x="850" y="536" on="1"/>
        <pt x="850" y="386" on="1"/>
        <pt x="472" y="386" on="1"/>
        <pt x="489" y="285" on="0"/>
        <pt x="612" y="184" on="0"/>
        <pt x="719" y="184" on="1"/>
      </contour>
    </TTGlyph>
    <TTGlyph name="F" xMin="146" yMin="0" xMax="1074" yMax="1456">
      <contour>
        <pt x="405" y="1247" on="1"/>
        <pt x="405" y="822" on="1"/>
        <pt x="990" y="822" on="1"/>
        <pt x="990" y="614" on="1"/>
        <pt x="405" y="614" on="1"/>
        <pt x="405" y="0" on="1"/>
        <pt x="146" y="0" on="1"/>
        <pt x="146" y="1456" on="1"/>
        <pt x="1074" y="1456" on="1"/>
        <pt x="1074" y="1247" on="1"/>
      </contour>
    </TTGlyph>
    <TTGlyph name="F.smcp" xMin="116" yMin="0" xMax="927" yMax="1165">
      <contour>
        <pt x="365" y="964" on="1"/>
        <pt x="365" y="673" on="1"/>
        <pt x="862" y="673" on="1"/>
        <pt x="862" y="472" on="1"/>
        <pt x="365" y="472" on="1"/>
        <pt x="365" y="0" on="1"/>
        <pt x="116" y="0" on="1"/>
        <pt x="116" y="1165" on="1"/>
        <pt x="927" y="1165" on="1"/>
        <pt x="927" y="964" on="1"/>
      </contour>
    </TTGlyph>
    <TTGlyph name="G" xMin="105" yMin="-20" xMax="1267" yMax="1476">
      <contour>
        <pt x="1203" y="106" on="0"/>
        <pt x="944" y="-20" on="0"/>
        <pt x="728" y="-20" on="1"/>
        <pt x="543" y="-20" on="0"/>
        <pt x="262" y="146" on="0"/>
        <pt x="105" y="462" on="0"/>
        <pt x="105" y="680" on="1"/>
        <pt x="105" y="775" on="1"/>
        <pt x="105" y="996" on="0"/>
        <pt x="249" y="1311" on="0"/>
        <pt x="519" y="1476" on="0"/>
        <pt x="706" y="1476" on="1"/>
        <pt x="963" y="1476" on="0"/>
        <pt x="1238" y="1225" on="0"/>
        <pt x="1266" y="1009" on="1"/>
        <pt x="1012" y="1009" on="1"/>
        <pt x="971" y="1268" on="0"/>
        <pt x="711" y="1268" on="1"/>
        <pt x="539" y="1268" on="0"/>
        <pt x="366" y="1015" on="0"/>
        <pt x="366" y="777" on="1"/>
        <pt x="366" y="680" on="1"/>
        <pt x="366" y="523" on="0"/>
        <pt x="454" y="302" on="0"/>
        <pt x="621" y="188" on="0"/>
        <pt x="737" y="188" on="1"/>
        <pt x="851" y="188" on="0"/>
        <pt x="974" y="237" on="0"/>
        <pt x="1008" y="273" on="1"/>
        <pt x="1008" y="554" on="1"/>
        <pt x="712" y="554" on="1"/>
        <pt x="712" y="750" on="1"/>
        <pt x="1267" y="750" on="1"/>
        <pt x="1267" y="189" on="1"/>
      </contour>
    </TTGlyph>
    <TTGlyph name="G.smcp" xMin="83" yMin="-16" xMax="1099" yMax="1181">
      <contour>
        <pt x="1042" y="82" on="0"/>
        <pt x="810" y="-16" on="0"/>
        <pt x="625" y="-16" on="1"/>
        <pt x="463" y="-16" on="0"/>
        <pt x="219" y="117" on="0"/>
        <pt x="83" y="371" on="0"/>
        <pt x="83" y="548" on="1"/>
        <pt x="83" y="616" on="1"/>
        <pt x="83" y="794" on="0"/>
        <pt x="211" y="1048" on="0"/>
        <pt x="447" y="1181" on="0"/>
        <pt x="607" y="1181" on="1"/>
        <pt x="837" y="1181" on="0"/>
        <pt x="1077" y="973" on="0"/>
        <pt x="1099" y="792" on="1"/>
        <pt x="856" y="792" on="1"/>
        <pt x="840" y="884" on="0"/>
        <pt x="726" y="981" on="0"/>
        <pt x="613" y="981" on="1"/>
        <pt x="476" y="981" on="0"/>
        <pt x="333" y="797" on="0"/>
        <pt x="333" y="618" on="1"/>
        <pt x="333" y="548" on="1"/>
        <pt x="333" y="369" on="0"/>
        <pt x="490" y="184" on="0"/>
        <pt x="637" y="184" on="1"/>
        <pt x="783" y="184" on="0"/>
        <pt x="850" y="239" on="1"/>
        <pt x="850" y="434" on="1"/>
        <pt x="605" y="434" on="1"/>
        <pt x="605" y="615" on="1"/>
        <pt x="1099" y="615" on="1"/>
        <pt x="1099" y="146" on="1"/>
      </contour>
    </TTGlyph>
    <TTGlyph name="G.ss06" xMin="105" yMin="-21" xMax="1318" yMax="1477">
      <contour>
        <pt x="1283" y="140" on="0"/>
        <pt x="1143" y="45" on="0"/>
        <pt x="923" y="-21" on="0"/>
        <pt x="780" y="-21" on="1"/>
        <pt x="588" y="-21" on="0"/>
        <pt x="280" y="158" on="0"/>
        <pt x="105" y="488" on="0"/>
        <pt x="105" y="706" on="1"/>
        <pt x="105" y="744" on="1"/>
        <pt x="105" y="966" on="0"/>
        <pt x="268" y="1298" on="0"/>
        <pt x="556" y="1477" on="0"/>
        <pt x="739" y="1477" on="1"/>
        <pt x="1002" y="1477" on="0"/>
        <pt x="1289" y="1224" on="0"/>
        <pt x="1318" y="1009" on="1"/>
        <pt x="1064" y="1009" on="1"/>
        <pt x="1017" y="1268" on="0"/>
        <pt x="744" y="1268" on="1"/>
        <pt x="632" y="1268" on="0"/>
        <pt x="460" y="1140" on="0"/>
        <pt x="364" y="903" on="0"/>
        <pt x="364" y="746" on="1"/>
        <pt x="364" y="706" on="1"/>
        <pt x="364" y="549" on="0"/>
        <pt x="470" y="314" on="0"/>
        <pt x="658" y="187" on="0"/>
        <pt x="780" y="187" on="1"/>
        <pt x="888" y="187" on="0"/>
        <pt x="1030" y="236" on="0"/>
        <pt x="1060" y="268" on="1"/>
        <pt x="1060" y="547" on="1"/>
        <pt x="773" y="547" on="1"/>
        <pt x="773" y="742" on="1"/>
        <pt x="1318" y="742" on="1"/>
        <pt x="1318" y="188" on="1"/>
      </contour>
    </TTGlyph>
    <TTGlyph name="H" xMin="146" yMin="0" xMax="1306" yMax="1456">
      <contour>
        <pt x="1306" y="1456" on="1"/>
        <pt x="1306" y="0" on="1"/>
        <pt x="1048" y="0" on="1"/>
        <pt x="1048" y="645" on="1"/>
        <pt x="405" y="645" on="1"/>
        <pt x="405" y="0" on="1"/>
        <pt x="146" y="0" on="1"/>
        <pt x="146" y="1456" on="1"/>
        <pt x="405" y="1456" on="1"/>
        <pt x="405" y="852" on="1"/>
        <pt x="1048" y="852" on="1"/>
        <pt x="1048" y="1456" on="1"/>
      </contour>
    </TTGlyph>
    <TTGlyph name="H.smcp" xMin="116" yMin="0" xMax="1130" yMax="1165">
      <contour>
        <pt x="1130" y="1165" on="1"/>
        <pt x="1130" y="0" on="1"/>
        <pt x="881" y="0" on="1"/>
        <pt x="881" y="472" on="1"/>
        <pt x="365" y="472" on="1"/>
        <pt x="365" y="0" on="1"/>
        <pt x="116" y="0" on="1"/>
        <pt x="116" y="1165" on="1"/>
        <pt x="365" y="1165" on="1"/>
        <pt x="365" y="673" on="1"/>
        <pt x="881" y="673" on="1"/>
        <pt x="881" y="1165" on="1"/>
      </contour>
    </TTGlyph>
    <TTGlyph name="I" xMin="162" yMin="0" xMax="420" yMax="1456">
      <contour>
        <pt x="162" y="0" on="1"/>
        <pt x="162" y="1456" on="1"/>
        <pt x="420" y="1456" on="1"/>
        <pt x="420" y="0" on="1"/>
      </contour>
    </TTGlyph>
    <TTGlyph name="I.smcp" xMin="131" yMin="0" xMax="380" yMax="1165">
      <contour>
        <pt x="131" y="0" on="1"/>
        <pt x="131" y="1165" on="1"/>
        <pt x="380" y="1165" on="1"/>
        <pt x="380" y="0" on="1"/>
      </contour>
    </TTGlyph>
    <TTGlyph name="Iacute" xMin="162" yMin="0" xMax="645" yMax="1853">
      <component glyphName=".ttfautohint" x="162" y="0" flags="0x0"/>
      <component glyphName="I" x="0" y="0" flags="0x0"/>
      <component glyphName="acutecomb" x="843" y="317" flags="0x4"/>
    </TTGlyph>
    <TTGlyph name="Iacute.smcp" xMin="131" yMin="0" xMax="611" yMax="1566">
      <component glyphName=".ttfautohint" x="131" y="0" flags="0x0"/>
      <component glyphName="I.smcp" x="0" y="0" flags="0x0"/>
      <component glyphName="acutecomb" x="809" y="30" flags="0x4"/>
    </TTGlyph>
    <TTGlyph name="Icircumflex" xMin="-56" yMin="0" xMax="640" yMax="1854">
      <component glyphName=".ttfautohint" x="0" y="0" flags="0x0"/>
      <component glyphName="I" x="0" y="0" flags="0x0"/>
      <component glyphName="circumflex" x="-202" y="317" flags="0x4"/>
    </TTGlyph>
    <TTGlyph name="Icircumflex.smcp" xMin="-90" yMin="0" xMax="606" yMax="1567">
      <component glyphName=".ttfautohint" x="0" y="0" flags="0x0"/>
      <component glyphName="I.smcp" x="0" y="0" flags="0x0"/>
      <component glyphName="circumflex" x="-236" y="30" flags="0x4"/>
    </TTGlyph>
    <TTGlyph name="Idieresis" xMin="-67" yMin="0" xMax="650" yMax="1803">
      <component glyphName=".ttfautohint" x="0" y="0" flags="0x0"/>
      <component glyphName="I" x="0" y="0" flags="0x0"/>
      <component glyphName="dieresis" x="-161" y="317" flags="0x4"/>
    </TTGlyph>
    <TTGlyph name="Idieresis.smcp" xMin="-101" yMin="0" xMax="616" yMax="1516">
      <component glyphName=".ttfautohint" x="0" y="0" flags="0x0"/>
      <component glyphName="I.smcp" x="0" y="0" flags="0x0"/>
      <component glyphName="dieresis" x="-195" y="30" flags="0x4"/>
    </TTGlyph>
    <TTGlyph name="Igrave" xMin="-59" yMin="0" xMax="420" yMax="1853">
      <component glyphName=".ttfautohint" x="0" y="0" flags="0x0"/>
      <component glyphName="I" x="0" y="0" flags="0x0"/>
      <component glyphName="gravecomb" x="825" y="317" flags="0x4"/>
    </TTGlyph>
    <TTGlyph name="Igrave.smcp" xMin="-93" yMin="0" xMax="384" yMax="1566">
      <component glyphName=".ttfautohint" x="0" y="0" flags="0x0"/>
      <component glyphName="I.smcp" x="0" y="0" flags="0x0"/>
      <component glyphName="gravecomb" x="791" y="30" flags="0x4"/>
    </TTGlyph>
    <TTGlyph name="J" xMin="45" yMin="-20" xMax="999" yMax="1456">
      <contour>
        <pt x="999" y="1456" on="1"/>
        <pt x="999" y="437" on="1"/>
        <pt x="999" y="296" on="0"/>
        <pt x="877" y="89" on="0"/>
        <pt x="660" y="-20" on="0"/>
        <pt x="522" y="-20" on="1"/>
        <pt x="380" y="-20" on="0"/>
        <pt x="166" y="76" on="0"/>
        <pt x="45" y="273" on="0"/>
        <pt x="45" y="418" on="1"/>
        <pt x="304" y="418" on="1"/>
        <pt x="304" y="298" on="0"/>
        <pt x="420" y="188" on="0"/>
        <pt x="522" y="188" on="1"/>
        <pt x="621" y="188" on="0"/>
        <pt x="741" y="319" on="0"/>
        <pt x="741" y="437" on="1"/>
        <pt x="741" y="1456" on="1"/>
      </contour>
    </TTGlyph>
    <TTGlyph name="J.smcp" xMin="36" yMin="-16" xMax="872" yMax="1165">
      <contour>
        <pt x="872" y="1165" on="1"/>
        <pt x="872" y="369" on="1"/>
        <pt x="872" y="251" on="0"/>
        <pt x="765" y="77" on="0"/>
        <pt x="580" y="-16" on="0"/>
        <pt x="464" y="-16" on="1"/>
        <pt x="336" y="-16" on="0"/>
        <pt x="144" y="65" on="0"/>
        <pt x="36" y="231" on="0"/>
        <pt x="36" y="354" on="1"/>
        <pt x="286" y="354" on="1"/>
        <pt x="286" y="184" on="0"/>
        <pt x="464" y="184" on="1"/>
        <pt x="539" y="184" on="0"/>
        <pt x="622" y="279" on="0"/>
        <pt x="622" y="369" on="1"/>
        <pt x="622" y="1165" on="1"/>
      </contour>
    </TTGlyph>
    <TTGlyph name="K" xMin="146" yMin="0" xMax="1306" yMax="1456">
      <contour>
        <pt x="569" y="624" on="1"/>
        <pt x="405" y="449" on="1"/>
        <pt x="405" y="0" on="1"/>
        <pt x="146" y="0" on="1"/>
        <pt x="146" y="1456" on="1"/>
        <pt x="405" y="1456" on="1"/>
        <pt x="405" y="776" on="1"/>
        <pt x="545" y="950" on="1"/>
        <pt x="963" y="1456" on="1"/>
        <pt x="1278" y="1456" on="1"/>
        <pt x="740" y="812" on="1"/>
        <pt x="1306" y="0" on="1"/>
        <pt x="998" y="0" on="1"/>
      </contour>
    </TTGlyph>
    <TTGlyph name="K.alt" xMin="152" yMin="0" xMax="1330" yMax="1456">
      <contour>
        <pt x="584" y="620" on="1"/>
        <pt x="411" y="620" on="1"/>
        <pt x="411" y="0" on="1"/>
        <pt x="152" y="0" on="1"/>
        <pt x="152" y="1456" on="1"/>
        <pt x="411" y="1456" on="1"/>
        <pt x="411" y="849" on="1"/>
        <pt x="549" y="849" on="1"/>
        <pt x="968" y="1456" on="1"/>
        <pt x="1286" y="1456" on="1"/>
        <pt x="793" y="760" on="1"/>
        <pt x="1330" y="0" on="1"/>
        <pt x="1019" y="0" on="1"/>
      </contour>
    </TTGlyph>
    <TTGlyph name="K.alt2" xMin="152" yMin="0" xMax="1300" yMax="1456">
      <contour>
        <pt x="979" y="0" on="1"/>
        <pt x="411" y="665" on="1"/>
        <pt x="411" y="0" on="1"/>
        <pt x="152" y="0" on="1"/>
        <pt x="152" y="1456" on="1"/>
        <pt x="411" y="1456" on="1"/>
        <pt x="411" y="815" on="1"/>
        <pt x="416" y="815" on="1"/>
        <pt x="944" y="1456" on="1"/>
        <pt x="1265" y="1456" on="1"/>
        <pt x="668" y="740" on="1"/>
        <pt x="1300" y="0" on="1"/>
      </contour>
    </TTGlyph>
    <TTGlyph name="K.smcp" xMin="116" yMin="0" xMax="1131" yMax="1165">
      <contour>
        <pt x="500" y="470" on="1"/>
        <pt x="365" y="340" on="1"/>
        <pt x="365" y="0" on="1"/>
        <pt x="116" y="0" on="1"/>
        <pt x="116" y="1165" on="1"/>
        <pt x="365" y="1165" on="1"/>
        <pt x="365" y="654" on="1"/>
        <pt x="474" y="788" on="1"/>
        <pt x="801" y="1165" on="1"/>
        <pt x="1110" y="1165" on="1"/>
        <pt x="668" y="644" on="1"/>
        <pt x="1131" y="0" on="1"/>
        <pt x="833" y="0" on="1"/>
      </contour>
    </TTGlyph>
    <TTGlyph name="L" xMin="146" yMin="0" xMax="1063" yMax="1456">
      <contour>
        <pt x="1063" y="208" on="1"/>
        <pt x="1063" y="0" on="1"/>
        <pt x="146" y="0" on="1"/>
        <pt x="146" y="1456" on="1"/>
        <pt x="405" y="1456" on="1"/>
        <pt x="405" y="208" on="1"/>
      </contour>
    </TTGlyph>
    <TTGlyph name="L.smcp" xMin="116" yMin="0" xMax="917" yMax="1165">
      <contour>
        <pt x="917" y="200" on="1"/>
        <pt x="917" y="0" on="1"/>
        <pt x="116" y="0" on="1"/>
        <pt x="116" y="1165" on="1"/>
        <pt x="365" y="1165" on="1"/>
        <pt x="365" y="200" on="1"/>
      </contour>
    </TTGlyph>
    <TTGlyph name="M" xMin="146" yMin="0" xMax="1645" yMax="1456">
      <contour>
        <pt x="1645" y="0" on="1"/>
        <pt x="1387" y="0" on="1"/>
        <pt x="1387" y="470" on="1"/>
        <pt x="1413" y="1118" on="1"/>
        <pt x="988" y="0" on="1"/>
        <pt x="803" y="0" on="1"/>
        <pt x="379" y="1115" on="1"/>
        <pt x="405" y="470" on="1"/>
        <pt x="405" y="0" on="1"/>
        <pt x="146" y="0" on="1"/>
        <pt x="146" y="1456" on="1"/>
        <pt x="482" y="1456" on="1"/>
        <pt x="896" y="348" on="1"/>
        <pt x="1309" y="1456" on="1"/>
        <pt x="1645" y="1456" on="1"/>
      </contour>
    </TTGlyph>
    <TTGlyph name="M.smcp" xMin="116" yMin="0" xMax="1426" yMax="1165">
      <contour>
        <pt x="1426" y="0" on="1"/>
        <pt x="1177" y="0" on="1"/>
        <pt x="1177" y="305" on="1"/>
        <pt x="1203" y="879" on="1"/>
        <pt x="856" y="0" on="1"/>
        <pt x="685" y="0" on="1"/>
        <pt x="339" y="876" on="1"/>
        <pt x="365" y="305" on="1"/>
        <pt x="365" y="0" on="1"/>
        <pt x="116" y="0" on="1"/>
        <pt x="116" y="1165" on="1"/>
        <pt x="441" y="1165" on="1"/>
        <pt x="771" y="330" on="1"/>
        <pt x="1100" y="1165" on="1"/>
        <pt x="1426" y="1165" on="1"/>
      </contour>
    </TTGlyph>
    <TTGlyph name="N" xMin="146" yMin="0" xMax="1305" yMax="1456">
      <contour>
        <pt x="1046" y="0" on="1"/>
        <pt x="405" y="1024" on="1"/>
        <pt x="405" y="0" on="1"/>
        <pt x="146" y="0" on="1"/>
        <pt x="146" y="1456" on="1"/>
        <pt x="405" y="1456" on="1"/>
        <pt x="1048" y="430" on="1"/>
        <pt x="1048" y="1456" on="1"/>
        <pt x="1305" y="1456" on="1"/>
        <pt x="1305" y="0" on="1"/>
      </contour>
    </TTGlyph>
    <TTGlyph name="N.smcp" xMin="116" yMin="0" xMax="1129" yMax="1165">
      <contour>
        <pt x="880" y="0" on="1"/>
        <pt x="365" y="787" on="1"/>
        <pt x="365" y="0" on="1"/>
        <pt x="116" y="0" on="1"/>
        <pt x="116" y="1165" on="1"/>
        <pt x="365" y="1165" on="1"/>
        <pt x="880" y="378" on="1"/>
        <pt x="880" y="1165" on="1"/>
        <pt x="1129" y="1165" on="1"/>
        <pt x="1129" y="0" on="1"/>
      </contour>
    </TTGlyph>
    <TTGlyph name="Ntilde" xMin="146" yMin="0" xMax="1305" yMax="1837">
      <component glyphName=".ttfautohint" x="146" y="0" flags="0x0"/>
      <component glyphName="N" x="0" y="0" flags="0x0"/>
      <component glyphName="tilde" x="236" y="310" flags="0x4"/>
    </TTGlyph>
    <TTGlyph name="Ntilde.smcp" xMin="116" yMin="0" xMax="1129" yMax="1557">
      <component glyphName=".ttfautohint" x="116" y="0" flags="0x0"/>
      <component glyphName="N.smcp" x="0" y="0" flags="0x0"/>
      <component glyphName="tilde" x="134" y="30" flags="0x4"/>
    </TTGlyph>
    <TTGlyph name="O" xMin="100" yMin="-20" xMax="1313" yMax="1476">
      <contour>
        <pt x="1313" y="473" on="0"/>
        <pt x="1162" y="152" on="0"/>
        <pt x="888" y="-20" on="0"/>
        <pt x="708" y="-20" on="1"/>
        <pt x="530" y="-20" on="0"/>
        <pt x="254" y="152" on="0"/>
        <pt x="100" y="474" on="0"/>
        <pt x="100" y="691" on="1"/>
        <pt x="100" y="764" on="1"/>
        <pt x="100" y="981" on="0"/>
        <pt x="253" y="1303" on="0"/>
        <pt x="528" y="1476" on="0"/>
        <pt x="706" y="1476" on="1"/>
        <pt x="886" y="1476" on="0"/>
        <pt x="1161" y="1304" on="0"/>
        <pt x="1313" y="982" on="0"/>
        <pt x="1313" y="764" on="1"/>
        <pt x="1313" y="691" on="1"/>
      </contour>
      <contour>
        <pt x="1053" y="1007" on="0"/>
        <pt x="872" y="1262" on="0"/>
        <pt x="706" y="1262" on="1"/>
        <pt x="599" y="1262" on="0"/>
        <pt x="443" y="1148" on="0"/>
        <pt x="360" y="925" on="0"/>
        <pt x="360" y="766" on="1"/>
        <pt x="360" y="691" on="1"/>
        <pt x="360" y="532" on="0"/>
        <pt x="444" y="308" on="0"/>
        <pt x="601" y="193" on="0"/>
        <pt x="708" y="193" on="1"/>
        <pt x="874" y="193" on="0"/>
        <pt x="1053" y="449" on="0"/>
        <pt x="1053" y="691" on="1"/>
        <pt x="1053" y="766" on="1"/>
      </contour>
    </TTGlyph>
    <TTGlyph name="O.smcp" xMin="78" yMin="-16" xMax="1137" yMax="1181">
      <contour>
        <pt x="1137" y="382" on="0"/>
        <pt x="1005" y="123" on="0"/>
        <pt x="766" y="-16" on="0"/>
        <pt x="609" y="-16" on="1"/>
        <pt x="453" y="-16" on="0"/>
        <pt x="212" y="123" on="0"/>
        <pt x="78" y="382" on="0"/>
        <pt x="78" y="557" on="1"/>
        <pt x="78" y="607" on="1"/>
        <pt x="78" y="782" on="0"/>
        <pt x="211" y="1042" on="0"/>
        <pt x="451" y="1181" on="0"/>
        <pt x="607" y="1181" on="1"/>
        <pt x="764" y="1181" on="0"/>
        <pt x="1004" y="1042" on="0"/>
        <pt x="1137" y="782" on="0"/>
        <pt x="1137" y="607" on="1"/>
        <pt x="1137" y="557" on="1"/>
      </contour>
      <contour>
        <pt x="889" y="787" on="0"/>
        <pt x="741" y="980" on="0"/>
        <pt x="607" y="980" on="1"/>
        <pt x="474" y="980" on="0"/>
        <pt x="326" y="787" on="0"/>
        <pt x="326" y="609" on="1"/>
        <pt x="326" y="557" on="1"/>
        <pt x="326" y="439" on="0"/>
        <pt x="394" y="271" on="0"/>
        <pt x="521" y="184" on="0"/>
        <pt x="609" y="184" on="1"/>
        <pt x="742" y="184" on="0"/>
        <pt x="889" y="379" on="0"/>
        <pt x="889" y="557" on="1"/>
        <pt x="889" y="609" on="1"/>
      </contour>
    </TTGlyph>
    <TTGlyph name="O.ss06" xMin="105" yMin="-21" xMax="1396" yMax="1477">
      <contour>
        <pt x="1396" y="500" on="0"/>
        <pt x="1230" y="168" on="0"/>
        <pt x="936" y="-21" on="0"/>
        <pt x="752" y="-21" on="1"/>
        <pt x="570" y="-21" on="0"/>
        <pt x="274" y="168" on="0"/>
        <pt x="105" y="501" on="0"/>
        <pt x="105" y="707" on="1"/>
        <pt x="105" y="749" on="1"/>
        <pt x="105" y="955" on="0"/>
        <pt x="274" y="1288" on="0"/>
        <pt x="568" y="1477" on="0"/>
        <pt x="750" y="1477" on="1"/>
        <pt x="934" y="1477" on="0"/>
        <pt x="1229" y="1288" on="0"/>
        <pt x="1396" y="955" on="0"/>
        <pt x="1396" y="749" on="1"/>
        <pt x="1396" y="707" on="1"/>
      </contour>
      <contour>
        <pt x="1139" y="898" on="0"/>
        <pt x="1041" y="1133" on="0"/>
        <pt x="864" y="1265" on="0"/>
        <pt x="750" y="1265" on="1"/>
        <pt x="639" y="1265" on="0"/>
        <pt x="462" y="1132" on="0"/>
        <pt x="363" y="898" on="0"/>
        <pt x="363" y="751" on="1"/>
        <pt x="363" y="707" on="1"/>
        <pt x="363" y="559" on="0"/>
        <pt x="463" y="324" on="0"/>
        <pt x="641" y="190" on="0"/>
        <pt x="752" y="190" on="1"/>
        <pt x="867" y="190" on="0"/>
        <pt x="1042" y="323" on="0"/>
        <pt x="1139" y="558" on="0"/>
        <pt x="1139" y="707" on="1"/>
        <pt x="1139" y="751" on="1"/>
      </contour>
    </TTGlyph>
    <TTGlyph name="OE" xMin="100" yMin="-21" xMax="1842" yMax="1477">
      <contour>
        <pt x="1842" y="208" on="1"/>
        <pt x="1842" y="0" on="1"/>
        <pt x="973" y="0" on="1"/>
        <pt x="882" y="-10" on="0"/>
        <pt x="752" y="-21" on="0"/>
        <pt x="685" y="-21" on="1"/>
        <pt x="514" y="-21" on="0"/>
        <pt x="248" y="130" on="0"/>
        <pt x="100" y="401" on="0"/>
        <pt x="100" y="576" on="1"/>
        <pt x="100" y="880" on="1"/>
        <pt x="100" y="1055" on="0"/>
        <pt x="247" y="1326" on="0"/>
        <pt x="512" y="1477" on="0"/>
        <pt x="683" y="1477" on="1"/>
        <pt x="803" y="1477" on="0"/>
        <pt x="973" y="1456" on="1"/>
        <pt x="1836" y="1456" on="1"/>
        <pt x="1836" y="1247" on="1"/>
        <pt x="1146" y="1247" on="1"/>
        <pt x="1146" y="852" on="1"/>
        <pt x="1741" y="852" on="1"/>
        <pt x="1741" y="648" on="1"/>
        <pt x="1146" y="648" on="1"/>
        <pt x="1146" y="208" on="1"/>
      </contour>
      <contour>
        <pt x="349" y="382" on="0"/>
        <pt x="528" y="179" on="0"/>
        <pt x="685" y="179" on="1"/>
        <pt x="775" y="179" on="0"/>
        <pt x="887" y="193" on="1"/>
        <pt x="887" y="1263" on="1"/>
        <pt x="775" y="1277" on="0"/>
        <pt x="683" y="1277" on="1"/>
        <pt x="526" y="1277" on="0"/>
        <pt x="349" y="1075" on="0"/>
        <pt x="349" y="882" on="1"/>
        <pt x="349" y="576" on="1"/>
      </contour>
    </TTGlyph>
    <TTGlyph name="Oacute" xMin="100" yMin="-20" xMax="1313" yMax="1846">
      <component glyphName=".ttfautohint" x="100" y="0" flags="0x0"/>
      <component glyphName="O" x="0" y="0" flags="0x0"/>
      <component glyphName="acutecomb" x="1261" y="310" flags="0x4"/>
    </TTGlyph>
    <TTGlyph name="Oacute.smcp" xMin="78" yMin="-16" xMax="1137" yMax="1566">
      <component glyphName=".ttfautohint" x="78" y="0" flags="0x0"/>
      <component glyphName="O.smcp" x="0" y="0" flags="0x0"/>
      <component glyphName="acutecomb" x="1160" y="30" flags="0x4"/>
    </TTGlyph>
    <TTGlyph name="Ocircumflex" xMin="100" yMin="-20" xMax="1313" yMax="1847">
      <component glyphName=".ttfautohint" x="100" y="0" flags="0x0"/>
      <component glyphName="O" x="0" y="0" flags="0x0"/>
      <component glyphName="circumflex" x="216" y="310" flags="0x4"/>
    </TTGlyph>
    <TTGlyph name="Ocircumflex.smcp" xMin="78" yMin="-16" xMax="1137" yMax="1567">
      <component glyphName=".ttfautohint" x="78" y="0" flags="0x0"/>
      <component glyphName="O.smcp" x="0" y="0" flags="0x0"/>
      <component glyphName="circumflex" x="115" y="30" flags="0x4"/>
    </TTGlyph>
    <TTGlyph name="Odieresis" xMin="100" yMin="-20" xMax="1313" yMax="1796">
      <component glyphName=".ttfautohint" x="100" y="0" flags="0x0"/>
      <component glyphName="O" x="0" y="0" flags="0x0"/>
      <component glyphName="dieresis" x="257" y="310" flags="0x4"/>
    </TTGlyph>
    <TTGlyph name="Odieresis.smcp" xMin="78" yMin="-16" xMax="1137" yMax="1516">
      <component glyphName=".ttfautohint" x="78" y="0" flags="0x0"/>
      <component glyphName="O.smcp" x="0" y="0" flags="0x0"/>
      <component glyphName="dieresis" x="156" y="30" flags="0x4"/>
    </TTGlyph>
    <TTGlyph name="Ograve" xMin="100" yMin="-20" xMax="1313" yMax="1846">
      <component glyphName=".ttfautohint" x="100" y="0" flags="0x0"/>
      <component glyphName="O" x="0" y="0" flags="0x0"/>
      <component glyphName="gravecomb" x="1243" y="310" flags="0x4"/>
    </TTGlyph>
    <TTGlyph name="Ograve.smcp" xMin="78" yMin="-16" xMax="1137" yMax="1566">
      <component glyphName=".ttfautohint" x="78" y="0" flags="0x0"/>
      <component glyphName="O.smcp" x="0" y="0" flags="0x0"/>
      <component glyphName="gravecomb" x="1142" y="30" flags="0x4"/>
    </TTGlyph>
    <TTGlyph name="Oslash" xMin="104" yMin="-95" xMax="1317" yMax="1518">
      <contour>
        <pt x="1234" y="1185" on="0"/>
        <pt x="1317" y="924" on="0"/>
        <pt x="1317" y="764" on="1"/>
        <pt x="1317" y="691" on="1"/>
        <pt x="1317" y="473" on="0"/>
        <pt x="1166" y="152" on="0"/>
        <pt x="892" y="-20" on="0"/>
        <pt x="712" y="-20" on="1"/>
        <pt x="549" y="-20" on="0"/>
        <pt x="416" y="54" on="1"/>
        <pt x="326" y="-95" on="1"/>
        <pt x="155" y="-95" on="1"/>
        <pt x="299" y="143" on="1"/>
        <pt x="206" y="237" on="0"/>
        <pt x="104" y="516" on="0"/>
        <pt x="104" y="691" on="1"/>
        <pt x="104" y="764" on="1"/>
        <pt x="104" y="981" on="0"/>
        <pt x="257" y="1303" on="0"/>
        <pt x="532" y="1476" on="0"/>
        <pt x="710" y="1476" on="1"/>
        <pt x="904" y="1476" on="0"/>
        <pt x="1047" y="1377" on="1"/>
        <pt x="1132" y="1518" on="1"/>
        <pt x="1301" y="1518" on="1"/>
        <pt x="1156" y="1278" on="1"/>
      </contour>
      <contour>
        <pt x="364" y="489" on="0"/>
        <pt x="432" y="362" on="1"/>
        <pt x="927" y="1180" on="1"/>
        <pt x="842" y="1262" on="0"/>
        <pt x="710" y="1262" on="1"/>
        <pt x="603" y="1262" on="0"/>
        <pt x="447" y="1148" on="0"/>
        <pt x="364" y="925" on="0"/>
        <pt x="364" y="766" on="1"/>
        <pt x="364" y="691" on="1"/>
      </contour>
      <contour>
        <pt x="1057" y="766" on="1"/>
        <pt x="1057" y="929" on="0"/>
        <pt x="1014" y="1043" on="1"/>
        <pt x="532" y="246" on="1"/>
        <pt x="609" y="193" on="0"/>
        <pt x="712" y="193" on="1"/>
        <pt x="878" y="193" on="0"/>
        <pt x="1057" y="449" on="0"/>
        <pt x="1057" y="691" on="1"/>
      </contour>
    </TTGlyph>
    <TTGlyph name="Oslash.smcp" xMin="78" yMin="-56" xMax="1137" yMax="1211">
      <contour>
        <pt x="1065" y="943" on="0"/>
        <pt x="1137" y="735" on="0"/>
        <pt x="1137" y="607" on="1"/>
        <pt x="1137" y="557" on="1"/>
        <pt x="1137" y="382" on="0"/>
        <pt x="1005" y="123" on="0"/>
        <pt x="766" y="-16" on="0"/>
        <pt x="609" y="-16" on="1"/>
        <pt x="450" y="-16" on="0"/>
        <pt x="329" y="56" on="1"/>
        <pt x="251" y="-56" on="1"/>
        <pt x="87" y="-56" on="1"/>
        <pt x="223" y="140" on="1"/>
        <pt x="153" y="216" on="0"/>
        <pt x="78" y="427" on="0"/>
        <pt x="78" y="557" on="1"/>
        <pt x="78" y="607" on="1"/>
        <pt x="78" y="782" on="0"/>
        <pt x="211" y="1042" on="0"/>
        <pt x="451" y="1181" on="0"/>
        <pt x="607" y="1181" on="1"/>
        <pt x="772" y="1181" on="0"/>
        <pt x="894" y="1105" on="1"/>
        <pt x="968" y="1211" on="1"/>
        <pt x="1132" y="1211" on="1"/>
        <pt x="998" y="1019" on="1"/>
      </contour>
      <contour>
        <pt x="326" y="433" on="0"/>
        <pt x="365" y="344" on="1"/>
        <pt x="771" y="928" on="1"/>
        <pt x="704" y="980" on="0"/>
        <pt x="607" y="980" on="1"/>
        <pt x="474" y="980" on="0"/>
        <pt x="326" y="787" on="0"/>
        <pt x="326" y="609" on="1"/>
        <pt x="326" y="557" on="1"/>
      </contour>
      <contour>
        <pt x="889" y="609" on="1"/>
        <pt x="889" y="727" on="0"/>
        <pt x="855" y="812" on="1"/>
        <pt x="451" y="232" on="1"/>
        <pt x="516" y="184" on="0"/>
        <pt x="609" y="184" on="1"/>
        <pt x="742" y="184" on="0"/>
        <pt x="889" y="379" on="0"/>
        <pt x="889" y="557" on="1"/>
      </contour>
    </TTGlyph>
    <TTGlyph name="Otilde" xMin="100" yMin="-20" xMax="1313" yMax="1837">
      <component glyphName=".ttfautohint" x="100" y="0" flags="0x0"/>
      <component glyphName="O" x="0" y="0" flags="0x0"/>
      <component glyphName="tilde" x="218" y="310" flags="0x4"/>
    </TTGlyph>
    <TTGlyph name="Otilde.smcp" xMin="78" yMin="-16" xMax="1137" yMax="1557">
      <component glyphName=".ttfautohint" x="78" y="0" flags="0x0"/>
      <component glyphName="O.smcp" x="0" y="0" flags="0x0"/>
      <component glyphName="tilde" x="117" y="30" flags="0x4"/>
    </TTGlyph>
    <TTGlyph name="P" xMin="146" yMin="0" xMax="1237" yMax="1456">
      <contour>
        <pt x="870" y="1456" on="0"/>
        <pt x="1111" y="1337" on="0"/>
        <pt x="1237" y="1126" on="0"/>
        <pt x="1237" y="991" on="1"/>
        <pt x="1237" y="850" on="0"/>
        <pt x="1112" y="646" on="0"/>
        <pt x="873" y="538" on="0"/>
        <pt x="705" y="538" on="1"/>
        <pt x="405" y="538" on="1"/>
        <pt x="405" y="0" on="1"/>
        <pt x="146" y="0" on="1"/>
        <pt x="146" y="1456" on="1"/>
        <pt x="705" y="1456" on="1"/>
      </contour>
      <contour>
        <pt x="844" y="746" on="0"/>
        <pt x="977" y="876" on="0"/>
        <pt x="977" y="989" on="1"/>
        <pt x="977" y="1059" on="0"/>
        <pt x="919" y="1176" on="0"/>
        <pt x="797" y="1247" on="0"/>
        <pt x="705" y="1247" on="1"/>
        <pt x="405" y="1247" on="1"/>
        <pt x="405" y="746" on="1"/>
        <pt x="705" y="746" on="1"/>
      </contour>
    </TTGlyph>
    <TTGlyph name="P.smcp" xMin="116" yMin="0" xMax="1070" yMax="1165">
      <contour>
        <pt x="747" y="1165" on="0"/>
        <pt x="958" y="1066" on="0"/>
        <pt x="1070" y="890" on="0"/>
        <pt x="1070" y="777" on="1"/>
        <pt x="1070" y="665" on="0"/>
        <pt x="959" y="497" on="0"/>
        <pt x="748" y="406" on="0"/>
        <pt x="603" y="406" on="1"/>
        <pt x="365" y="406" on="1"/>
        <pt x="365" y="0" on="1"/>
        <pt x="116" y="0" on="1"/>
        <pt x="116" y="1165" on="1"/>
        <pt x="603" y="1165" on="1"/>
      </contour>
      <contour>
        <pt x="713" y="607" on="0"/>
        <pt x="821" y="698" on="0"/>
        <pt x="821" y="775" on="1"/>
        <pt x="821" y="827" on="0"/>
        <pt x="774" y="913" on="0"/>
        <pt x="676" y="964" on="0"/>
        <pt x="603" y="964" on="1"/>
        <pt x="365" y="964" on="1"/>
        <pt x="365" y="607" on="1"/>
        <pt x="603" y="607" on="1"/>
      </contour>
    </TTGlyph>
    <TTGlyph name="Q" xMin="95" yMin="-253" xMax="1308" yMax="1476">
      <contour>
        <pt x="1308" y="489" on="0"/>
        <pt x="1178" y="183" on="0"/>
        <pt x="1059" y="93" on="1"/>
        <pt x="1308" y="-103" on="1"/>
        <pt x="1140" y="-253" on="1"/>
        <pt x="831" y="-8" on="1"/>
        <pt x="770" y="-20" on="0"/>
        <pt x="702" y="-20" on="1"/>
        <pt x="524" y="-20" on="0"/>
        <pt x="249" y="152" on="0"/>
        <pt x="95" y="474" on="0"/>
        <pt x="95" y="691" on="1"/>
        <pt x="95" y="764" on="1"/>
        <pt x="95" y="981" on="0"/>
        <pt x="248" y="1303" on="0"/>
        <pt x="522" y="1476" on="0"/>
        <pt x="700" y="1476" on="1"/>
        <pt x="881" y="1476" on="0"/>
        <pt x="1156" y="1304" on="0"/>
        <pt x="1308" y="982" on="0"/>
        <pt x="1308" y="764" on="1"/>
        <pt x="1308" y="691" on="1"/>
      </contour>
      <contour>
        <pt x="355" y="532" on="0"/>
        <pt x="439" y="308" on="0"/>
        <pt x="595" y="193" on="0"/>
        <pt x="702" y="193" on="1"/>
        <pt x="868" y="193" on="0"/>
        <pt x="1048" y="450" on="0"/>
        <pt x="1048" y="691" on="1"/>
        <pt x="1048" y="766" on="1"/>
        <pt x="1048" y="1007" on="0"/>
        <pt x="867" y="1262" on="0"/>
        <pt x="700" y="1262" on="1"/>
        <pt x="593" y="1262" on="0"/>
        <pt x="438" y="1148" on="0"/>
        <pt x="355" y="925" on="0"/>
        <pt x="355" y="766" on="1"/>
        <pt x="355" y="691" on="1"/>
      </contour>
    </TTGlyph>
    <TTGlyph name="Q.smcp" xMin="75" yMin="-210" xMax="1135" yMax="1181">
      <contour>
        <pt x="1135" y="398" on="0"/>
        <pt x="1026" y="155" on="0"/>
        <pt x="926" y="82" on="1"/>
        <pt x="1131" y="-71" on="1"/>
        <pt x="972" y="-210" on="1"/>
        <pt x="706" y="-8" on="1"/>
        <pt x="655" y="-16" on="0"/>
        <pt x="606" y="-16" on="1"/>
        <pt x="450" y="-16" on="0"/>
        <pt x="209" y="123" on="0"/>
        <pt x="75" y="382" on="0"/>
        <pt x="75" y="557" on="1"/>
        <pt x="75" y="607" on="1"/>
        <pt x="75" y="782" on="0"/>
        <pt x="208" y="1042" on="0"/>
        <pt x="448" y="1181" on="0"/>
        <pt x="604" y="1181" on="1"/>
        <pt x="761" y="1181" on="0"/>
        <pt x="1002" y="1042" on="0"/>
        <pt x="1135" y="782" on="0"/>
        <pt x="1135" y="607" on="1"/>
        <pt x="1135" y="557" on="1"/>
      </contour>
      <contour>
        <pt x="324" y="439" on="0"/>
        <pt x="391" y="271" on="0"/>
        <pt x="518" y="184" on="0"/>
        <pt x="606" y="184" on="1"/>
        <pt x="740" y="184" on="0"/>
        <pt x="887" y="379" on="0"/>
        <pt x="887" y="557" on="1"/>
        <pt x="887" y="609" on="1"/>
        <pt x="887" y="787" on="0"/>
        <pt x="738" y="980" on="0"/>
        <pt x="604" y="980" on="1"/>
        <pt x="472" y="980" on="0"/>
        <pt x="324" y="787" on="0"/>
        <pt x="324" y="609" on="1"/>
        <pt x="324" y="557" on="1"/>
      </contour>
    </TTGlyph>
    <TTGlyph name="Q.ss06" xMin="105" yMin="-253" xMax="1396" yMax="1477">
      <contour>
        <pt x="1396" y="509" on="0"/>
        <pt x="1245" y="186" on="0"/>
        <pt x="1112" y="91" on="1"/>
        <pt x="1350" y="-103" on="1"/>
        <pt x="1182" y="-253" on="1"/>
        <pt x="885" y="-8" on="1"/>
        <pt x="815" y="-21" on="0"/>
        <pt x="752" y="-21" on="1"/>
        <pt x="570" y="-21" on="0"/>
        <pt x="274" y="166" on="0"/>
        <pt x="105" y="500" on="0"/>
        <pt x="105" y="711" on="1"/>
        <pt x="105" y="744" on="1"/>
        <pt x="105" y="955" on="0"/>
        <pt x="273" y="1290" on="0"/>
        <pt x="568" y="1477" on="0"/>
        <pt x="750" y="1477" on="1"/>
        <pt x="935" y="1477" on="0"/>
        <pt x="1229" y="1290" on="0"/>
        <pt x="1396" y="956" on="0"/>
        <pt x="1396" y="744" on="1"/>
        <pt x="1396" y="711" on="1"/>
      </contour>
      <contour>
        <pt x="1139" y="746" on="1"/>
        <pt x="1139" y="899" on="0"/>
        <pt x="1041" y="1135" on="0"/>
        <pt x="865" y="1265" on="0"/>
        <pt x="750" y="1265" on="1"/>
        <pt x="638" y="1265" on="0"/>
        <pt x="462" y="1134" on="0"/>
        <pt x="363" y="898" on="0"/>
        <pt x="363" y="746" on="1"/>
        <pt x="363" y="711" on="1"/>
        <pt x="363" y="558" on="0"/>
        <pt x="463" y="321" on="0"/>
        <pt x="640" y="190" on="0"/>
        <pt x="752" y="190" on="1"/>
        <pt x="867" y="190" on="0"/>
        <pt x="1043" y="321" on="0"/>
        <pt x="1139" y="557" on="0"/>
        <pt x="1139" y="711" on="1"/>
      </contour>
    </TTGlyph>
    <TTGlyph name="R" xMin="146" yMin="0" xMax="1249" yMax="1456">
      <contour>
        <pt x="1249" y="13" on="1"/>
        <pt x="1249" y="0" on="1"/>
        <pt x="971" y="0" on="1"/>
        <pt x="682" y="558" on="1"/>
        <pt x="405" y="558" on="1"/>
        <pt x="405" y="0" on="1"/>
        <pt x="146" y="0" on="1"/>
        <pt x="146" y="1456" on="1"/>
        <pt x="662" y="1456" on="1"/>
        <pt x="914" y="1456" on="0"/>
        <pt x="1189" y="1230" on="0"/>
        <pt x="1189" y="1017" on="1"/>
        <pt x="1189" y="873" on="0"/>
        <pt x="1051" y="673" on="0"/>
        <pt x="924" y="619" on="1"/>
      </contour>
      <contour>
        <pt x="405" y="766" on="1"/>
        <pt x="663" y="766" on="1"/>
        <pt x="793" y="766" on="0"/>
        <pt x="930" y="896" on="0"/>
        <pt x="930" y="1004" on="1"/>
        <pt x="930" y="1119" on="0"/>
        <pt x="798" y="1247" on="0"/>
        <pt x="662" y="1247" on="1"/>
        <pt x="405" y="1247" on="1"/>
      </contour>
    </TTGlyph>
    <TTGlyph name="R.alt" xMin="152" yMin="0" xMax="1267" yMax="1456">
      <contour>
        <pt x="1197" y="182" on="0"/>
        <pt x="1229" y="60" on="0"/>
        <pt x="1267" y="27" on="1"/>
        <pt x="1267" y="0" on="1"/>
        <pt x="1001" y="0" on="1"/>
        <pt x="962" y="33" on="0"/>
        <pt x="938" y="178" on="0"/>
        <pt x="938" y="246" on="1"/>
        <pt x="938" y="357" on="1"/>
        <pt x="938" y="469" on="0"/>
        <pt x="818" y="594" on="0"/>
        <pt x="707" y="594" on="1"/>
        <pt x="411" y="594" on="1"/>
        <pt x="411" y="0" on="1"/>
        <pt x="152" y="0" on="1"/>
        <pt x="152" y="1456" on="1"/>
        <pt x="708" y="1456" on="1"/>
        <pt x="952" y="1456" on="0"/>
        <pt x="1210" y="1238" on="0"/>
        <pt x="1210" y="1033" on="1"/>
        <pt x="1210" y="808" on="0"/>
        <pt x="962" y="706" on="1"/>
        <pt x="1088" y="667" on="0"/>
        <pt x="1197" y="491" on="0"/>
        <pt x="1197" y="359" on="1"/>
        <pt x="1197" y="244" on="1"/>
      </contour>
      <contour>
        <pt x="822" y="802" on="0"/>
        <pt x="951" y="912" on="0"/>
        <pt x="951" y="1021" on="1"/>
        <pt x="951" y="1127" on="0"/>
        <pt x="827" y="1247" on="0"/>
        <pt x="698" y="1247" on="1"/>
        <pt x="411" y="1247" on="1"/>
        <pt x="411" y="802" on="1"/>
        <pt x="683" y="802" on="1"/>
      </contour>
    </TTGlyph>
    <TTGlyph name="R.smcp" xMin="116" yMin="0" xMax="1084" yMax="1165">
      <contour>
        <pt x="1084" y="11" on="1"/>
        <pt x="1084" y="0" on="1"/>
        <pt x="817" y="0" on="1"/>
        <pt x="584" y="422" on="1"/>
        <pt x="365" y="422" on="1"/>
        <pt x="365" y="0" on="1"/>
        <pt x="116" y="0" on="1"/>
        <pt x="116" y="1165" on="1"/>
        <pt x="576" y="1165" on="1"/>
        <pt x="794" y="1165" on="0"/>
        <pt x="1036" y="983" on="0"/>
        <pt x="1036" y="813" on="1"/>
        <pt x="1036" y="689" on="0"/>
        <pt x="921" y="531" on="0"/>
        <pt x="812" y="485" on="1"/>
      </contour>
      <contour>
        <pt x="365" y="622" on="1"/>
        <pt x="576" y="622" on="1"/>
        <pt x="679" y="622" on="0"/>
        <pt x="787" y="712" on="0"/>
        <pt x="787" y="792" on="1"/>
        <pt x="787" y="873" on="0"/>
        <pt x="681" y="964" on="0"/>
        <pt x="576" y="964" on="1"/>
        <pt x="365" y="964" on="1"/>
      </contour>
    </TTGlyph>
    <TTGlyph name="S" xMin="74" yMin="-20" xMax="1166" yMax="1476">
      <contour>
        <pt x="369" y="697" on="0"/>
        <pt x="119" y="905" on="0"/>
        <pt x="119" y="1072" on="1"/>
        <pt x="119" y="1189" on="0"/>
        <pt x="250" y="1373" on="0"/>
        <pt x="486" y="1476" on="0"/>
        <pt x="638" y="1476" on="1"/>
        <pt x="797" y="1476" on="0"/>
        <pt x="1036" y="1357" on="0"/>
        <pt x="1164" y="1154" on="0"/>
        <pt x="1164" y="1031" on="1"/>
        <pt x="906" y="1031" on="1"/>
        <pt x="906" y="1140" on="0"/>
        <pt x="769" y="1270" on="0"/>
        <pt x="635" y="1270" on="1"/>
        <pt x="509" y="1270" on="0"/>
        <pt x="378" y="1161" on="0"/>
        <pt x="378" y="1073" on="1"/>
        <pt x="378" y="995" on="0"/>
        <pt x="526" y="887" on="0"/>
        <pt x="685" y="841" on="1"/>
        <pt x="851" y="792" on="0"/>
        <pt x="1062" y="666" on="0"/>
        <pt x="1166" y="494" on="0"/>
        <pt x="1166" y="379" on="1"/>
        <pt x="1166" y="257" on="0"/>
        <pt x="1038" y="77" on="0"/>
        <pt x="803" y="-20" on="0"/>
        <pt x="646" y="-20" on="1"/>
        <pt x="500" y="-20" on="0"/>
        <pt x="237" y="85" on="0"/>
        <pt x="74" y="295" on="0"/>
        <pt x="74" y="443" on="1"/>
        <pt x="333" y="443" on="1"/>
        <pt x="333" y="312" on="0"/>
        <pt x="504" y="185" on="0"/>
        <pt x="646" y="185" on="1"/>
        <pt x="772" y="185" on="0"/>
        <pt x="906" y="289" on="0"/>
        <pt x="906" y="377" on="1"/>
        <pt x="906" y="437" on="0"/>
        <pt x="856" y="518" on="0"/>
        <pt x="725" y="588" on="0"/>
        <pt x="599" y="626" on="1"/>
      </contour>
    </TTGlyph>
    <TTGlyph name="S.smcp" xMin="62" yMin="-16" xMax="1010" yMax="1181">
      <contour>
        <pt x="384" y="518" on="0"/>
        <pt x="198" y="610" on="0"/>
        <pt x="102" y="748" on="0"/>
        <pt x="102" y="847" on="1"/>
        <pt x="102" y="944" on="0"/>
        <pt x="214" y="1096" on="0"/>
        <pt x="415" y="1181" on="0"/>
        <pt x="544" y="1181" on="1"/>
        <pt x="684" y="1181" on="0"/>
        <pt x="895" y="1090" on="0"/>
        <pt x="1010" y="926" on="0"/>
        <pt x="1010" y="821" on="1"/>
        <pt x="761" y="821" on="1"/>
        <pt x="761" y="896" on="0"/>
        <pt x="649" y="992" on="0"/>
        <pt x="544" y="992" on="1"/>
        <pt x="445" y="992" on="0"/>
        <pt x="343" y="912" on="0"/>
        <pt x="343" y="853" on="1"/>
        <pt x="343" y="815" on="0"/>
        <pt x="392" y="758" on="0"/>
        <pt x="498" y="712" on="0"/>
        <pt x="590" y="689" on="1"/>
        <pt x="804" y="639" on="0"/>
        <pt x="1009" y="463" on="0"/>
        <pt x="1009" y="313" on="1"/>
        <pt x="1009" y="211" on="0"/>
        <pt x="898" y="63" on="0"/>
        <pt x="694" y="-16" on="0"/>
        <pt x="557" y="-16" on="1"/>
        <pt x="429" y="-16" on="0"/>
        <pt x="203" y="67" on="0"/>
        <pt x="62" y="238" on="0"/>
        <pt x="62" y="362" on="1"/>
        <pt x="312" y="362" on="1"/>
        <pt x="312" y="264" on="0"/>
        <pt x="444" y="172" on="0"/>
        <pt x="565" y="172" on="1"/>
        <pt x="665" y="172" on="0"/>
        <pt x="767" y="249" on="0"/>
        <pt x="767" y="307" on="1"/>
        <pt x="767" y="350" on="0"/>
        <pt x="725" y="411" on="0"/>
        <pt x="622" y="461" on="0"/>
        <pt x="529" y="483" on="1"/>
      </contour>
    </TTGlyph>
    <TTGlyph name="T" xMin="45" yMin="0" xMax="1204" yMax="1456">
      <contour>
        <pt x="1204" y="1247" on="1"/>
        <pt x="751" y="1247" on="1"/>
        <pt x="751" y="0" on="1"/>
        <pt x="493" y="0" on="1"/>
        <pt x="493" y="1247" on="1"/>
        <pt x="45" y="1247" on="1"/>
        <pt x="45" y="1456" on="1"/>
        <pt x="1204" y="1456" on="1"/>
      </contour>
    </TTGlyph>
    <TTGlyph name="T.smcp" xMin="36" yMin="0" xMax="1050" yMax="1165">
      <contour>
        <pt x="1050" y="964" on="1"/>
        <pt x="665" y="964" on="1"/>
        <pt x="665" y="0" on="1"/>
        <pt x="416" y="0" on="1"/>
        <pt x="416" y="964" on="1"/>
        <pt x="36" y="964" on="1"/>
        <pt x="36" y="1165" on="1"/>
        <pt x="1050" y="1165" on="1"/>
      </contour>
    </TTGlyph>
    <TTGlyph name="Thorn" xMin="147" yMin="0" xMax="1155" yMax="1456">
      <contour>
        <pt x="801" y="1178" on="0"/>
        <pt x="1034" y="1066" on="0"/>
        <pt x="1155" y="867" on="0"/>
        <pt x="1155" y="738" on="1"/>
        <pt x="1155" y="610" on="0"/>
        <pt x="1034" y="411" on="0"/>
        <pt x="801" y="298" on="0"/>
        <pt x="638" y="298" on="1"/>
        <pt x="396" y="298" on="1"/>
        <pt x="396" y="0" on="1"/>
        <pt x="147" y="0" on="1"/>
        <pt x="147" y="1456" on="1"/>
        <pt x="396" y="1456" on="1"/>
        <pt x="396" y="1178" on="1"/>
        <pt x="638" y="1178" on="1"/>
      </contour>
      <contour>
        <pt x="729" y="498" on="0"/>
        <pt x="849" y="564" on="0"/>
        <pt x="906" y="672" on="0"/>
        <pt x="906" y="736" on="1"/>
        <pt x="906" y="802" on="0"/>
        <pt x="850" y="911" on="0"/>
        <pt x="729" y="978" on="0"/>
        <pt x="638" y="978" on="1"/>
        <pt x="396" y="978" on="1"/>
        <pt x="396" y="498" on="1"/>
        <pt x="638" y="498" on="1"/>
      </contour>
    </TTGlyph>
    <TTGlyph name="Thorn.smcp" xMin="116" yMin="0" xMax="982" yMax="1165">
      <contour>
        <pt x="659" y="985" on="0"/>
        <pt x="870" y="888" on="0"/>
        <pt x="982" y="715" on="0"/>
        <pt x="982" y="605" on="1"/>
        <pt x="982" y="490" on="0"/>
        <pt x="871" y="319" on="0"/>
        <pt x="660" y="226" on="0"/>
        <pt x="515" y="226" on="1"/>
        <pt x="365" y="226" on="1"/>
        <pt x="365" y="0" on="1"/>
        <pt x="116" y="0" on="1"/>
        <pt x="116" y="1165" on="1"/>
        <pt x="365" y="1165" on="1"/>
        <pt x="365" y="985" on="1"/>
        <pt x="515" y="985" on="1"/>
      </contour>
      <contour>
        <pt x="624" y="427" on="0"/>
        <pt x="733" y="523" on="0"/>
        <pt x="733" y="603" on="1"/>
        <pt x="733" y="653" on="0"/>
        <pt x="686" y="735" on="0"/>
        <pt x="588" y="784" on="0"/>
        <pt x="515" y="784" on="1"/>
        <pt x="365" y="784" on="1"/>
        <pt x="365" y="427" on="1"/>
        <pt x="515" y="427" on="1"/>
      </contour>
    </TTGlyph>
    <TTGlyph name="U" xMin="125" yMin="-20" xMax="1216" yMax="1456">
      <contour>
        <pt x="1216" y="485" on="1"/>
        <pt x="1216" y="323" on="0"/>
        <pt x="1073" y="95" on="0"/>
        <pt x="825" y="-20" on="0"/>
        <pt x="670" y="-20" on="1"/>
        <pt x="511" y="-20" on="0"/>
        <pt x="264" y="95" on="0"/>
        <pt x="125" y="322" on="0"/>
        <pt x="125" y="485" on="1"/>
        <pt x="125" y="1456" on="1"/>
        <pt x="383" y="1456" on="1"/>
        <pt x="383" y="485" on="1"/>
        <pt x="383" y="335" on="0"/>
        <pt x="534" y="188" on="0"/>
        <pt x="670" y="188" on="1"/>
        <pt x="808" y="188" on="0"/>
        <pt x="957" y="334" on="0"/>
        <pt x="957" y="485" on="1"/>
        <pt x="957" y="1456" on="1"/>
        <pt x="1216" y="1456" on="1"/>
      </contour>
    </TTGlyph>
    <TTGlyph name="U.smcp" xMin="102" yMin="-16" xMax="1057" yMax="1165">
      <contour>
        <pt x="1057" y="399" on="1"/>
        <pt x="1057" y="267" on="0"/>
        <pt x="934" y="80" on="0"/>
        <pt x="718" y="-16" on="0"/>
        <pt x="580" y="-16" on="1"/>
        <pt x="439" y="-16" on="0"/>
        <pt x="223" y="80" on="0"/>
        <pt x="102" y="267" on="0"/>
        <pt x="102" y="399" on="1"/>
        <pt x="102" y="1165" on="1"/>
        <pt x="350" y="1165" on="1"/>
        <pt x="350" y="399" on="1"/>
        <pt x="350" y="289" on="0"/>
        <pt x="470" y="184" on="0"/>
        <pt x="580" y="184" on="1"/>
        <pt x="807" y="184" on="0"/>
        <pt x="807" y="399" on="1"/>
        <pt x="807" y="1165" on="1"/>
        <pt x="1057" y="1165" on="1"/>
      </contour>
    </TTGlyph>
    <TTGlyph name="Uacute" xMin="125" yMin="-20" xMax="1216" yMax="1846">
      <component glyphName=".ttfautohint" x="125" y="0" flags="0x0"/>
      <component glyphName="U" x="0" y="0" flags="0x0"/>
      <component glyphName="acutecomb" x="1221" y="310" flags="0x4"/>
    </TTGlyph>
    <TTGlyph name="Uacute.smcp" xMin="102" yMin="-16" xMax="1057" yMax="1566">
      <component glyphName=".ttfautohint" x="102" y="0" flags="0x0"/>
      <component glyphName="U.smcp" x="0" y="0" flags="0x0"/>
      <component glyphName="acutecomb" x="1129" y="30" flags="0x4"/>
    </TTGlyph>
    <TTGlyph name="Ucircumflex" xMin="125" yMin="-20" xMax="1216" yMax="1847">
      <component glyphName=".ttfautohint" x="125" y="0" flags="0x0"/>
      <component glyphName="U" x="0" y="0" flags="0x0"/>
      <component glyphName="circumflex" x="176" y="310" flags="0x4"/>
    </TTGlyph>
    <TTGlyph name="Ucircumflex.smcp" xMin="102" yMin="-16" xMax="1057" yMax="1567">
      <component glyphName=".ttfautohint" x="102" y="0" flags="0x0"/>
      <component glyphName="U.smcp" x="0" y="0" flags="0x0"/>
      <component glyphName="circumflex" x="84" y="30" flags="0x4"/>
    </TTGlyph>
    <TTGlyph name="Udieresis" xMin="125" yMin="-20" xMax="1216" yMax="1796">
      <component glyphName=".ttfautohint" x="125" y="0" flags="0x0"/>
      <component glyphName="U" x="0" y="0" flags="0x0"/>
      <component glyphName="dieresis" x="217" y="310" flags="0x4"/>
    </TTGlyph>
    <TTGlyph name="Udieresis.smcp" xMin="102" yMin="-16" xMax="1057" yMax="1516">
      <component glyphName=".ttfautohint" x="102" y="0" flags="0x0"/>
      <component glyphName="U.smcp" x="0" y="0" flags="0x0"/>
      <component glyphName="dieresis" x="125" y="30" flags="0x4"/>
    </TTGlyph>
    <TTGlyph name="Ugrave" xMin="125" yMin="-20" xMax="1216" yMax="1846">
      <component glyphName=".ttfautohint" x="125" y="0" flags="0x0"/>
      <component glyphName="U" x="0" y="0" flags="0x0"/>
      <component glyphName="gravecomb" x="1203" y="310" flags="0x4"/>
    </TTGlyph>
    <TTGlyph name="Ugrave.smcp" xMin="102" yMin="-16" xMax="1057" yMax="1566">
      <component glyphName=".ttfautohint" x="102" y="0" flags="0x0"/>
      <component glyphName="U.smcp" x="0" y="0" flags="0x0"/>
      <component glyphName="gravecomb" x="1111" y="30" flags="0x4"/>
    </TTGlyph>
    <TTGlyph name="V" xMin="17" yMin="0" xMax="1312" yMax="1456">
      <contour>
        <pt x="1312" y="1456" on="1"/>
        <pt x="790" y="0" on="1"/>
        <pt x="537" y="0" on="1"/>
        <pt x="17" y="1456" on="1"/>
        <pt x="301" y="1456" on="1"/>
        <pt x="663" y="322" on="1"/>
        <pt x="1027" y="1456" on="1"/>
      </contour>
    </TTGlyph>
    <TTGlyph name="V.smcp" xMin="8" yMin="0" xMax="1141" yMax="1165">
      <contour>
        <pt x="1141" y="1165" on="1"/>
        <pt x="702" y="0" on="1"/>
        <pt x="447" y="0" on="1"/>
        <pt x="8" y="1165" on="1"/>
        <pt x="272" y="1165" on="1"/>
        <pt x="556" y="314" on="1"/>
        <pt x="575" y="238" on="1"/>
        <pt x="592" y="311" on="1"/>
        <pt x="878" y="1165" on="1"/>
      </contour>
    </TTGlyph>
    <TTGlyph name="W" xMin="47" yMin="0" xMax="1765" yMax="1456">
      <contour>
        <pt x="1765" y="1456" on="1"/>
        <pt x="1431" y="0" on="1"/>
        <pt x="1180" y="0" on="1"/>
        <pt x="908" y="1053" on="1"/>
        <pt x="632" y="0" on="1"/>
        <pt x="381" y="0" on="1"/>
        <pt x="47" y="1456" on="1"/>
        <pt x="304" y="1456" on="1"/>
        <pt x="526" y="368" on="1"/>
        <pt x="800" y="1456" on="1"/>
        <pt x="1017" y="1456" on="1"/>
        <pt x="1287" y="367" on="1"/>
        <pt x="1507" y="1456" on="1"/>
      </contour>
    </TTGlyph>
    <TTGlyph name="W.smcp" xMin="39" yMin="0" xMax="1508" yMax="1165">
      <contour>
        <pt x="1508" y="1165" on="1"/>
        <pt x="1228" y="0" on="1"/>
        <pt x="986" y="0" on="1"/>
        <pt x="774" y="822" on="1"/>
        <pt x="562" y="0" on="1"/>
        <pt x="320" y="0" on="1"/>
        <pt x="39" y="1165" on="1"/>
        <pt x="281" y="1165" on="1"/>
        <pt x="455" y="305" on="1"/>
        <pt x="665" y="1165" on="1"/>
        <pt x="885" y="1165" on="1"/>
        <pt x="1095" y="307" on="1"/>
        <pt x="1267" y="1165" on="1"/>
      </contour>
    </TTGlyph>
    <TTGlyph name="X" xMin="39" yMin="0" xMax="1261" yMax="1456">
      <contour>
        <pt x="951" y="1456" on="1"/>
        <pt x="1250" y="1456" on="1"/>
        <pt x="812" y="734" on="1"/>
        <pt x="1261" y="0" on="1"/>
        <pt x="959" y="0" on="1"/>
        <pt x="650" y="531" on="1"/>
        <pt x="341" y="0" on="1"/>
        <pt x="39" y="0" on="1"/>
        <pt x="488" y="734" on="1"/>
        <pt x="49" y="1456" on="1"/>
        <pt x="348" y="1456" on="1"/>
        <pt x="650" y="934" on="1"/>
      </contour>
    </TTGlyph>
    <TTGlyph name="X.smcp" xMin="19" yMin="0" xMax="1101" yMax="1165">
      <contour>
        <pt x="789" y="1165" on="1"/>
        <pt x="1079" y="1165" on="1"/>
        <pt x="706" y="587" on="1"/>
        <pt x="1101" y="0" on="1"/>
        <pt x="805" y="0" on="1"/>
        <pt x="555" y="406" on="1"/>
        <pt x="309" y="0" on="1"/>
        <pt x="19" y="0" on="1"/>
        <pt x="402" y="587" on="1"/>
        <pt x="28" y="1165" on="1"/>
        <pt x="316" y="1165" on="1"/>
        <pt x="551" y="766" on="1"/>
      </contour>
    </TTGlyph>
    <TTGlyph name="Y" xMin="7" yMin="0" xMax="1242" yMax="1456">
      <contour>
        <pt x="955" y="1456" on="1"/>
        <pt x="1242" y="1456" on="1"/>
        <pt x="755" y="535" on="1"/>
        <pt x="755" y="0" on="1"/>
        <pt x="494" y="0" on="1"/>
        <pt x="494" y="535" on="1"/>
        <pt x="7" y="1456" on="1"/>
        <pt x="294" y="1456" on="1"/>
        <pt x="624" y="771" on="1"/>
      </contour>
    </TTGlyph>
    <TTGlyph name="Y.smcp" xMin="4" yMin="0" xMax="1082" yMax="1165">
      <contour>
        <pt x="664" y="405" on="1"/>
        <pt x="664" y="0" on="1"/>
        <pt x="415" y="0" on="1"/>
        <pt x="415" y="418" on="1"/>
        <pt x="4" y="1165" on="1"/>
        <pt x="278" y="1165" on="1"/>
        <pt x="543" y="640" on="1"/>
        <pt x="809" y="1165" on="1"/>
        <pt x="1082" y="1165" on="1"/>
      </contour>
    </TTGlyph>
    <TTGlyph name="Yacute" xMin="7" yMin="0" xMax="1242" yMax="1846">
      <component glyphName=".ttfautohint" x="7" y="0" flags="0x0"/>
      <component glyphName="Y" x="0" y="0" flags="0x0"/>
      <component glyphName="acutecomb" x="1181" y="310" flags="0x4"/>
    </TTGlyph>
    <TTGlyph name="Yacute.smcp" xMin="4" yMin="0" xMax="1082" yMax="1566">
      <component glyphName=".ttfautohint" x="4" y="0" flags="0x0"/>
      <component glyphName="Y.smcp" x="0" y="0" flags="0x0"/>
      <component glyphName="acutecomb" x="1090" y="30" flags="0x4"/>
    </TTGlyph>
    <TTGlyph name="Z" xMin="79" yMin="0" xMax="1167" yMax="1456">
      <contour>
        <pt x="1167" y="208" on="1"/>
        <pt x="1167" y="0" on="1"/>
        <pt x="79" y="0" on="1"/>
        <pt x="79" y="166" on="1"/>
        <pt x="829" y="1247" on="1"/>
        <pt x="84" y="1247" on="1"/>
        <pt x="84" y="1456" on="1"/>
        <pt x="1144" y="1456" on="1"/>
        <pt x="1144" y="1295" on="1"/>
        <pt x="395" y="208" on="1"/>
      </contour>
    </TTGlyph>
    <TTGlyph name="Z.smcp" xMin="64" yMin="0" xMax="1013" yMax="1165">
      <contour>
        <pt x="1013" y="200" on="1"/>
        <pt x="1013" y="0" on="1"/>
        <pt x="64" y="0" on="1"/>
        <pt x="64" y="143" on="1"/>
        <pt x="680" y="964" on="1"/>
        <pt x="65" y="964" on="1"/>
        <pt x="65" y="1165" on="1"/>
        <pt x="998" y="1165" on="1"/>
        <pt x="998" y="1026" on="1"/>
        <pt x="385" y="200" on="1"/>
      </contour>
    </TTGlyph>
    <TTGlyph name="a" xMin="88" yMin="-20" xMax="1021" yMax="1102">
      <contour>
        <pt x="980" y="104" on="0"/>
        <pt x="1021" y="17" on="1"/>
        <pt x="1021" y="0" on="1"/>
        <pt x="767" y="0" on="1"/>
        <pt x="750" y="37" on="0"/>
        <pt x="740" y="101" on="1"/>
        <pt x="688" y="46" on="0"/>
        <pt x="545" y="-20" on="0"/>
        <pt x="456" y="-20" on="1"/>
        <pt x="350" y="-20" on="0"/>
        <pt x="182" y="64" on="0"/>
        <pt x="88" y="212" on="0"/>
        <pt x="88" y="304" on="1"/>
        <pt x="88" y="477" on="0"/>
        <pt x="345" y="661" on="0"/>
        <pt x="581" y="661" on="1"/>
        <pt x="731" y="661" on="1"/>
        <pt x="731" y="731" on="1"/>
        <pt x="731" y="817" on="0"/>
        <pt x="637" y="914" on="0"/>
        <pt x="545" y="914" on="1"/>
        <pt x="490" y="914" on="0"/>
        <pt x="406" y="876" on="0"/>
        <pt x="360" y="810" on="0"/>
        <pt x="360" y="769" on="1"/>
        <pt x="111" y="769" on="1"/>
        <pt x="111" y="856" on="0"/>
        <pt x="222" y="1009" on="0"/>
        <pt x="427" y="1102" on="0"/>
        <pt x="559" y="1102" on="1"/>
        <pt x="683" y="1102" on="0"/>
        <pt x="873" y="1018" on="0"/>
        <pt x="980" y="850" on="0"/>
        <pt x="980" y="729" on="1"/>
        <pt x="980" y="252" on="1"/>
      </contour>
      <contour>
        <pt x="582" y="179" on="0"/>
        <pt x="704" y="253" on="0"/>
        <pt x="731" y="305" on="1"/>
        <pt x="731" y="507" on="1"/>
        <pt x="601" y="507" on="1"/>
        <pt x="471" y="507" on="0"/>
        <pt x="337" y="413" on="0"/>
        <pt x="337" y="328" on="1"/>
        <pt x="337" y="262" on="0"/>
        <pt x="425" y="179" on="0"/>
        <pt x="504" y="179" on="1"/>
      </contour>
    </TTGlyph>
    <TTGlyph name="aacute" xMin="88" yMin="-20" xMax="1021" yMax="1536">
      <component glyphName=".ttfautohint" x="88" y="0" flags="0x0"/>
      <component glyphName="a" x="0" y="0" flags="0x0"/>
      <component glyphName="acutecomb" x="1118" y="0" flags="0x0"/>
    </TTGlyph>
    <TTGlyph name="acircumflex" xMin="88" yMin="-20" xMax="1021" yMax="1537">
      <component glyphName=".ttfautohint" x="88" y="0" flags="0x0"/>
      <component glyphName="a" x="0" y="0" flags="0x0"/>
      <component glyphName="circumflex" x="73" y="0" flags="0x0"/>
    </TTGlyph>
    <TTGlyph name="acute" xMin="111" yMin="1233" xMax="588" yMax="1536">
      <contour>
        <pt x="588" y="1536" on="1"/>
        <pt x="312" y="1233" on="1"/>
        <pt x="111" y="1233" on="1"/>
        <pt x="307" y="1536" on="1"/>
      </contour>
    </TTGlyph>
    <TTGlyph name="acutecomb" xMin="-675" yMin="1233" xMax="-198" yMax="1536">
      <contour>
        <pt x="-198" y="1536" on="1"/>
        <pt x="-475" y="1233" on="1"/>
        <pt x="-675" y="1233" on="1"/>
        <pt x="-480" y="1536" on="1"/>
      </contour>
    </TTGlyph>
    <TTGlyph name="adieresis" xMin="88" yMin="-20" xMax="1021" yMax="1486">
      <component glyphName=".ttfautohint" x="88" y="0" flags="0x0"/>
      <component glyphName="a" x="0" y="0" flags="0x0"/>
      <component glyphName="dieresis" x="114" y="0" flags="0x0"/>
    </TTGlyph>
    <TTGlyph name="ae" xMin="71" yMin="-21" xMax="1670" yMax="1103">
      <contour>
        <pt x="1670" y="469" on="1"/>
        <pt x="978" y="469" on="1"/>
        <pt x="988" y="337" on="0"/>
        <pt x="1133" y="179" on="0"/>
        <pt x="1270" y="179" on="1"/>
        <pt x="1339" y="179" on="0"/>
        <pt x="1448" y="205" on="0"/>
        <pt x="1520" y="239" on="0"/>
        <pt x="1574" y="269" on="1"/>
        <pt x="1646" y="100" on="1"/>
        <pt x="1590" y="55" on="0"/>
        <pt x="1387" y="-21" on="0"/>
        <pt x="1254" y="-21" on="1"/>
        <pt x="1127" y="-21" on="0"/>
        <pt x="929" y="62" on="0"/>
        <pt x="862" y="139" on="1"/>
        <pt x="802" y="70" on="0"/>
        <pt x="594" y="-21" on="0"/>
        <pt x="451" y="-21" on="1"/>
        <pt x="330" y="-21" on="0"/>
        <pt x="159" y="61" on="0"/>
        <pt x="71" y="212" on="0"/>
        <pt x="71" y="313" on="1"/>
        <pt x="71" y="472" on="0"/>
        <pt x="314" y="644" on="0"/>
        <pt x="546" y="644" on="1"/>
        <pt x="733" y="644" on="1"/>
        <pt x="733" y="712" on="1"/>
        <pt x="733" y="801" on="0"/>
        <pt x="640" y="902" on="0"/>
        <pt x="554" y="902" on="1"/>
        <pt x="493" y="902" on="0"/>
        <pt x="401" y="861" on="0"/>
        <pt x="351" y="792" on="0"/>
        <pt x="351" y="751" on="1"/>
        <pt x="103" y="770" on="1"/>
        <pt x="103" y="865" on="0"/>
        <pt x="216" y="1017" on="0"/>
        <pt x="422" y="1102" on="0"/>
        <pt x="555" y="1102" on="1"/>
        <pt x="664" y="1102" on="0"/>
        <pt x="835" y="1037" on="0"/>
        <pt x="889" y="973" on="1"/>
        <pt x="951" y="1036" on="0"/>
        <pt x="1119" y="1103" on="0"/>
        <pt x="1219" y="1102" on="1"/>
        <pt x="1361" y="1102" on="0"/>
        <pt x="1564" y="983" on="0"/>
        <pt x="1670" y="762" on="0"/>
        <pt x="1670" y="612" on="1"/>
      </contour>
      <contour>
        <pt x="1424" y="672" on="1"/>
        <pt x="1424" y="776" on="0"/>
        <pt x="1324" y="902" on="0"/>
        <pt x="1219" y="902" on="1"/>
        <pt x="1117" y="902" on="0"/>
        <pt x="997" y="761" on="0"/>
        <pt x="982" y="643" on="1"/>
        <pt x="1424" y="643" on="1"/>
      </contour>
      <contour>
        <pt x="320" y="245" on="0"/>
        <pt x="410" y="168" on="0"/>
        <pt x="499" y="168" on="1"/>
        <pt x="558" y="168" on="0"/>
        <pt x="689" y="225" on="0"/>
        <pt x="733" y="267" on="1"/>
        <pt x="733" y="474" on="1"/>
        <pt x="548" y="474" on="1"/>
        <pt x="476" y="474" on="0"/>
        <pt x="373" y="429" on="0"/>
        <pt x="320" y="354" on="0"/>
        <pt x="320" y="309" on="1"/>
      </contour>
    </TTGlyph>
    <TTGlyph name="agrave" xMin="88" yMin="-20" xMax="1021" yMax="1536">
      <component glyphName=".ttfautohint" x="88" y="0" flags="0x0"/>
      <component glyphName="a" x="0" y="0" flags="0x0"/>
      <component glyphName="gravecomb" x="1100" y="0" flags="0x0"/>
    </TTGlyph>
    <TTGlyph name="alpha" xMin="85" yMin="-21" xMax="1146" yMax="1102">
      <contour>
        <pt x="1146" y="9" on="1"/>
        <pt x="1116" y="-9" on="0"/>
        <pt x="1058" y="-21" on="0"/>
        <pt x="1019" y="-21" on="1"/>
        <pt x="855" y="-21" on="0"/>
        <pt x="800" y="142" on="1"/>
        <pt x="697" y="-21" on="0"/>
        <pt x="506" y="-21" on="1"/>
        <pt x="374" y="-21" on="0"/>
        <pt x="184" y="113" on="0"/>
        <pt x="85" y="352" on="0"/>
        <pt x="85" y="507" on="1"/>
        <pt x="85" y="528" on="1"/>
        <pt x="85" y="697" on="0"/>
        <pt x="184" y="957" on="0"/>
        <pt x="374" y="1102" on="0"/>
        <pt x="508" y="1102" on="1"/>
        <pt x="688" y="1102" on="0"/>
        <pt x="789" y="951" on="1"/>
        <pt x="809" y="1082" on="1"/>
        <pt x="1023" y="1082" on="1"/>
        <pt x="1023" y="327" on="1"/>
        <pt x="1023" y="250" on="0"/>
        <pt x="1061" y="189" on="0"/>
        <pt x="1096" y="189" on="1"/>
        <pt x="1107" y="189" on="0"/>
        <pt x="1122" y="194" on="1"/>
      </contour>
      <contour>
        <pt x="642" y="179" on="0"/>
        <pt x="741" y="246" on="0"/>
        <pt x="774" y="309" on="1"/>
        <pt x="774" y="767" on="1"/>
        <pt x="707" y="902" on="0"/>
        <pt x="571" y="902" on="1"/>
        <pt x="449" y="902" on="0"/>
        <pt x="334" y="694" on="0"/>
        <pt x="334" y="528" on="1"/>
        <pt x="334" y="507" on="1"/>
        <pt x="334" y="358" on="0"/>
        <pt x="447" y="179" on="0"/>
        <pt x="569" y="179" on="1"/>
      </contour>
    </TTGlyph>
    <TTGlyph name="alpha.alt" xMin="85" yMin="-21" xMax="1119" yMax="1102">
      <contour>
        <pt x="893" y="0" on="1"/>
        <pt x="863" y="192" on="1"/>
        <pt x="752" y="-21" on="0"/>
        <pt x="514" y="-21" on="1"/>
        <pt x="379" y="-21" on="0"/>
        <pt x="186" y="113" on="0"/>
        <pt x="85" y="352" on="0"/>
        <pt x="85" y="507" on="1"/>
        <pt x="85" y="528" on="1"/>
        <pt x="85" y="697" on="0"/>
        <pt x="185" y="957" on="0"/>
        <pt x="380" y="1102" on="0"/>
        <pt x="516" y="1102" on="1"/>
        <pt x="749" y="1102" on="0"/>
        <pt x="859" y="891" on="1"/>
        <pt x="886" y="1082" on="1"/>
        <pt x="1112" y="1082" on="1"/>
        <pt x="1004" y="540" on="1"/>
        <pt x="1119" y="0" on="1"/>
      </contour>
      <contour>
        <pt x="808" y="558" on="1"/>
        <pt x="793" y="708" on="0"/>
        <pt x="678" y="902" on="0"/>
        <pt x="571" y="902" on="1"/>
        <pt x="449" y="902" on="0"/>
        <pt x="334" y="694" on="0"/>
        <pt x="334" y="528" on="1"/>
        <pt x="334" y="507" on="1"/>
        <pt x="334" y="358" on="0"/>
        <pt x="447" y="179" on="0"/>
        <pt x="569" y="179" on="1"/>
        <pt x="763" y="179" on="0"/>
        <pt x="808" y="509" on="1"/>
      </contour>
    </TTGlyph>
    <TTGlyph name="ampersand" xMin="84" yMin="-20" xMax="1300" yMax="1476">
      <contour>
        <pt x="1012" y="0" on="1"/>
        <pt x="931" y="96" on="1"/>
        <pt x="853" y="38" on="0"/>
        <pt x="663" y="-20" on="0"/>
        <pt x="560" y="-20" on="1"/>
        <pt x="416" y="-20" on="0"/>
        <pt x="200" y="85" on="0"/>
        <pt x="84" y="273" on="0"/>
        <pt x="84" y="393" on="1"/>
        <pt x="84" y="475" on="0"/>
        <pt x="150" y="606" on="0"/>
        <pt x="264" y="715" on="0"/>
        <pt x="355" y="779" on="1"/>
        <pt x="280" y="875" on="0"/>
        <pt x="205" y="1026" on="0"/>
        <pt x="205" y="1105" on="1"/>
        <pt x="205" y="1219" on="0"/>
        <pt x="300" y="1387" on="0"/>
        <pt x="475" y="1476" on="0"/>
        <pt x="591" y="1476" on="1"/>
        <pt x="699" y="1476" on="0"/>
        <pt x="864" y="1388" on="0"/>
        <pt x="954" y="1238" on="0"/>
        <pt x="954" y="1150" on="1"/>
        <pt x="954" y="1052" on="0"/>
        <pt x="853" y="899" on="0"/>
        <pt x="758" y="830" on="1"/>
        <pt x="659" y="759" on="1"/>
        <pt x="936" y="431" on="1"/>
        <pt x="997" y="551" on="0"/>
        <pt x="997" y="697" on="1"/>
        <pt x="1213" y="697" on="1"/>
        <pt x="1213" y="424" on="0"/>
        <pt x="1086" y="253" on="1"/>
        <pt x="1300" y="0" on="1"/>
      </contour>
      <contour>
        <pt x="517" y="1276" on="0"/>
        <pt x="438" y="1181" on="0"/>
        <pt x="438" y="1110" on="1"/>
        <pt x="438" y="1064" on="0"/>
        <pt x="489" y="966" on="0"/>
        <pt x="538" y="903" on="1"/>
        <pt x="625" y="961" on="1"/>
        <pt x="688" y="1003" on="0"/>
        <pt x="739" y="1082" on="0"/>
        <pt x="739" y="1140" on="1"/>
        <pt x="739" y="1175" on="0"/>
        <pt x="703" y="1237" on="0"/>
        <pt x="636" y="1276" on="0"/>
        <pt x="590" y="1276" on="1"/>
      </contour>
      <contour>
        <pt x="627" y="180" on="0"/>
        <pt x="742" y="220" on="0"/>
        <pt x="793" y="258" on="1"/>
        <pt x="479" y="628" on="1"/>
        <pt x="450" y="607" on="1"/>
        <pt x="381" y="553" on="0"/>
        <pt x="334" y="451" on="0"/>
        <pt x="334" y="403" on="1"/>
        <pt x="334" y="339" on="0"/>
        <pt x="389" y="238" on="0"/>
        <pt x="495" y="180" on="0"/>
        <pt x="568" y="180" on="1"/>
      </contour>
    </TTGlyph>
    <TTGlyph name="ampersand.smcp" xMin="92" yMin="-18" xMax="1212" yMax="1181">
      <contour>
        <pt x="938" y="0" on="1"/>
        <pt x="866" y="74" on="1"/>
        <pt x="713" y="-18" on="0"/>
        <pt x="510" y="-18" on="1"/>
        <pt x="384" y="-18" on="0"/>
        <pt x="195" y="62" on="0"/>
        <pt x="92" y="201" on="0"/>
        <pt x="92" y="288" on="1"/>
        <pt x="92" y="383" on="0"/>
        <pt x="189" y="516" on="0"/>
        <pt x="290" y="584" on="1"/>
        <pt x="338" y="617" on="1"/>
        <pt x="284" y="673" on="0"/>
        <pt x="220" y="755" on="0"/>
        <pt x="183" y="848" on="0"/>
        <pt x="183" y="905" on="1"/>
        <pt x="183" y="982" on="0"/>
        <pt x="266" y="1108" on="0"/>
        <pt x="421" y="1181" on="0"/>
        <pt x="523" y="1181" on="1"/>
        <pt x="626" y="1181" on="0"/>
        <pt x="782" y="1107" on="0"/>
        <pt x="867" y="977" on="0"/>
        <pt x="867" y="896" on="1"/>
        <pt x="867" y="821" on="0"/>
        <pt x="780" y="690" on="0"/>
        <pt x="707" y="640" on="1"/>
        <pt x="637" y="593" on="1"/>
        <pt x="866" y="357" on="1"/>
        <pt x="923" y="454" on="0"/>
        <pt x="923" y="584" on="1"/>
        <pt x="1140" y="584" on="1"/>
        <pt x="1140" y="365" on="0"/>
        <pt x="1012" y="206" on="1"/>
        <pt x="1212" y="0" on="1"/>
      </contour>
      <contour>
        <pt x="407" y="847" on="0"/>
        <pt x="454" y="781" on="0"/>
        <pt x="505" y="729" on="1"/>
        <pt x="554" y="762" on="1"/>
        <pt x="602" y="794" on="0"/>
        <pt x="641" y="854" on="0"/>
        <pt x="641" y="887" on="1"/>
        <pt x="641" y="930" on="0"/>
        <pt x="576" y="987" on="0"/>
        <pt x="521" y="987" on="1"/>
        <pt x="468" y="987" on="0"/>
        <pt x="407" y="925" on="0"/>
        <pt x="407" y="883" on="1"/>
      </contour>
      <contour>
        <pt x="632" y="183" on="0"/>
        <pt x="720" y="224" on="1"/>
        <pt x="472" y="480" on="1"/>
        <pt x="416" y="442" on="1"/>
        <pt x="340" y="390" on="0"/>
        <pt x="340" y="317" on="1"/>
        <pt x="340" y="255" on="0"/>
        <pt x="434" y="183" on="0"/>
        <pt x="522" y="183" on="1"/>
      </contour>
    </TTGlyph>
    <TTGlyph name="aring" xMin="88" yMin="-20" xMax="1021" yMax="1629">
      <component glyphName=".ttfautohint" x="88" y="0" flags="0x0"/>
      <component glyphName="a" x="0" y="0" flags="0x0"/>
      <component glyphName="ring" x="223" y="57" flags="0x4"/>
    </TTGlyph>
    <TTGlyph name="asciicircum" xMin="52" yMin="729" xMax="826" yMax="1456">
      <contour>
        <pt x="617" y="729" on="1"/>
        <pt x="440" y="1190" on="1"/>
        <pt x="262" y="729" on="1"/>
        <pt x="52" y="729" on="1"/>
        <pt x="351" y="1456" on="1"/>
        <pt x="528" y="1456" on="1"/>
        <pt x="826" y="729" on="1"/>
      </contour>
    </TTGlyph>
    <TTGlyph name="asciitilde" xMin="116" yMin="386" xMax="1241" yMax="817">
      <contour>
        <pt x="1241" y="673" on="0"/>
        <pt x="1156" y="490" on="0"/>
        <pt x="1004" y="386" on="0"/>
        <pt x="909" y="386" on="1"/>
        <pt x="829" y="386" on="0"/>
        <pt x="700" y="449" on="0"/>
        <pt x="622" y="521" on="1"/>
        <pt x="574" y="567" on="0"/>
        <pt x="496" y="610" on="0"/>
        <pt x="454" y="610" on="1"/>
        <pt x="389" y="610" on="0"/>
        <pt x="312" y="507" on="0"/>
        <pt x="312" y="424" on="1"/>
        <pt x="116" y="424" on="1"/>
        <pt x="116" y="540" on="0"/>
        <pt x="200" y="719" on="0"/>
        <pt x="350" y="817" on="0"/>
        <pt x="446" y="817" on="1"/>
        <pt x="526" y="817" on="0"/>
        <pt x="661" y="752" on="0"/>
        <pt x="735" y="683" on="1"/>
        <pt x="784" y="636" on="0"/>
        <pt x="860" y="594" on="0"/>
        <pt x="901" y="594" on="1"/>
        <pt x="945" y="594" on="0"/>
        <pt x="1013" y="644" on="0"/>
        <pt x="1050" y="732" on="0"/>
        <pt x="1050" y="787" on="1"/>
        <pt x="1241" y="788" on="1"/>
      </contour>
    </TTGlyph>
    <TTGlyph name="asterisk" xMin="28" yMin="587" xMax="889" yMax="1457">
      <contour>
        <pt x="28" y="1059" on="1"/>
        <pt x="83" y="1230" on="1"/>
        <pt x="386" y="1112" on="1"/>
        <pt x="371" y="1457" on="1"/>
        <pt x="552" y="1457" on="1"/>
        <pt x="536" y="1105" on="1"/>
        <pt x="834" y="1221" on="1"/>
        <pt x="889" y="1048" on="1"/>
        <pt x="577" y="960" on="1"/>
        <pt x="779" y="694" on="1"/>
        <pt x="632" y="587" on="1"/>
        <pt x="451" y="876" on="1"/>
        <pt x="273" y="596" on="1"/>
        <pt x="126" y="699" on="1"/>
        <pt x="333" y="971" on="1"/>
      </contour>
    </TTGlyph>
    <TTGlyph name="at" xMin="97" yMin="-453" xMax="1741" yMax="1424">
      <contour>
        <pt x="1209" y="1424" on="0"/>
        <pt x="1559" y="1217" on="0"/>
        <pt x="1741" y="838" on="0"/>
        <pt x="1741" y="582" on="1"/>
        <pt x="1741" y="542" on="0"/>
        <pt x="1740" y="521" on="1"/>
        <pt x="1735" y="380" on="0"/>
        <pt x="1643" y="134" on="0"/>
        <pt x="1456" y="-21" on="0"/>
        <pt x="1314" y="-21" on="1"/>
        <pt x="1226" y="-21" on="0"/>
        <pt x="1101" y="59" on="0"/>
        <pt x="1072" y="132" on="1"/>
        <pt x="1022" y="58" on="0"/>
        <pt x="887" y="-19" on="0"/>
        <pt x="811" y="-19" on="1"/>
        <pt x="724" y="-19" on="0"/>
        <pt x="596" y="71" on="0"/>
        <pt x="528" y="238" on="0"/>
        <pt x="528" y="350" on="1"/>
        <pt x="528" y="372" on="0"/>
        <pt x="532" y="424" on="1"/>
        <pt x="549" y="593" on="0"/>
        <pt x="678" y="850" on="0"/>
        <pt x="872" y="990" on="0"/>
        <pt x="982" y="990" on="1"/>
        <pt x="1053" y="990" on="0"/>
        <pt x="1158" y="962" on="0"/>
        <pt x="1233" y="919" on="0"/>
        <pt x="1283" y="882" on="1"/>
        <pt x="1231" y="317" on="1"/>
        <pt x="1229" y="287" on="0"/>
        <pt x="1229" y="274" on="1"/>
        <pt x="1229" y="190" on="0"/>
        <pt x="1294" y="124" on="0"/>
        <pt x="1344" y="124" on="1"/>
        <pt x="1413" y="124" on="0"/>
        <pt x="1517" y="227" on="0"/>
        <pt x="1576" y="406" on="0"/>
        <pt x="1580" y="517" on="1"/>
        <pt x="1582" y="563" on="0"/>
        <pt x="1582" y="586" on="1"/>
        <pt x="1582" y="912" on="0"/>
        <pt x="1271" y="1272" on="0"/>
        <pt x="961" y="1272" on="1"/>
        <pt x="759" y="1272" on="0"/>
        <pt x="456" y="1068" on="0"/>
        <pt x="286" y="705" on="0"/>
        <pt x="275" y="470" on="1"/>
        <pt x="274" y="448" on="0"/>
        <pt x="274" y="406" on="1"/>
        <pt x="274" y="182" on="0"/>
        <pt x="419" y="-134" on="0"/>
        <pt x="698" y="-298" on="0"/>
        <pt x="895" y="-298" on="1"/>
        <pt x="982" y="-298" on="0"/>
        <pt x="1163" y="-258" on="0"/>
        <pt x="1226" y="-226" on="1"/>
        <pt x="1265" y="-364" on="1"/>
        <pt x="1198" y="-407" on="0"/>
        <pt x="991" y="-453" on="0"/>
        <pt x="891" y="-453" on="1"/>
        <pt x="642" y="-453" on="0"/>
        <pt x="285" y="-250" on="0"/>
        <pt x="97" y="137" on="0"/>
        <pt x="97" y="408" on="1"/>
        <pt x="97" y="449" on="0"/>
        <pt x="98" y="470" on="1"/>
        <pt x="110" y="744" on="0"/>
        <pt x="329" y="1177" on="0"/>
        <pt x="714" y="1424" on="0"/>
        <pt x="965" y="1424" on="1"/>
      </contour>
      <contour>
        <pt x="920" y="148" on="0"/>
        <pt x="1018" y="234" on="0"/>
        <pt x="1051" y="326" on="1"/>
        <pt x="1095" y="815" on="1"/>
        <pt x="1049" y="833" on="0"/>
        <pt x="1000" y="833" on="1"/>
        <pt x="889" y="833" on="0"/>
        <pt x="750" y="623" on="0"/>
        <pt x="731" y="424" on="1"/>
        <pt x="728" y="391" on="0"/>
        <pt x="728" y="361" on="1"/>
        <pt x="728" y="257" on="0"/>
        <pt x="802" y="148" on="0"/>
        <pt x="872" y="148" on="1"/>
      </contour>
    </TTGlyph>
    <TTGlyph name="atilde" xMin="88" yMin="-20" xMax="1021" yMax="1527">
      <component glyphName=".ttfautohint" x="88" y="0" flags="0x0"/>
      <component glyphName="a" x="0" y="0" flags="0x0"/>
      <component glyphName="tilde" x="75" y="0" flags="0x0"/>
    </TTGlyph>
    <TTGlyph name="b" xMin="123" yMin="-20" xMax="1076" yMax="1536">
      <contour>
        <pt x="789" y="1102" on="0"/>
        <pt x="980" y="963" on="0"/>
        <pt x="1076" y="715" on="0"/>
        <pt x="1076" y="551" on="1"/>
        <pt x="1076" y="530" on="1"/>
        <pt x="1076" y="368" on="0"/>
        <pt x="979" y="120" on="0"/>
        <pt x="789" y="-20" on="0"/>
        <pt x="655" y="-20" on="1"/>
        <pt x="467" y="-20" on="0"/>
        <pt x="360" y="117" on="1"/>
        <pt x="348" y="0" on="1"/>
        <pt x="123" y="0" on="1"/>
        <pt x="123" y="1536" on="1"/>
        <pt x="372" y="1536" on="1"/>
        <pt x="372" y="980" on="1"/>
        <pt x="477" y="1102" on="0"/>
        <pt x="653" y="1102" on="1"/>
      </contour>
      <contour>
        <pt x="827" y="551" on="1"/>
        <pt x="827" y="708" on="0"/>
        <pt x="718" y="899" on="0"/>
        <pt x="590" y="899" on="1"/>
        <pt x="437" y="899" on="0"/>
        <pt x="372" y="764" on="1"/>
        <pt x="372" y="321" on="1"/>
        <pt x="438" y="183" on="0"/>
        <pt x="592" y="183" on="1"/>
        <pt x="717" y="183" on="0"/>
        <pt x="827" y="370" on="0"/>
        <pt x="827" y="530" on="1"/>
      </contour>
    </TTGlyph>
    <TTGlyph name="b.ss06" xMin="123" yMin="-20" xMax="1096" yMax="1536">
      <contour>
        <pt x="790" y="1102" on="0"/>
        <pt x="990" y="965" on="0"/>
        <pt x="1096" y="715" on="0"/>
        <pt x="1096" y="551" on="1"/>
        <pt x="1096" y="530" on="1"/>
        <pt x="1096" y="372" on="0"/>
        <pt x="989" y="122" on="0"/>
        <pt x="790" y="-20" on="0"/>
        <pt x="655" y="-20" on="1"/>
        <pt x="465" y="-20" on="0"/>
        <pt x="356" y="122" on="1"/>
        <pt x="338" y="0" on="1"/>
        <pt x="123" y="0" on="1"/>
        <pt x="123" y="1536" on="1"/>
        <pt x="372" y="1536" on="1"/>
        <pt x="372" y="980" on="1"/>
        <pt x="477" y="1102" on="0"/>
        <pt x="653" y="1102" on="1"/>
      </contour>
      <contour>
        <pt x="847" y="551" on="1"/>
        <pt x="847" y="707" on="0"/>
        <pt x="717" y="899" on="0"/>
        <pt x="590" y="899" on="1"/>
        <pt x="437" y="899" on="0"/>
        <pt x="372" y="770" on="1"/>
        <pt x="372" y="315" on="1"/>
        <pt x="441" y="183" on="0"/>
        <pt x="592" y="183" on="1"/>
        <pt x="677" y="183" on="0"/>
        <pt x="792" y="274" on="0"/>
        <pt x="847" y="431" on="0"/>
        <pt x="847" y="530" on="1"/>
      </contour>
    </TTGlyph>
    <TTGlyph name="backslash" xMin="18" yMin="-125" xMax="873" yMax="1456">
      <contour>
        <pt x="265" y="1456" on="1"/>
        <pt x="873" y="-125" on="1"/>
        <pt x="625" y="-125" on="1"/>
        <pt x="18" y="1456" on="1"/>
      </contour>
    </TTGlyph>
    <TTGlyph name="bar" xMin="174" yMin="-270" xMax="343" yMax="1456">
      <contour>
        <pt x="174" y="-270" on="1"/>
        <pt x="174" y="1456" on="1"/>
        <pt x="343" y="1456" on="1"/>
        <pt x="343" y="-270" on="1"/>
      </contour>
    </TTGlyph>
    <TTGlyph name="braceleft" xMin="55" yMin="-360" xMax="656" yMax="1597">
      <contour>
        <pt x="479" y="-18" on="0"/>
        <pt x="560" y="-185" on="0"/>
        <pt x="656" y="-217" on="1"/>
        <pt x="607" y="-360" on="1"/>
        <pt x="413" y="-306" on="0"/>
        <pt x="247" y="-65" on="0"/>
        <pt x="247" y="106" on="1"/>
        <pt x="247" y="309" on="1"/>
        <pt x="247" y="413" on="0"/>
        <pt x="153" y="528" on="0"/>
        <pt x="55" y="528" on="1"/>
        <pt x="55" y="710" on="1"/>
        <pt x="153" y="710" on="0"/>
        <pt x="247" y="825" on="0"/>
        <pt x="247" y="929" on="1"/>
        <pt x="247" y="1132" on="1"/>
        <pt x="247" y="1303" on="0"/>
        <pt x="413" y="1543" on="0"/>
        <pt x="607" y="1597" on="1"/>
        <pt x="656" y="1455" on="1"/>
        <pt x="560" y="1423" on="0"/>
        <pt x="479" y="1256" on="0"/>
        <pt x="479" y="1132" on="1"/>
        <pt x="479" y="929" on="1"/>
        <pt x="479" y="826" on="0"/>
        <pt x="394" y="665" on="0"/>
        <pt x="307" y="619" on="1"/>
        <pt x="394" y="573" on="0"/>
        <pt x="479" y="412" on="0"/>
        <pt x="479" y="309" on="1"/>
        <pt x="479" y="106" on="1"/>
      </contour>
    </TTGlyph>
    <TTGlyph name="braceright" xMin="29" yMin="-360" xMax="629" yMax="1597">
      <contour>
        <pt x="438" y="824" on="0"/>
        <pt x="531" y="710" on="0"/>
        <pt x="629" y="710" on="1"/>
        <pt x="629" y="528" on="1"/>
        <pt x="531" y="528" on="0"/>
        <pt x="438" y="413" on="0"/>
        <pt x="438" y="309" on="1"/>
        <pt x="438" y="106" on="1"/>
        <pt x="438" y="-65" on="0"/>
        <pt x="272" y="-306" on="0"/>
        <pt x="78" y="-360" on="1"/>
        <pt x="29" y="-217" on="1"/>
        <pt x="125" y="-185" on="0"/>
        <pt x="205" y="-18" on="0"/>
        <pt x="205" y="106" on="1"/>
        <pt x="205" y="309" on="1"/>
        <pt x="205" y="414" on="0"/>
        <pt x="295" y="575" on="0"/>
        <pt x="387" y="619" on="1"/>
        <pt x="295" y="663" on="0"/>
        <pt x="205" y="823" on="0"/>
        <pt x="205" y="929" on="1"/>
        <pt x="205" y="1132" on="1"/>
        <pt x="205" y="1256" on="0"/>
        <pt x="125" y="1423" on="0"/>
        <pt x="29" y="1455" on="1"/>
        <pt x="78" y="1597" on="1"/>
        <pt x="272" y="1543" on="0"/>
        <pt x="438" y="1303" on="0"/>
        <pt x="438" y="1132" on="1"/>
        <pt x="438" y="929" on="1"/>
      </contour>
    </TTGlyph>
    <TTGlyph name="bracketleft" xMin="131" yMin="-327" xMax="542" yMax="1681">
      <contour>
        <pt x="380" y="1486" on="1"/>
        <pt x="380" y="-133" on="1"/>
        <pt x="542" y="-133" on="1"/>
        <pt x="542" y="-327" on="1"/>
        <pt x="131" y="-327" on="1"/>
        <pt x="131" y="1681" on="1"/>
        <pt x="542" y="1681" on="1"/>
        <pt x="542" y="1486" on="1"/>
      </contour>
    </TTGlyph>
    <TTGlyph name="bracketright" xMin="13" yMin="-327" xMax="425" yMax="1681">
      <contour>
        <pt x="425" y="1681" on="1"/>
        <pt x="425" y="-327" on="1"/>
        <pt x="13" y="-327" on="1"/>
        <pt x="13" y="-133" on="1"/>
        <pt x="176" y="-133" on="1"/>
        <pt x="176" y="1486" on="1"/>
        <pt x="13" y="1486" on="1"/>
        <pt x="13" y="1681" on="1"/>
      </contour>
    </TTGlyph>
    <TTGlyph name="brokenbar" xMin="136" yMin="-270" xMax="369" yMax="1456">
      <contour>
        <pt x="136" y="698" on="1"/>
        <pt x="136" y="1456" on="1"/>
        <pt x="369" y="1456" on="1"/>
        <pt x="369" y="698" on="1"/>
      </contour>
      <contour>
        <pt x="136" y="525" on="1"/>
        <pt x="369" y="525" on="1"/>
        <pt x="369" y="-270" on="1"/>
        <pt x="136" y="-270" on="1"/>
      </contour>
    </TTGlyph>
    <TTGlyph name="bullet" xMin="136" yMin="516" xMax="585" yMax="988">
      <contour>
        <pt x="136" y="834" on="0"/>
        <pt x="191" y="932" on="0"/>
        <pt x="292" y="988" on="0"/>
        <pt x="359" y="988" on="1"/>
        <pt x="428" y="988" on="0"/>
        <pt x="530" y="933" on="0"/>
        <pt x="585" y="834" on="0"/>
        <pt x="585" y="771" on="1"/>
        <pt x="585" y="731" on="1"/>
        <pt x="585" y="668" on="0"/>
        <pt x="531" y="571" on="0"/>
        <pt x="429" y="516" on="0"/>
        <pt x="361" y="516" on="1"/>
        <pt x="293" y="516" on="0"/>
        <pt x="191" y="571" on="0"/>
        <pt x="136" y="668" on="0"/>
        <pt x="136" y="731" on="1"/>
        <pt x="136" y="771" on="1"/>
      </contour>
    </TTGlyph>
    <TTGlyph name="c" xMin="78" yMin="-20" xMax="1014" yMax="1102">
      <contour>
        <pt x="1014" y="360" on="1"/>
        <pt x="1011" y="256" on="0"/>
        <pt x="891" y="82" on="0"/>
        <pt x="691" y="-20" on="0"/>
        <pt x="572" y="-20" on="1"/>
        <pt x="411" y="-20" on="0"/>
        <pt x="188" y="124" on="0"/>
        <pt x="78" y="371" on="0"/>
        <pt x="78" y="524" on="1"/>
        <pt x="78" y="558" on="1"/>
        <pt x="78" y="711" on="0"/>
        <pt x="189" y="958" on="0"/>
        <pt x="411" y="1102" on="0"/>
        <pt x="571" y="1102" on="1"/>
        <pt x="700" y="1102" on="0"/>
        <pt x="899" y="999" on="0"/>
        <pt x="1011" y="813" on="0"/>
        <pt x="1014" y="693" on="1"/>
        <pt x="779" y="693" on="1"/>
        <pt x="776" y="751" on="0"/>
        <pt x="724" y="846" on="0"/>
        <pt x="631" y="902" on="0"/>
        <pt x="568" y="902" on="1"/>
        <pt x="435" y="902" on="0"/>
        <pt x="327" y="708" on="0"/>
        <pt x="327" y="558" on="1"/>
        <pt x="327" y="524" on="1"/>
        <pt x="327" y="180" on="0"/>
        <pt x="569" y="180" on="1"/>
        <pt x="626" y="180" on="0"/>
        <pt x="720" y="226" on="0"/>
        <pt x="776" y="308" on="0"/>
        <pt x="779" y="360" on="1"/>
      </contour>
    </TTGlyph>
    <TTGlyph name="c.ss06" xMin="79" yMin="-20" xMax="1027" yMax="1102">
      <contour>
        <pt x="1027" y="360" on="1"/>
        <pt x="1023" y="256" on="0"/>
        <pt x="901" y="82" on="0"/>
        <pt x="699" y="-20" on="0"/>
        <pt x="581" y="-20" on="1"/>
        <pt x="420" y="-20" on="0"/>
        <pt x="193" y="125" on="0"/>
        <pt x="79" y="371" on="0"/>
        <pt x="79" y="524" on="1"/>
        <pt x="79" y="558" on="1"/>
        <pt x="79" y="710" on="0"/>
        <pt x="193" y="957" on="0"/>
        <pt x="420" y="1102" on="0"/>
        <pt x="580" y="1102" on="1"/>
        <pt x="709" y="1102" on="0"/>
        <pt x="909" y="999" on="0"/>
        <pt x="1023" y="813" on="0"/>
        <pt x="1027" y="693" on="1"/>
        <pt x="793" y="693" on="1"/>
        <pt x="789" y="751" on="0"/>
        <pt x="735" y="846" on="0"/>
        <pt x="640" y="902" on="0"/>
        <pt x="577" y="902" on="1"/>
        <pt x="444" y="902" on="0"/>
        <pt x="328" y="706" on="0"/>
        <pt x="328" y="558" on="1"/>
        <pt x="328" y="524" on="1"/>
        <pt x="328" y="374" on="0"/>
        <pt x="443" y="180" on="0"/>
        <pt x="578" y="180" on="1"/>
        <pt x="635" y="180" on="0"/>
        <pt x="731" y="226" on="0"/>
        <pt x="789" y="308" on="0"/>
        <pt x="793" y="360" on="1"/>
      </contour>
    </TTGlyph>
    <TTGlyph name="ccedilla" xMin="78" yMin="-456" xMax="1014" yMax="1102">
      <component glyphName=".ttfautohint" x="78" y="0" flags="0x0"/>
      <component glyphName="c" x="0" y="0" flags="0x0"/>
      <component glyphName="cedilla" x="318" y="-6" flags="0x4"/>
    </TTGlyph>
    <TTGlyph name="cedilla" xMin="108" yMin="-450" xMax="461" yMax="4">
      <contour>
        <pt x="311" y="-51" on="1"/>
        <pt x="375" y="-62" on="0"/>
        <pt x="461" y="-145" on="0"/>
        <pt x="461" y="-224" on="1"/>
        <pt x="461" y="-292" on="0"/>
        <pt x="386" y="-394" on="0"/>
        <pt x="237" y="-450" on="0"/>
        <pt x="131" y="-450" on="1"/>
        <pt x="124" y="-308" on="1"/>
        <pt x="185" y="-308" on="0"/>
        <pt x="258" y="-265" on="0"/>
        <pt x="258" y="-220" on="1"/>
        <pt x="258" y="-177" on="0"/>
        <pt x="190" y="-142" on="0"/>
        <pt x="108" y="-136" on="1"/>
        <pt x="140" y="4" on="1"/>
        <pt x="322" y="4" on="1"/>
      </contour>
    </TTGlyph>
    <TTGlyph name="cent" xMin="101" yMin="-245" xMax="1037" yMax="1318">
      <contour>
        <pt x="649" y="180" on="0"/>
        <pt x="743" y="226" on="0"/>
        <pt x="799" y="308" on="0"/>
        <pt x="802" y="360" on="1"/>
        <pt x="1037" y="360" on="1"/>
        <pt x="1035" y="270" on="0"/>
        <pt x="943" y="114" on="0"/>
        <pt x="786" y="7" on="0"/>
        <pt x="689" y="-11" on="1"/>
        <pt x="689" y="-245" on="1"/>
        <pt x="489" y="-245" on="1"/>
        <pt x="489" y="-11" on="1"/>
        <pt x="362" y="12" on="0"/>
        <pt x="187" y="163" on="0"/>
        <pt x="101" y="389" on="0"/>
        <pt x="101" y="524" on="1"/>
        <pt x="101" y="558" on="1"/>
        <pt x="101" y="693" on="0"/>
        <pt x="188" y="919" on="0"/>
        <pt x="362" y="1070" on="0"/>
        <pt x="489" y="1093" on="1"/>
        <pt x="489" y="1318" on="1"/>
        <pt x="689" y="1318" on="1"/>
        <pt x="689" y="1094" on="1"/>
        <pt x="793" y="1077" on="0"/>
        <pt x="948" y="967" on="0"/>
        <pt x="1035" y="798" on="0"/>
        <pt x="1037" y="693" on="1"/>
        <pt x="802" y="693" on="1"/>
        <pt x="799" y="751" on="0"/>
        <pt x="747" y="846" on="0"/>
        <pt x="654" y="902" on="0"/>
        <pt x="591" y="902" on="1"/>
        <pt x="458" y="902" on="0"/>
        <pt x="350" y="708" on="0"/>
        <pt x="350" y="558" on="1"/>
        <pt x="350" y="524" on="1"/>
        <pt x="350" y="180" on="0"/>
        <pt x="592" y="180" on="1"/>
      </contour>
    </TTGlyph>
    <TTGlyph name="circumflex" xMin="146" yMin="1248" xMax="842" yMax="1537">
      <contour>
        <pt x="842" y="1248" on="1"/>
        <pt x="643" y="1248" on="1"/>
        <pt x="492" y="1403" on="1"/>
        <pt x="342" y="1248" on="1"/>
        <pt x="146" y="1248" on="1"/>
        <pt x="146" y="1261" on="1"/>
        <pt x="419" y="1537" on="1"/>
        <pt x="565" y="1537" on="1"/>
        <pt x="842" y="1259" on="1"/>
      </contour>
    </TTGlyph>
    <TTGlyph name="colon" xMin="129" yMin="-12" xMax="418" yMax="1107">
      <component glyphName=".ttfautohint" x="129" y="0" flags="0x0"/>
      <component glyphName="period" x="-5" y="0" flags="0x0"/>
      <component glyphName="period" x="-5" y="845" flags="0x4"/>
    </TTGlyph>
    <TTGlyph name="comma" xMin="30" yMin="-333" xMax="354" yMax="237">
      <contour>
        <pt x="353" y="-43" on="0"/>
        <pt x="249" y="-262" on="0"/>
        <pt x="163" y="-333" on="1"/>
        <pt x="30" y="-256" on="1"/>
        <pt x="80" y="-174" on="0"/>
        <pt x="132" y="-36" on="0"/>
        <pt x="132" y="52" on="1"/>
        <pt x="132" y="237" on="1"/>
        <pt x="354" y="237" on="1"/>
        <pt x="353" y="61" on="1"/>
      </contour>
    </TTGlyph>
    <TTGlyph name="copyright" xMin="87" yMin="-21" xMax="1507" yMax="1476">
      <contour>
        <pt x="990" y="1476" on="0"/>
        <pt x="1316" y="1279" on="0"/>
        <pt x="1507" y="936" on="0"/>
        <pt x="1507" y="729" on="1"/>
        <pt x="1507" y="521" on="0"/>
        <pt x="1316" y="178" on="0"/>
        <pt x="990" y="-21" on="0"/>
        <pt x="797" y="-21" on="1"/>
        <pt x="603" y="-21" on="0"/>
        <pt x="278" y="178" on="0"/>
        <pt x="87" y="521" on="0"/>
        <pt x="87" y="729" on="1"/>
        <pt x="87" y="937" on="0"/>
        <pt x="278" y="1279" on="0"/>
        <pt x="603" y="1476" on="0"/>
        <pt x="797" y="1476" on="1"/>
      </contour>
      <contour>
        <pt x="957" y="104" on="0"/>
        <pt x="1226" y="269" on="0"/>
        <pt x="1384" y="556" on="0"/>
        <pt x="1384" y="729" on="1"/>
        <pt x="1384" y="902" on="0"/>
        <pt x="1226" y="1187" on="0"/>
        <pt x="957" y="1351" on="0"/>
        <pt x="797" y="1351" on="1"/>
        <pt x="636" y="1351" on="0"/>
        <pt x="367" y="1187" on="0"/>
        <pt x="209" y="902" on="0"/>
        <pt x="209" y="729" on="1"/>
        <pt x="209" y="556" on="0"/>
        <pt x="367" y="269" on="0"/>
        <pt x="637" y="104" on="0"/>
        <pt x="797" y="104" on="1"/>
      </contour>
      <contour>
        <pt x="1118" y="442" on="0"/>
        <pt x="941" y="282" on="0"/>
        <pt x="783" y="282" on="1"/>
        <pt x="677" y="282" on="0"/>
        <pt x="519" y="379" on="0"/>
        <pt x="434" y="554" on="0"/>
        <pt x="434" y="669" on="1"/>
        <pt x="434" y="788" on="1"/>
        <pt x="434" y="902" on="0"/>
        <pt x="519" y="1078" on="0"/>
        <pt x="677" y="1175" on="0"/>
        <pt x="783" y="1175" on="1"/>
        <pt x="941" y="1175" on="0"/>
        <pt x="1119" y="1016" on="0"/>
        <pt x="1119" y="862" on="1"/>
        <pt x="963" y="862" on="1"/>
        <pt x="963" y="956" on="0"/>
        <pt x="874" y="1040" on="0"/>
        <pt x="783" y="1040" on="1"/>
        <pt x="690" y="1040" on="0"/>
        <pt x="589" y="903" on="0"/>
        <pt x="589" y="789" on="1"/>
        <pt x="589" y="669" on="1"/>
        <pt x="589" y="554" on="0"/>
        <pt x="689" y="417" on="0"/>
        <pt x="783" y="417" on="1"/>
        <pt x="874" y="417" on="0"/>
        <pt x="962" y="501" on="0"/>
        <pt x="962" y="596" on="1"/>
        <pt x="1118" y="596" on="1"/>
      </contour>
    </TTGlyph>
    <TTGlyph name="crossbar" xMin="144" yMin="647" xMax="817" yMax="820">
      <contour>
        <pt x="144" y="647" on="1"/>
        <pt x="144" y="820" on="1"/>
        <pt x="817" y="820" on="1"/>
        <pt x="817" y="647" on="1"/>
      </contour>
    </TTGlyph>
    <TTGlyph name="currency" xMin="92" yMin="-27" xMax="1358" yMax="1265">
      <contour>
        <pt x="1317" y="512" on="0"/>
        <pt x="1266" y="335" on="0"/>
        <pt x="1219" y="259" on="1"/>
        <pt x="1358" y="118" on="1"/>
        <pt x="1216" y="-27" on="1"/>
        <pt x="1084" y="107" on="1"/>
        <pt x="1008" y="46" on="0"/>
        <pt x="823" y="-20" on="0"/>
        <pt x="722" y="-20" on="1"/>
        <pt x="622" y="-20" on="0"/>
        <pt x="438" y="45" on="0"/>
        <pt x="362" y="106" on="1"/>
        <pt x="233" y="-26" on="1"/>
        <pt x="92" y="118" on="1"/>
        <pt x="228" y="256" on="1"/>
        <pt x="179" y="331" on="0"/>
        <pt x="127" y="510" on="0"/>
        <pt x="127" y="608" on="1"/>
        <pt x="127" y="710" on="0"/>
        <pt x="183" y="895" on="0"/>
        <pt x="236" y="973" on="1"/>
        <pt x="92" y="1120" on="1"/>
        <pt x="233" y="1264" on="1"/>
        <pt x="375" y="1119" on="1"/>
        <pt x="450" y="1175" on="0"/>
        <pt x="626" y="1234" on="0"/>
        <pt x="722" y="1234" on="1"/>
        <pt x="819" y="1234" on="0"/>
        <pt x="996" y="1174" on="0"/>
        <pt x="1071" y="1118" on="1"/>
        <pt x="1216" y="1265" on="1"/>
        <pt x="1358" y="1120" on="1"/>
        <pt x="1211" y="970" on="1"/>
        <pt x="1262" y="893" on="0"/>
        <pt x="1317" y="709" on="0"/>
        <pt x="1317" y="608" on="1"/>
      </contour>
      <contour>
        <pt x="834" y="166" on="0"/>
        <pt x="1021" y="284" on="0"/>
        <pt x="1131" y="487" on="0"/>
        <pt x="1131" y="608" on="1"/>
        <pt x="1131" y="729" on="0"/>
        <pt x="1021" y="931" on="0"/>
        <pt x="834" y="1048" on="0"/>
        <pt x="722" y="1048" on="1"/>
        <pt x="610" y="1048" on="0"/>
        <pt x="422" y="931" on="0"/>
        <pt x="312" y="729" on="0"/>
        <pt x="312" y="608" on="1"/>
        <pt x="312" y="487" on="0"/>
        <pt x="422" y="284" on="0"/>
        <pt x="610" y="166" on="0"/>
        <pt x="722" y="166" on="1"/>
      </contour>
    </TTGlyph>
    <TTGlyph name="d" xMin="78" yMin="-20" xMax="1029" yMax="1536">
      <contour>
        <pt x="1029" y="1536" on="1"/>
        <pt x="1029" y="0" on="1"/>
        <pt x="804" y="0" on="1"/>
        <pt x="792" y="112" on="1"/>
        <pt x="684" y="-20" on="0"/>
        <pt x="503" y="-20" on="1"/>
        <pt x="375" y="-20" on="0"/>
        <pt x="182" y="122" on="0"/>
        <pt x="78" y="372" on="0"/>
        <pt x="78" y="529" on="1"/>
        <pt x="78" y="550" on="1"/>
        <pt x="78" y="714" on="0"/>
        <pt x="181" y="964" on="0"/>
        <pt x="374" y="1102" on="0"/>
        <pt x="505" y="1102" on="1"/>
        <pt x="675" y="1102" on="0"/>
        <pt x="780" y="984" on="1"/>
        <pt x="780" y="1536" on="1"/>
      </contour>
      <contour>
        <pt x="714" y="184" on="0"/>
        <pt x="780" y="314" on="1"/>
        <pt x="780" y="772" on="1"/>
        <pt x="713" y="899" on="0"/>
        <pt x="568" y="899" on="1"/>
        <pt x="446" y="899" on="0"/>
        <pt x="327" y="705" on="0"/>
        <pt x="327" y="550" on="1"/>
        <pt x="327" y="529" on="1"/>
        <pt x="327" y="375" on="0"/>
        <pt x="444" y="184" on="0"/>
        <pt x="566" y="184" on="1"/>
      </contour>
    </TTGlyph>
    <TTGlyph name="d.ss06" xMin="78" yMin="-20" xMax="1049" yMax="1536">
      <contour>
        <pt x="1049" y="1536" on="1"/>
        <pt x="1049" y="0" on="1"/>
        <pt x="834" y="0" on="1"/>
        <pt x="816" y="118" on="1"/>
        <pt x="707" y="-20" on="0"/>
        <pt x="523" y="-20" on="1"/>
        <pt x="395" y="-20" on="0"/>
        <pt x="192" y="123" on="0"/>
        <pt x="78" y="373" on="0"/>
        <pt x="78" y="529" on="1"/>
        <pt x="78" y="550" on="1"/>
        <pt x="78" y="713" on="0"/>
        <pt x="191" y="963" on="0"/>
        <pt x="394" y="1102" on="0"/>
        <pt x="525" y="1102" on="1"/>
        <pt x="696" y="1102" on="0"/>
        <pt x="800" y="984" on="1"/>
        <pt x="800" y="1536" on="1"/>
      </contour>
      <contour>
        <pt x="731" y="184" on="0"/>
        <pt x="800" y="309" on="1"/>
        <pt x="800" y="778" on="1"/>
        <pt x="767" y="836" on="0"/>
        <pt x="661" y="899" on="0"/>
        <pt x="588" y="899" on="1"/>
        <pt x="504" y="899" on="0"/>
        <pt x="387" y="809" on="0"/>
        <pt x="327" y="651" on="0"/>
        <pt x="327" y="550" on="1"/>
        <pt x="327" y="529" on="1"/>
        <pt x="327" y="432" on="0"/>
        <pt x="386" y="275" on="0"/>
        <pt x="503" y="184" on="0"/>
        <pt x="586" y="184" on="1"/>
      </contour>
    </TTGlyph>
    <TTGlyph name="degree" xMin="127" yMin="941" xMax="654" yMax="1477">
      <contour>
        <pt x="463" y="1477" on="0"/>
        <pt x="583" y="1404" on="0"/>
        <pt x="654" y="1279" on="0"/>
        <pt x="654" y="1207" on="1"/>
        <pt x="654" y="1134" on="0"/>
        <pt x="583" y="1012" on="0"/>
        <pt x="463" y="941" on="0"/>
        <pt x="393" y="941" on="1"/>
        <pt x="322" y="941" on="0"/>
        <pt x="199" y="1012" on="0"/>
        <pt x="127" y="1134" on="0"/>
        <pt x="127" y="1207" on="1"/>
        <pt x="127" y="1279" on="0"/>
        <pt x="199" y="1403" on="0"/>
        <pt x="322" y="1477" on="0"/>
        <pt x="393" y="1477" on="1"/>
      </contour>
      <contour>
        <pt x="444" y="1083" on="0"/>
        <pt x="514" y="1154" on="0"/>
        <pt x="514" y="1207" on="1"/>
        <pt x="514" y="1262" on="0"/>
        <pt x="444" y="1335" on="0"/>
        <pt x="393" y="1335" on="1"/>
        <pt x="359" y="1335" on="0"/>
        <pt x="301" y="1301" on="0"/>
        <pt x="267" y="1243" on="0"/>
        <pt x="267" y="1207" on="1"/>
        <pt x="267" y="1172" on="0"/>
        <pt x="301" y="1116" on="0"/>
        <pt x="359" y="1083" on="0"/>
        <pt x="393" y="1083" on="1"/>
      </contour>
    </TTGlyph>
    <TTGlyph name="dieresis" xMin="94" yMin="1246" xMax="811" yMax="1486">
      <contour>
        <pt x="279" y="1486" on="0"/>
        <pt x="350" y="1417" on="0"/>
        <pt x="350" y="1366" on="1"/>
        <pt x="350" y="1315" on="0"/>
        <pt x="279" y="1248" on="0"/>
        <pt x="222" y="1248" on="1"/>
        <pt x="164" y="1248" on="0"/>
        <pt x="94" y="1315" on="0"/>
        <pt x="94" y="1366" on="1"/>
        <pt x="94" y="1418" on="0"/>
        <pt x="164" y="1486" on="0"/>
        <pt x="222" y="1486" on="1"/>
      </contour>
      <contour>
        <pt x="740" y="1485" on="0"/>
        <pt x="811" y="1416" on="0"/>
        <pt x="811" y="1365" on="1"/>
        <pt x="811" y="1314" on="0"/>
        <pt x="740" y="1246" on="0"/>
        <pt x="683" y="1246" on="1"/>
        <pt x="625" y="1246" on="0"/>
        <pt x="555" y="1314" on="0"/>
        <pt x="555" y="1365" on="1"/>
        <pt x="555" y="1417" on="0"/>
        <pt x="625" y="1485" on="0"/>
        <pt x="683" y="1485" on="1"/>
      </contour>
    </TTGlyph>
    <TTGlyph name="divide" xMin="67" yMin="145" xMax="1081" yMax="1230">
      <contour>
        <pt x="644" y="1230" on="0"/>
        <pt x="722" y="1154" on="0"/>
        <pt x="722" y="1094" on="1"/>
        <pt x="722" y="1036" on="0"/>
        <pt x="644" y="960" on="0"/>
        <pt x="577" y="960" on="1"/>
        <pt x="510" y="960" on="0"/>
        <pt x="433" y="1035" on="0"/>
        <pt x="433" y="1094" on="1"/>
        <pt x="433" y="1154" on="0"/>
        <pt x="510" y="1230" on="0"/>
        <pt x="577" y="1230" on="1"/>
      </contour>
      <contour>
        <pt x="67" y="581" on="1"/>
        <pt x="67" y="796" on="1"/>
        <pt x="1081" y="796" on="1"/>
        <pt x="1081" y="581" on="1"/>
      </contour>
      <contour>
        <pt x="644" y="415" on="0"/>
        <pt x="722" y="339" on="0"/>
        <pt x="722" y="279" on="1"/>
        <pt x="722" y="220" on="0"/>
        <pt x="644" y="145" on="0"/>
        <pt x="577" y="145" on="1"/>
        <pt x="510" y="145" on="0"/>
        <pt x="433" y="220" on="0"/>
        <pt x="433" y="279" on="1"/>
        <pt x="433" y="339" on="0"/>
        <pt x="510" y="415" on="0"/>
        <pt x="577" y="415" on="1"/>
      </contour>
    </TTGlyph>
    <TTGlyph name="dollar" xMin="100" yMin="-212" xMax="1064" yMax="1691">
      <contour>
        <pt x="1064" y="210" on="0"/>
        <pt x="855" y="3" on="0"/>
        <pt x="672" y="-17" on="1"/>
        <pt x="672" y="-212" on="1"/>
        <pt x="513" y="-212" on="1"/>
        <pt x="513" y="-17" on="1"/>
        <pt x="399" y="-5" on="0"/>
        <pt x="213" y="98" on="0"/>
        <pt x="100" y="297" on="0"/>
        <pt x="100" y="445" on="1"/>
        <pt x="349" y="445" on="1"/>
        <pt x="349" y="305" on="0"/>
        <pt x="487" y="184" on="0"/>
        <pt x="588" y="184" on="1"/>
        <pt x="697" y="184" on="0"/>
        <pt x="816" y="290" on="0"/>
        <pt x="816" y="381" on="1"/>
        <pt x="816" y="466" on="0"/>
        <pt x="708" y="577" on="0"/>
        <pt x="579" y="622" on="1"/>
        <pt x="439" y="670" on="0"/>
        <pt x="257" y="784" on="0"/>
        <pt x="156" y="952" on="0"/>
        <pt x="156" y="1073" on="1"/>
        <pt x="156" y="1184" on="0"/>
        <pt x="249" y="1356" on="0"/>
        <pt x="419" y="1460" on="0"/>
        <pt x="533" y="1473" on="1"/>
        <pt x="533" y="1691" on="1"/>
        <pt x="693" y="1691" on="1"/>
        <pt x="693" y="1471" on="1"/>
        <pt x="865" y="1446" on="0"/>
        <pt x="1059" y="1204" on="0"/>
        <pt x="1059" y="1005" on="1"/>
        <pt x="810" y="1005" on="1"/>
        <pt x="810" y="1130" on="0"/>
        <pt x="701" y="1272" on="0"/>
        <pt x="604" y="1272" on="1"/>
        <pt x="504" y="1272" on="0"/>
        <pt x="404" y="1165" on="0"/>
        <pt x="404" y="1074" on="1"/>
        <pt x="404" y="1017" on="0"/>
        <pt x="449" y="936" on="0"/>
        <pt x="553" y="869" on="0"/>
        <pt x="645" y="835" on="1"/>
        <pt x="786" y="784" on="0"/>
        <pt x="966" y="670" on="0"/>
        <pt x="1064" y="503" on="0"/>
        <pt x="1064" y="383" on="1"/>
      </contour>
    </TTGlyph>
    <TTGlyph name="dollar.smcp" xMin="62" yMin="-237" xMax="1010" yMax="1395">
      <contour>
        <pt x="804" y="639" on="0"/>
        <pt x="1009" y="463" on="0"/>
        <pt x="1009" y="313" on="1"/>
        <pt x="1009" y="222" on="0"/>
        <pt x="919" y="84" on="0"/>
        <pt x="753" y="0" on="0"/>
        <pt x="640" y="-12" on="1"/>
        <pt x="640" y="-237" on="1"/>
        <pt x="480" y="-237" on="1"/>
        <pt x="480" y="-12" on="1"/>
        <pt x="366" y="0" on="0"/>
        <pt x="177" y="90" on="0"/>
        <pt x="62" y="250" on="0"/>
        <pt x="62" y="362" on="1"/>
        <pt x="312" y="362" on="1"/>
        <pt x="312" y="264" on="0"/>
        <pt x="444" y="172" on="0"/>
        <pt x="565" y="172" on="1"/>
        <pt x="665" y="172" on="0"/>
        <pt x="767" y="249" on="0"/>
        <pt x="767" y="307" on="1"/>
        <pt x="767" y="350" on="0"/>
        <pt x="725" y="411" on="0"/>
        <pt x="622" y="461" on="0"/>
        <pt x="529" y="483" on="1"/>
        <pt x="384" y="518" on="0"/>
        <pt x="198" y="610" on="0"/>
        <pt x="102" y="748" on="0"/>
        <pt x="102" y="847" on="1"/>
        <pt x="102" y="936" on="0"/>
        <pt x="196" y="1079" on="0"/>
        <pt x="368" y="1168" on="0"/>
        <pt x="480" y="1178" on="1"/>
        <pt x="480" y="1395" on="1"/>
        <pt x="640" y="1395" on="1"/>
        <pt x="640" y="1175" on="1"/>
        <pt x="753" y="1160" on="0"/>
        <pt x="920" y="1064" on="0"/>
        <pt x="1010" y="914" on="0"/>
        <pt x="1010" y="821" on="1"/>
        <pt x="761" y="821" on="1"/>
        <pt x="761" y="896" on="0"/>
        <pt x="649" y="992" on="0"/>
        <pt x="544" y="992" on="1"/>
        <pt x="445" y="992" on="0"/>
        <pt x="343" y="912" on="0"/>
        <pt x="343" y="853" on="1"/>
        <pt x="343" y="815" on="0"/>
        <pt x="392" y="758" on="0"/>
        <pt x="498" y="712" on="0"/>
        <pt x="590" y="689" on="1"/>
      </contour>
    </TTGlyph>
    <TTGlyph name="dotlessi" xMin="143" yMin="0" xMax="392" yMax="1082">
      <contour>
        <pt x="143" y="0" on="1"/>
        <pt x="143" y="1082" on="1"/>
        <pt x="392" y="1082" on="1"/>
        <pt x="392" y="0" on="1"/>
      </contour>
    </TTGlyph>
    <TTGlyph name="e" xMin="82" yMin="-20" xMax="1038" yMax="1102">
      <contour>
        <pt x="1038" y="463" on="1"/>
        <pt x="333" y="463" on="1"/>
        <pt x="340" y="380" on="0"/>
        <pt x="412" y="252" on="0"/>
        <pt x="535" y="180" on="0"/>
        <pt x="617" y="180" on="1"/>
        <pt x="785" y="180" on="0"/>
        <pt x="887" y="312" on="1"/>
        <pt x="1020" y="183" on="1"/>
        <pt x="961" y="96" on="0"/>
        <pt x="751" y="-20" on="0"/>
        <pt x="602" y="-20" on="1"/>
        <pt x="444" y="-20" on="0"/>
        <pt x="208" y="117" on="0"/>
        <pt x="82" y="355" on="0"/>
        <pt x="82" y="503" on="1"/>
        <pt x="82" y="544" on="1"/>
        <pt x="82" y="711" on="0"/>
        <pt x="210" y="964" on="0"/>
        <pt x="434" y="1102" on="0"/>
        <pt x="574" y="1102" on="1"/>
        <pt x="727" y="1102" on="0"/>
        <pt x="935" y="968" on="0"/>
        <pt x="1038" y="727" on="0"/>
        <pt x="1038" y="568" on="1"/>
      </contour>
      <contour>
        <pt x="792" y="662" on="1"/>
        <pt x="787" y="767" on="0"/>
        <pt x="683" y="902" on="0"/>
        <pt x="573" y="902" on="1"/>
        <pt x="475" y="902" on="0"/>
        <pt x="355" y="766" on="0"/>
        <pt x="338" y="643" on="1"/>
        <pt x="792" y="643" on="1"/>
      </contour>
    </TTGlyph>
    <TTGlyph name="e.ss07" xMin="82" yMin="-20" xMax="1038" yMax="1102">
      <contour>
        <pt x="1038" y="463" on="1"/>
        <pt x="334" y="463" on="1"/>
        <pt x="348" y="335" on="0"/>
        <pt x="514" y="180" on="0"/>
        <pt x="657" y="180" on="1"/>
        <pt x="735" y="180" on="0"/>
        <pt x="884" y="224" on="0"/>
        <pt x="937" y="258" on="1"/>
        <pt x="995" y="87" on="1"/>
        <pt x="935" y="42" on="0"/>
        <pt x="751" y="-20" on="0"/>
        <pt x="630" y="-20" on="1"/>
        <pt x="465" y="-20" on="0"/>
        <pt x="216" y="118" on="0"/>
        <pt x="82" y="362" on="0"/>
        <pt x="82" y="515" on="1"/>
        <pt x="82" y="556" on="1"/>
        <pt x="82" y="719" on="0"/>
        <pt x="210" y="967" on="0"/>
        <pt x="434" y="1102" on="0"/>
        <pt x="574" y="1102" on="1"/>
        <pt x="727" y="1102" on="0"/>
        <pt x="935" y="974" on="0"/>
        <pt x="1038" y="745" on="0"/>
        <pt x="1038" y="592" on="1"/>
      </contour>
      <contour>
        <pt x="792" y="668" on="1"/>
        <pt x="792" y="772" on="0"/>
        <pt x="687" y="902" on="0"/>
        <pt x="574" y="902" on="1"/>
        <pt x="475" y="902" on="0"/>
        <pt x="352" y="765" on="0"/>
        <pt x="336" y="643" on="1"/>
        <pt x="792" y="643" on="1"/>
      </contour>
    </TTGlyph>
    <TTGlyph name="eacute" xMin="82" yMin="-20" xMax="1038" yMax="1536">
      <component glyphName=".ttfautohint" x="82" y="0" flags="0x0"/>
      <component glyphName="e" x="0" y="0" flags="0x0"/>
      <component glyphName="acutecomb" x="1107" y="0" flags="0x0"/>
    </TTGlyph>
    <TTGlyph name="ecircumflex" xMin="82" yMin="-20" xMax="1038" yMax="1537">
      <component glyphName=".ttfautohint" x="82" y="0" flags="0x0"/>
      <component glyphName="e" x="0" y="0" flags="0x0"/>
      <component glyphName="circumflex" x="62" y="0" flags="0x0"/>
    </TTGlyph>
    <TTGlyph name="edieresis" xMin="82" yMin="-20" xMax="1038" yMax="1486">
      <component glyphName=".ttfautohint" x="82" y="0" flags="0x0"/>
      <component glyphName="e" x="0" y="0" flags="0x0"/>
      <component glyphName="dieresis" x="103" y="0" flags="0x0"/>
    </TTGlyph>
    <TTGlyph name="egrave" xMin="82" yMin="-20" xMax="1038" yMax="1536">
      <component glyphName=".ttfautohint" x="82" y="0" flags="0x0"/>
      <component glyphName="e" x="0" y="0" flags="0x0"/>
      <component glyphName="gravecomb" x="1089" y="0" flags="0x0"/>
    </TTGlyph>
    <TTGlyph name="eight" xMin="104" yMin="-20" xMax="1062" yMax="1476">
      <contour>
        <pt x="937" y="700" on="0"/>
        <pt x="1062" y="516" on="0"/>
        <pt x="1062" y="397" on="1"/>
        <pt x="1062" y="265" on="0"/>
        <pt x="938" y="77" on="0"/>
        <pt x="721" y="-20" on="0"/>
        <pt x="583" y="-20" on="1"/>
        <pt x="445" y="-20" on="0"/>
        <pt x="228" y="77" on="0"/>
        <pt x="104" y="265" on="0"/>
        <pt x="104" y="397" on="1"/>
        <pt x="104" y="516" on="0"/>
        <pt x="228" y="701" on="0"/>
        <pt x="337" y="751" on="1"/>
        <pt x="243" y="800" on="0"/>
        <pt x="136" y="968" on="0"/>
        <pt x="136" y="1072" on="1"/>
        <pt x="136" y="1199" on="0"/>
        <pt x="250" y="1381" on="0"/>
        <pt x="452" y="1476" on="0"/>
        <pt x="583" y="1476" on="1"/>
        <pt x="714" y="1476" on="0"/>
        <pt x="916" y="1381" on="0"/>
        <pt x="1030" y="1199" on="0"/>
        <pt x="1030" y="1072" on="1"/>
        <pt x="1030" y="968" on="0"/>
        <pt x="922" y="799" on="0"/>
        <pt x="827" y="750" on="1"/>
      </contour>
      <contour>
        <pt x="492" y="1276" on="0"/>
        <pt x="385" y="1161" on="0"/>
        <pt x="385" y="1063" on="1"/>
        <pt x="385" y="966" on="0"/>
        <pt x="492" y="848" on="0"/>
        <pt x="583" y="848" on="1"/>
        <pt x="675" y="848" on="0"/>
        <pt x="781" y="965" on="0"/>
        <pt x="781" y="1063" on="1"/>
        <pt x="781" y="1158" on="0"/>
        <pt x="674" y="1276" on="0"/>
        <pt x="583" y="1276" on="1"/>
      </contour>
      <contour>
        <pt x="690" y="180" on="0"/>
        <pt x="812" y="303" on="0"/>
        <pt x="812" y="411" on="1"/>
        <pt x="812" y="482" on="0"/>
        <pt x="755" y="589" on="0"/>
        <pt x="650" y="648" on="0"/>
        <pt x="581" y="648" on="1"/>
        <pt x="512" y="648" on="0"/>
        <pt x="409" y="589" on="0"/>
        <pt x="353" y="482" on="0"/>
        <pt x="353" y="411" on="1"/>
        <pt x="353" y="303" on="0"/>
        <pt x="476" y="180" on="0"/>
        <pt x="583" y="180" on="1"/>
      </contour>
    </TTGlyph>
    <TTGlyph name="eight.frac" xMin="75" yMin="653" xMax="683" yMax="1464">
      <component glyphName=".ttfautohint" x="75" y="653" flags="0x0"/>
      <component glyphName="eight.sup" x="0" y="664" flags="0x4"/>
    </TTGlyph>
    <TTGlyph name="eight.smcp" xMin="88" yMin="-16" xMax="966" yMax="1181">
      <contour>
        <pt x="860" y="559" on="0"/>
        <pt x="966" y="415" on="0"/>
        <pt x="966" y="320" on="1"/>
        <pt x="966" y="212" on="0"/>
        <pt x="853" y="61" on="0"/>
        <pt x="654" y="-16" on="0"/>
        <pt x="527" y="-16" on="1"/>
        <pt x="400" y="-16" on="0"/>
        <pt x="202" y="61" on="0"/>
        <pt x="88" y="212" on="0"/>
        <pt x="88" y="320" on="1"/>
        <pt x="88" y="415" on="0"/>
        <pt x="193" y="560" on="0"/>
        <pt x="287" y="601" on="1"/>
        <pt x="206" y="641" on="0"/>
        <pt x="116" y="771" on="0"/>
        <pt x="116" y="854" on="1"/>
        <pt x="116" y="958" on="0"/>
        <pt x="220" y="1105" on="0"/>
        <pt x="405" y="1181" on="0"/>
        <pt x="525" y="1181" on="1"/>
        <pt x="646" y="1181" on="0"/>
        <pt x="833" y="1105" on="0"/>
        <pt x="938" y="958" on="0"/>
        <pt x="938" y="854" on="1"/>
        <pt x="938" y="771" on="0"/>
        <pt x="848" y="640" on="0"/>
        <pt x="767" y="600" on="1"/>
      </contour>
      <contour>
        <pt x="451" y="981" on="0"/>
        <pt x="366" y="906" on="0"/>
        <pt x="366" y="841" on="1"/>
        <pt x="366" y="775" on="0"/>
        <pt x="452" y="696" on="0"/>
        <pt x="527" y="696" on="1"/>
        <pt x="603" y="696" on="0"/>
        <pt x="689" y="775" on="0"/>
        <pt x="689" y="841" on="1"/>
        <pt x="689" y="905" on="0"/>
        <pt x="601" y="981" on="0"/>
        <pt x="525" y="981" on="1"/>
      </contour>
      <contour>
        <pt x="614" y="184" on="0"/>
        <pt x="718" y="268" on="0"/>
        <pt x="718" y="340" on="1"/>
        <pt x="718" y="413" on="0"/>
        <pt x="612" y="496" on="0"/>
        <pt x="525" y="496" on="1"/>
        <pt x="439" y="496" on="0"/>
        <pt x="337" y="413" on="0"/>
        <pt x="337" y="340" on="1"/>
        <pt x="337" y="268" on="0"/>
        <pt x="440" y="184" on="0"/>
        <pt x="527" y="184" on="1"/>
      </contour>
    </TTGlyph>
    <TTGlyph name="eight.sup" xMin="75" yMin="-11" xMax="683" yMax="800">
      <contour>
        <pt x="613" y="378" on="0"/>
        <pt x="683" y="282" on="0"/>
        <pt x="683" y="218" on="1"/>
        <pt x="683" y="107" on="0"/>
        <pt x="516" y="-11" on="0"/>
        <pt x="380" y="-11" on="1"/>
        <pt x="244" y="-11" on="0"/>
        <pt x="75" y="107" on="0"/>
        <pt x="75" y="218" on="1"/>
        <pt x="75" y="282" on="0"/>
        <pt x="146" y="379" on="0"/>
        <pt x="208" y="407" on="1"/>
        <pt x="154" y="434" on="0"/>
        <pt x="94" y="521" on="0"/>
        <pt x="94" y="577" on="1"/>
        <pt x="94" y="684" on="0"/>
        <pt x="250" y="800" on="0"/>
        <pt x="378" y="800" on="1"/>
        <pt x="508" y="800" on="0"/>
        <pt x="665" y="684" on="0"/>
        <pt x="665" y="577" on="1"/>
        <pt x="665" y="521" on="0"/>
        <pt x="605" y="433" on="0"/>
        <pt x="551" y="406" on="1"/>
      </contour>
      <contour>
        <pt x="333" y="649" on="0"/>
        <pt x="283" y="605" on="0"/>
        <pt x="283" y="565" on="1"/>
        <pt x="283" y="526" on="0"/>
        <pt x="334" y="479" on="0"/>
        <pt x="380" y="479" on="1"/>
        <pt x="426" y="479" on="0"/>
        <pt x="476" y="526" on="0"/>
        <pt x="476" y="565" on="1"/>
        <pt x="476" y="604" on="0"/>
        <pt x="425" y="649" on="0"/>
        <pt x="378" y="649" on="1"/>
      </contour>
      <contour>
        <pt x="432" y="140" on="0"/>
        <pt x="495" y="191" on="0"/>
        <pt x="495" y="235" on="1"/>
        <pt x="495" y="278" on="0"/>
        <pt x="431" y="327" on="0"/>
        <pt x="378" y="327" on="1"/>
        <pt x="326" y="327" on="0"/>
        <pt x="264" y="279" on="0"/>
        <pt x="264" y="235" on="1"/>
        <pt x="264" y="191" on="0"/>
        <pt x="327" y="140" on="0"/>
        <pt x="380" y="140" on="1"/>
      </contour>
    </TTGlyph>
    <TTGlyph name="eight.tnum" xMin="104" yMin="-20" xMax="1062" yMax="1476">
      <component glyphName=".ttfautohint" x="104" y="0" flags="0x0"/>
      <component glyphName="eight" x="0" y="0" flags="0x0"/>
    </TTGlyph>
    <TTGlyph name="ellipsis" xMin="138" yMin="-12" xMax="1330" yMax="262">
      <component glyphName=".ttfautohint" x="138" y="0" flags="0x0"/>
      <component glyphName="period" x="4" y="0" flags="0x0"/>
      <component glyphName="period" x="463" y="0" flags="0x0"/>
      <component glyphName="period" x="907" y="0" flags="0x0"/>
    </TTGlyph>
    <TTGlyph name="emdash" xMin="126" yMin="618" xMax="1488" yMax="820">
      <component glyphName=".ttfautohint" x="126" y="618" flags="0x0"/>
      <component glyphName="minus" x="-125" y="0" scalex="1.6" scaley="1.0" flags="0x0"/>
    </TTGlyph>
    <TTGlyph name="endash" xMin="156" yMin="618" xMax="1178" yMax="820">
      <component glyphName=".ttfautohint" x="156" y="618" flags="0x0"/>
      <component glyphName="minus" x="-32" y="0" scalex="1.2" scaley="1.0" flags="0x0"/>
    </TTGlyph>
    <TTGlyph name="equal" xMin="144" yMin="351" xMax="1011" yMax="982">
      <contour>
        <pt x="144" y="776" on="1"/>
        <pt x="144" y="982" on="1"/>
        <pt x="1011" y="982" on="1"/>
        <pt x="1011" y="776" on="1"/>
      </contour>
      <contour>
        <pt x="144" y="351" on="1"/>
        <pt x="144" y="557" on="1"/>
        <pt x="1011" y="557" on="1"/>
        <pt x="1011" y="351" on="1"/>
      </contour>
    </TTGlyph>
    <TTGlyph name="eth" xMin="101" yMin="-20" xMax="1091" yMax="1580">
      <contour>
        <pt x="958" y="1179" on="0"/>
        <pt x="1091" y="842" on="0"/>
        <pt x="1091" y="643" on="1"/>
        <pt x="1091" y="558" on="1"/>
        <pt x="1091" y="389" on="0"/>
        <pt x="962" y="126" on="0"/>
        <pt x="735" y="-20" on="0"/>
        <pt x="593" y="-20" on="1"/>
        <pt x="450" y="-20" on="0"/>
        <pt x="226" y="109" on="0"/>
        <pt x="101" y="333" on="0"/>
        <pt x="101" y="468" on="1"/>
        <pt x="101" y="618" on="0"/>
        <pt x="213" y="847" on="0"/>
        <pt x="417" y="972" on="0"/>
        <pt x="552" y="972" on="1"/>
        <pt x="624" y="972" on="0"/>
        <pt x="756" y="926" on="0"/>
        <pt x="809" y="884" on="1"/>
        <pt x="759" y="1051" on="0"/>
        <pt x="635" y="1172" on="1"/>
        <pt x="433" y="1038" on="1"/>
        <pt x="355" y="1147" on="1"/>
        <pt x="525" y="1259" on="1"/>
        <pt x="400" y="1340" on="0"/>
        <pt x="239" y="1381" on="1"/>
        <pt x="317" y="1580" on="1"/>
        <pt x="556" y="1530" on="0"/>
        <pt x="733" y="1396" on="1"/>
        <pt x="911" y="1514" on="1"/>
        <pt x="988" y="1405" on="1"/>
        <pt x="836" y="1305" on="1"/>
      </contour>
      <contour>
        <pt x="842" y="645" on="1"/>
        <pt x="842" y="667" on="0"/>
        <pt x="841" y="678" on="1"/>
        <pt x="811" y="722" on="0"/>
        <pt x="693" y="780" on="0"/>
        <pt x="610" y="780" on="1"/>
        <pt x="485" y="780" on="0"/>
        <pt x="350" y="614" on="0"/>
        <pt x="350" y="468" on="1"/>
        <pt x="350" y="392" on="0"/>
        <pt x="409" y="260" on="0"/>
        <pt x="521" y="180" on="0"/>
        <pt x="597" y="180" on="1"/>
        <pt x="673" y="180" on="0"/>
        <pt x="784" y="274" on="0"/>
        <pt x="842" y="438" on="0"/>
        <pt x="842" y="542" on="1"/>
      </contour>
    </TTGlyph>
    <TTGlyph name="exclam" xMin="141" yMin="-14" xMax="423" yMax="1456">
      <contour>
        <pt x="173" y="432" on="1"/>
        <pt x="148" y="1456" on="1"/>
        <pt x="411" y="1456" on="1"/>
        <pt x="386" y="432" on="1"/>
      </contour>
      <contour>
        <pt x="346" y="253" on="0"/>
        <pt x="423" y="177" on="0"/>
        <pt x="423" y="119" on="1"/>
        <pt x="423" y="61" on="0"/>
        <pt x="347" y="-14" on="0"/>
        <pt x="282" y="-14" on="1"/>
        <pt x="217" y="-14" on="0"/>
        <pt x="141" y="61" on="0"/>
        <pt x="141" y="119" on="1"/>
        <pt x="141" y="177" on="0"/>
        <pt x="217" y="253" on="0"/>
        <pt x="282" y="253" on="1"/>
      </contour>
    </TTGlyph>
    <TTGlyph name="exclamdown" xMin="133" yMin="-365" xMax="415" yMax="1101">
      <contour>
        <pt x="210" y="834" on="0"/>
        <pt x="133" y="910" on="0"/>
        <pt x="133" y="968" on="1"/>
        <pt x="133" y="1026" on="0"/>
        <pt x="210" y="1101" on="0"/>
        <pt x="275" y="1101" on="1"/>
        <pt x="339" y="1101" on="0"/>
        <pt x="415" y="1026" on="0"/>
        <pt x="415" y="968" on="1"/>
        <pt x="415" y="910" on="0"/>
        <pt x="339" y="834" on="0"/>
        <pt x="275" y="834" on="1"/>
      </contour>
      <contour>
        <pt x="384" y="659" on="1"/>
        <pt x="409" y="-365" on="1"/>
        <pt x="145" y="-365" on="1"/>
        <pt x="170" y="659" on="1"/>
      </contour>
    </TTGlyph>
    <TTGlyph name="f" xMin="43" yMin="0" xMax="728" yMax="1557">
      <contour>
        <pt x="547" y="1353" on="0"/>
        <pt x="457" y="1265" on="0"/>
        <pt x="457" y="1184" on="1"/>
        <pt x="457" y="1082" on="1"/>
        <pt x="676" y="1082" on="1"/>
        <pt x="676" y="898" on="1"/>
        <pt x="457" y="898" on="1"/>
        <pt x="457" y="0" on="1"/>
        <pt x="208" y="0" on="1"/>
        <pt x="208" y="898" on="1"/>
        <pt x="43" y="898" on="1"/>
        <pt x="43" y="1082" on="1"/>
        <pt x="208" y="1082" on="1"/>
        <pt x="208" y="1184" on="1"/>
        <pt x="208" y="1303" on="0"/>
        <pt x="300" y="1471" on="0"/>
        <pt x="472" y="1557" on="0"/>
        <pt x="590" y="1557" on="1"/>
        <pt x="656" y="1557" on="0"/>
        <pt x="728" y="1539" on="1"/>
        <pt x="722" y="1344" on="1"/>
        <pt x="683" y="1353" on="0"/>
        <pt x="629" y="1353" on="1"/>
      </contour>
    </TTGlyph>
    <TTGlyph name="f_f" xMin="43" yMin="0" xMax="1455" yMax="1557">
      <component glyphName=".ttfautohint" x="43" y="0" flags="0x0"/>
      <component glyphName="f" x="0" y="0" flags="0x0"/>
      <component glyphName="f" x="727" y="0" flags="0x0"/>
    </TTGlyph>
    <TTGlyph name="f_f_i" xMin="43" yMin="0" xMax="1695" yMax="1557">
      <contour>
        <pt x="1076" y="1082" on="1"/>
        <pt x="1289" y="1082" on="1"/>
        <pt x="1289" y="898" on="1"/>
        <pt x="1076" y="898" on="1"/>
        <pt x="1076" y="0" on="1"/>
        <pt x="827" y="0" on="1"/>
        <pt x="827" y="898" on="1"/>
        <pt x="457" y="898" on="1"/>
        <pt x="457" y="0" on="1"/>
        <pt x="208" y="0" on="1"/>
        <pt x="208" y="898" on="1"/>
        <pt x="43" y="898" on="1"/>
        <pt x="43" y="1082" on="1"/>
        <pt x="208" y="1082" on="1"/>
        <pt x="208" y="1184" on="1"/>
        <pt x="208" y="1303" on="0"/>
        <pt x="300" y="1471" on="0"/>
        <pt x="472" y="1557" on="0"/>
        <pt x="590" y="1557" on="1"/>
        <pt x="656" y="1557" on="0"/>
        <pt x="728" y="1539" on="1"/>
        <pt x="722" y="1344" on="1"/>
        <pt x="683" y="1353" on="0"/>
        <pt x="629" y="1353" on="1"/>
        <pt x="547" y="1353" on="0"/>
        <pt x="457" y="1265" on="0"/>
        <pt x="457" y="1184" on="1"/>
        <pt x="457" y="1082" on="1"/>
        <pt x="827" y="1082" on="1"/>
        <pt x="827" y="1148" on="1"/>
        <pt x="827" y="1279" on="0"/>
        <pt x="932" y="1463" on="0"/>
        <pt x="1131" y="1557" on="0"/>
        <pt x="1269" y="1557" on="1"/>
        <pt x="1342" y="1557" on="0"/>
        <pt x="1486" y="1527" on="0"/>
        <pt x="1578" y="1497" on="1"/>
        <pt x="1540" y="1292" on="1"/>
        <pt x="1475" y="1314" on="0"/>
        <pt x="1357" y="1339" on="0"/>
        <pt x="1286" y="1339" on="1"/>
        <pt x="1178" y="1339" on="0"/>
        <pt x="1076" y="1244" on="0"/>
        <pt x="1076" y="1148" on="1"/>
      </contour>
      <contour>
        <pt x="1695" y="1082" on="1"/>
        <pt x="1695" y="0" on="1"/>
        <pt x="1446" y="0" on="1"/>
        <pt x="1446" y="1082" on="1"/>
      </contour>
    </TTGlyph>
    <TTGlyph name="f_f_l" xMin="43" yMin="0" xMax="1695" yMax="1557">
      <contour>
        <pt x="1314" y="1557" on="0"/>
        <pt x="1572" y="1530" on="0"/>
        <pt x="1695" y="1512" on="1"/>
        <pt x="1695" y="0" on="1"/>
        <pt x="1446" y="0" on="1"/>
        <pt x="1446" y="1340" on="1"/>
        <pt x="1339" y="1353" on="0"/>
        <pt x="1272" y="1353" on="1"/>
        <pt x="1176" y="1353" on="0"/>
        <pt x="1076" y="1262" on="0"/>
        <pt x="1076" y="1176" on="1"/>
        <pt x="1076" y="1082" on="1"/>
        <pt x="1295" y="1082" on="1"/>
        <pt x="1295" y="898" on="1"/>
        <pt x="1076" y="898" on="1"/>
        <pt x="1076" y="0" on="1"/>
        <pt x="827" y="0" on="1"/>
        <pt x="827" y="898" on="1"/>
        <pt x="457" y="898" on="1"/>
        <pt x="457" y="0" on="1"/>
        <pt x="208" y="0" on="1"/>
        <pt x="208" y="898" on="1"/>
        <pt x="43" y="898" on="1"/>
        <pt x="43" y="1082" on="1"/>
        <pt x="208" y="1082" on="1"/>
        <pt x="208" y="1184" on="1"/>
        <pt x="208" y="1303" on="0"/>
        <pt x="300" y="1471" on="0"/>
        <pt x="472" y="1557" on="0"/>
        <pt x="590" y="1557" on="1"/>
        <pt x="656" y="1557" on="0"/>
        <pt x="728" y="1539" on="1"/>
        <pt x="722" y="1344" on="1"/>
        <pt x="683" y="1353" on="0"/>
        <pt x="629" y="1353" on="1"/>
        <pt x="547" y="1353" on="0"/>
        <pt x="457" y="1265" on="0"/>
        <pt x="457" y="1184" on="1"/>
        <pt x="457" y="1082" on="1"/>
        <pt x="827" y="1082" on="1"/>
        <pt x="827" y="1176" on="1"/>
        <pt x="827" y="1360" on="0"/>
        <pt x="1044" y="1557" on="0"/>
        <pt x="1243" y="1557" on="1"/>
      </contour>
    </TTGlyph>
    <TTGlyph name="f_l" xMin="43" yMin="0" xMax="1076" yMax="1557">
      <contour>
        <pt x="695" y="1557" on="0"/>
        <pt x="953" y="1530" on="0"/>
        <pt x="1076" y="1512" on="1"/>
        <pt x="1076" y="0" on="1"/>
        <pt x="827" y="0" on="1"/>
        <pt x="827" y="1340" on="1"/>
        <pt x="720" y="1353" on="0"/>
        <pt x="653" y="1353" on="1"/>
        <pt x="557" y="1353" on="0"/>
        <pt x="457" y="1262" on="0"/>
        <pt x="457" y="1176" on="1"/>
        <pt x="457" y="1082" on="1"/>
        <pt x="676" y="1082" on="1"/>
        <pt x="676" y="898" on="1"/>
        <pt x="457" y="898" on="1"/>
        <pt x="457" y="0" on="1"/>
        <pt x="208" y="0" on="1"/>
        <pt x="208" y="898" on="1"/>
        <pt x="43" y="898" on="1"/>
        <pt x="43" y="1082" on="1"/>
        <pt x="208" y="1082" on="1"/>
        <pt x="208" y="1176" on="1"/>
        <pt x="208" y="1360" on="0"/>
        <pt x="425" y="1557" on="0"/>
        <pt x="624" y="1557" on="1"/>
      </contour>
    </TTGlyph>
    <TTGlyph name="fi" xMin="24" yMin="0" xMax="1057" yMax="1557">
      <contour>
        <pt x="438" y="1082" on="1"/>
        <pt x="651" y="1082" on="1"/>
        <pt x="651" y="898" on="1"/>
        <pt x="438" y="898" on="1"/>
        <pt x="438" y="0" on="1"/>
        <pt x="189" y="0" on="1"/>
        <pt x="189" y="898" on="1"/>
        <pt x="24" y="898" on="1"/>
        <pt x="24" y="1082" on="1"/>
        <pt x="189" y="1082" on="1"/>
        <pt x="189" y="1148" on="1"/>
        <pt x="189" y="1345" on="0"/>
        <pt x="422" y="1557" on="0"/>
        <pt x="631" y="1557" on="1"/>
        <pt x="704" y="1557" on="0"/>
        <pt x="846" y="1527" on="0"/>
        <pt x="940" y="1497" on="1"/>
        <pt x="901" y="1292" on="1"/>
        <pt x="838" y="1313" on="0"/>
        <pt x="718" y="1339" on="0"/>
        <pt x="648" y="1339" on="1"/>
        <pt x="540" y="1339" on="0"/>
        <pt x="438" y="1244" on="0"/>
        <pt x="438" y="1148" on="1"/>
      </contour>
      <contour>
        <pt x="1057" y="1082" on="1"/>
        <pt x="1057" y="0" on="1"/>
        <pt x="808" y="0" on="1"/>
        <pt x="808" y="1082" on="1"/>
      </contour>
    </TTGlyph>
    <TTGlyph name="five" xMin="126" yMin="-20" xMax="1083" yMax="1456">
      <contour>
        <pt x="250" y="1456" on="1"/>
        <pt x="1036" y="1456" on="1"/>
        <pt x="1036" y="1243" on="1"/>
        <pt x="456" y="1243" on="1"/>
        <pt x="417" y="899" on="1"/>
        <pt x="459" y="922" on="0"/>
        <pt x="576" y="956" on="0"/>
        <pt x="644" y="956" on="1"/>
        <pt x="781" y="956" on="0"/>
        <pt x="978" y="838" on="0"/>
        <pt x="1083" y="617" on="0"/>
        <pt x="1083" y="466" on="1"/>
        <pt x="1083" y="328" on="0"/>
        <pt x="976" y="108" on="0"/>
        <pt x="760" y="-20" on="0"/>
        <pt x="603" y="-20" on="1"/>
        <pt x="478" y="-20" on="0"/>
        <pt x="266" y="77" on="0"/>
        <pt x="134" y="264" on="0"/>
        <pt x="126" y="395" on="1"/>
        <pt x="368" y="395" on="1"/>
        <pt x="381" y="292" on="0"/>
        <pt x="503" y="180" on="0"/>
        <pt x="602" y="180" on="1"/>
        <pt x="716" y="180" on="0"/>
        <pt x="835" y="340" on="0"/>
        <pt x="835" y="474" on="1"/>
        <pt x="835" y="602" on="0"/>
        <pt x="702" y="757" on="0"/>
        <pt x="579" y="757" on="1"/>
        <pt x="526" y="757" on="0"/>
        <pt x="451" y="736" on="0"/>
        <pt x="400" y="701" on="0"/>
        <pt x="369" y="672" on="1"/>
        <pt x="170" y="722" on="1"/>
      </contour>
    </TTGlyph>
    <TTGlyph name="five.frac" xMin="78" yMin="653" xMax="687" yMax="1453">
      <component glyphName=".ttfautohint" x="78" y="653" flags="0x0"/>
      <component glyphName="five.sup" x="0" y="664" flags="0x4"/>
    </TTGlyph>
    <TTGlyph name="five.smcp" xMin="100" yMin="-16" xMax="979" yMax="1165">
      <contour>
        <pt x="206" y="1165" on="1"/>
        <pt x="917" y="1165" on="1"/>
        <pt x="917" y="962" on="1"/>
        <pt x="412" y="962" on="1"/>
        <pt x="379" y="723" on="1"/>
        <pt x="418" y="740" on="0"/>
        <pt x="522" y="766" on="0"/>
        <pt x="580" y="766" on="1"/>
        <pt x="705" y="766" on="0"/>
        <pt x="885" y="675" on="0"/>
        <pt x="979" y="502" on="0"/>
        <pt x="979" y="382" on="1"/>
        <pt x="979" y="273" on="0"/>
        <pt x="882" y="92" on="0"/>
        <pt x="684" y="-16" on="0"/>
        <pt x="541" y="-16" on="1"/>
        <pt x="427" y="-16" on="0"/>
        <pt x="229" y="64" on="0"/>
        <pt x="106" y="217" on="0"/>
        <pt x="100" y="321" on="1"/>
        <pt x="345" y="321" on="1"/>
        <pt x="361" y="184" on="0"/>
        <pt x="541" y="184" on="1"/>
        <pt x="637" y="184" on="0"/>
        <pt x="730" y="295" on="0"/>
        <pt x="730" y="386" on="1"/>
        <pt x="730" y="476" on="0"/>
        <pt x="618" y="584" on="0"/>
        <pt x="517" y="584" on="1"/>
        <pt x="469" y="584" on="0"/>
        <pt x="401" y="567" on="0"/>
        <pt x="360" y="543" on="0"/>
        <pt x="331" y="522" on="1"/>
        <pt x="132" y="571" on="1"/>
      </contour>
    </TTGlyph>
    <TTGlyph name="five.sup" xMin="78" yMin="-11" xMax="687" yMax="789">
      <contour>
        <pt x="149" y="789" on="1"/>
        <pt x="643" y="789" on="1"/>
        <pt x="643" y="638" on="1"/>
        <pt x="304" y="638" on="1"/>
        <pt x="283" y="492" on="1"/>
        <pt x="354" y="519" on="0"/>
        <pt x="416" y="519" on="1"/>
        <pt x="545" y="519" on="0"/>
        <pt x="687" y="385" on="0"/>
        <pt x="687" y="263" on="1"/>
        <pt x="687" y="189" on="0"/>
        <pt x="619" y="65" on="0"/>
        <pt x="482" y="-11" on="0"/>
        <pt x="383" y="-11" on="1"/>
        <pt x="304" y="-11" on="0"/>
        <pt x="166" y="46" on="0"/>
        <pt x="80" y="151" on="0"/>
        <pt x="78" y="221" on="1"/>
        <pt x="266" y="221" on="1"/>
        <pt x="272" y="140" on="0"/>
        <pt x="383" y="140" on="1"/>
        <pt x="444" y="140" on="0"/>
        <pt x="498" y="208" on="0"/>
        <pt x="498" y="264" on="1"/>
        <pt x="498" y="320" on="0"/>
        <pt x="430" y="386" on="0"/>
        <pt x="367" y="386" on="1"/>
        <pt x="322" y="386" on="0"/>
        <pt x="271" y="365" on="0"/>
        <pt x="248" y="347" on="1"/>
        <pt x="97" y="384" on="1"/>
      </contour>
    </TTGlyph>
    <TTGlyph name="four" xMin="53" yMin="0" xMax="1114" yMax="1456">
      <contour>
        <pt x="1114" y="323" on="1"/>
        <pt x="934" y="323" on="1"/>
        <pt x="934" y="0" on="1"/>
        <pt x="685" y="0" on="1"/>
        <pt x="685" y="323" on="1"/>
        <pt x="60" y="323" on="1"/>
        <pt x="53" y="475" on="1"/>
        <pt x="678" y="1456" on="1"/>
        <pt x="934" y="1456" on="1"/>
        <pt x="934" y="523" on="1"/>
        <pt x="1114" y="523" on="1"/>
      </contour>
      <contour>
        <pt x="685" y="523" on="1"/>
        <pt x="685" y="1119" on="1"/>
        <pt x="667" y="1087" on="1"/>
        <pt x="312" y="523" on="1"/>
      </contour>
    </TTGlyph>
    <TTGlyph name="four.frac" xMin="53" yMin="664" xMax="703" yMax="1453">
      <component glyphName=".ttfautohint" x="53" y="664" flags="0x0"/>
      <component glyphName="four.sup" x="0" y="664" flags="0x4"/>
    </TTGlyph>
    <TTGlyph name="four.smcp" xMin="49" yMin="0" xMax="1006" yMax="1165">
      <contour>
        <pt x="1006" y="248" on="1"/>
        <pt x="853" y="248" on="1"/>
        <pt x="853" y="0" on="1"/>
        <pt x="604" y="0" on="1"/>
        <pt x="604" y="248" on="1"/>
        <pt x="59" y="248" on="1"/>
        <pt x="49" y="406" on="1"/>
        <pt x="600" y="1165" on="1"/>
        <pt x="853" y="1165" on="1"/>
        <pt x="853" y="448" on="1"/>
        <pt x="1006" y="448" on="1"/>
      </contour>
      <contour>
        <pt x="604" y="448" on="1"/>
        <pt x="604" y="848" on="1"/>
        <pt x="585" y="816" on="1"/>
        <pt x="297" y="448" on="1"/>
      </contour>
    </TTGlyph>
    <TTGlyph name="four.sup" xMin="53" yMin="0" xMax="703" yMax="789">
      <contour>
        <pt x="703" y="163" on="1"/>
        <pt x="608" y="163" on="1"/>
        <pt x="608" y="0" on="1"/>
        <pt x="419" y="0" on="1"/>
        <pt x="419" y="163" on="1"/>
        <pt x="63" y="163" on="1"/>
        <pt x="53" y="286" on="1"/>
        <pt x="418" y="789" on="1"/>
        <pt x="608" y="789" on="1"/>
        <pt x="608" y="316" on="1"/>
        <pt x="703" y="316" on="1"/>
      </contour>
      <contour>
        <pt x="419" y="316" on="1"/>
        <pt x="419" y="553" on="1"/>
        <pt x="406" y="532" on="1"/>
        <pt x="237" y="316" on="1"/>
      </contour>
    </TTGlyph>
    <TTGlyph name="fraction" xMin="43" yMin="109" xMax="882" yMax="1320">
      <contour>
        <pt x="43" y="182" on="1"/>
        <pt x="754" y="1320" on="1"/>
        <pt x="882" y="1247" on="1"/>
        <pt x="171" y="109" on="1"/>
      </contour>
    </TTGlyph>
    <TTGlyph name="g" xMin="80" yMin="-426" xMax="1040" yMax="1102">
      <contour>
        <pt x="1040" y="1082" on="1"/>
        <pt x="1040" y="31" on="1"/>
        <pt x="1040" y="-113" on="0"/>
        <pt x="916" y="-319" on="0"/>
        <pt x="692" y="-426" on="0"/>
        <pt x="545" y="-426" on="1"/>
        <pt x="479" y="-426" on="0"/>
        <pt x="327" y="-389" on="0"/>
        <pt x="186" y="-309" on="0"/>
        <pt x="141" y="-248" on="1"/>
        <pt x="257" y="-99" on="1"/>
        <pt x="314" y="-165" on="0"/>
        <pt x="454" y="-230" on="0"/>
        <pt x="531" y="-230" on="1"/>
        <pt x="653" y="-230" on="0"/>
        <pt x="791" y="-97" on="0"/>
        <pt x="791" y="26" on="1"/>
        <pt x="791" y="98" on="1"/>
        <pt x="686" y="-20" on="0"/>
        <pt x="513" y="-20" on="1"/>
        <pt x="383" y="-20" on="0"/>
        <pt x="187" y="122" on="0"/>
        <pt x="80" y="372" on="0"/>
        <pt x="80" y="529" on="1"/>
        <pt x="80" y="550" on="1"/>
        <pt x="80" y="714" on="0"/>
        <pt x="186" y="964" on="0"/>
        <pt x="383" y="1102" on="0"/>
        <pt x="515" y="1102" on="1"/>
        <pt x="701" y="1102" on="0"/>
        <pt x="804" y="975" on="1"/>
        <pt x="814" y="1082" on="1"/>
      </contour>
      <contour>
        <pt x="725" y="184" on="0"/>
        <pt x="791" y="308" on="1"/>
        <pt x="791" y="778" on="1"/>
        <pt x="724" y="899" on="0"/>
        <pt x="578" y="899" on="1"/>
        <pt x="495" y="899" on="0"/>
        <pt x="383" y="807" on="0"/>
        <pt x="329" y="649" on="0"/>
        <pt x="329" y="550" on="1"/>
        <pt x="329" y="529" on="1"/>
        <pt x="329" y="376" on="0"/>
        <pt x="453" y="184" on="0"/>
        <pt x="576" y="184" on="1"/>
      </contour>
    </TTGlyph>
    <TTGlyph name="g.alt" xMin="8" yMin="-438" xMax="1052" yMax="1102">
      <contour>
        <pt x="835" y="214" on="0"/>
        <pt x="1043" y="62" on="0"/>
        <pt x="1043" y="-85" on="1"/>
        <pt x="1043" y="-168" on="0"/>
        <pt x="910" y="-332" on="0"/>
        <pt x="660" y="-438" on="0"/>
        <pt x="494" y="-438" on="1"/>
        <pt x="342" y="-438" on="0"/>
        <pt x="122" y="-363" on="0"/>
        <pt x="8" y="-237" on="0"/>
        <pt x="8" y="-162" on="1"/>
        <pt x="8" y="-76" on="0"/>
        <pt x="111" y="53" on="0"/>
        <pt x="192" y="92" on="1"/>
        <pt x="142" y="140" on="0"/>
        <pt x="142" y="214" on="1"/>
        <pt x="142" y="281" on="0"/>
        <pt x="207" y="376" on="0"/>
        <pt x="260" y="413" on="1"/>
        <pt x="169" y="462" on="0"/>
        <pt x="67" y="622" on="0"/>
        <pt x="67" y="716" on="1"/>
        <pt x="67" y="738" on="1"/>
        <pt x="67" y="844" on="0"/>
        <pt x="181" y="1010" on="0"/>
        <pt x="387" y="1102" on="0"/>
        <pt x="520" y="1102" on="1"/>
        <pt x="606" y="1102" on="0"/>
        <pt x="683" y="1082" on="1"/>
        <pt x="1050" y="1082" on="1"/>
        <pt x="1052" y="928" on="1"/>
        <pt x="917" y="928" on="1"/>
        <pt x="974" y="845" on="0"/>
        <pt x="974" y="738" on="1"/>
        <pt x="974" y="716" on="1"/>
        <pt x="974" y="616" on="0"/>
        <pt x="860" y="449" on="0"/>
        <pt x="654" y="351" on="0"/>
        <pt x="522" y="351" on="1"/>
        <pt x="442" y="351" on="0"/>
        <pt x="373" y="369" on="1"/>
        <pt x="338" y="336" on="0"/>
        <pt x="338" y="290" on="1"/>
        <pt x="338" y="248" on="0"/>
        <pt x="405" y="214" on="0"/>
        <pt x="465" y="214" on="1"/>
        <pt x="643" y="214" on="1"/>
      </contour>
      <contour>
        <pt x="315" y="716" on="1"/>
        <pt x="315" y="671" on="0"/>
        <pt x="366" y="591" on="0"/>
        <pt x="460" y="543" on="0"/>
        <pt x="522" y="543" on="1"/>
        <pt x="583" y="543" on="0"/>
        <pt x="676" y="591" on="0"/>
        <pt x="726" y="671" on="0"/>
        <pt x="726" y="716" on="1"/>
        <pt x="726" y="738" on="1"/>
        <pt x="726" y="786" on="0"/>
        <pt x="675" y="864" on="0"/>
        <pt x="581" y="910" on="0"/>
        <pt x="520" y="910" on="1"/>
        <pt x="459" y="910" on="0"/>
        <pt x="366" y="864" on="0"/>
        <pt x="315" y="786" on="0"/>
        <pt x="315" y="738" on="1"/>
      </contour>
      <contour>
        <pt x="589" y="-247" on="0"/>
        <pt x="726" y="-201" on="0"/>
        <pt x="795" y="-129" on="0"/>
        <pt x="795" y="-93" on="1"/>
        <pt x="795" y="-38" on="0"/>
        <pt x="715" y="22" on="0"/>
        <pt x="619" y="22" on="1"/>
        <pt x="417" y="22" on="1"/>
        <pt x="368" y="22" on="0"/>
        <pt x="330" y="29" on="1"/>
        <pt x="294" y="10" on="0"/>
        <pt x="248" y="-62" on="0"/>
        <pt x="248" y="-106" on="1"/>
        <pt x="248" y="-145" on="0"/>
        <pt x="302" y="-209" on="0"/>
        <pt x="413" y="-247" on="0"/>
        <pt x="494" y="-247" on="1"/>
      </contour>
    </TTGlyph>
    <TTGlyph name="g.ss06" xMin="78" yMin="-426" xMax="1049" yMax="1102">
      <contour>
        <pt x="1049" y="1082" on="1"/>
        <pt x="1049" y="83" on="1"/>
        <pt x="1049" y="-79" on="0"/>
        <pt x="930" y="-307" on="0"/>
        <pt x="705" y="-426" on="0"/>
        <pt x="547" y="-426" on="1"/>
        <pt x="464" y="-426" on="0"/>
        <pt x="278" y="-381" on="0"/>
        <pt x="207" y="-336" on="1"/>
        <pt x="259" y="-157" on="1"/>
        <pt x="388" y="-230" on="0"/>
        <pt x="529" y="-230" on="1"/>
        <pt x="669" y="-230" on="0"/>
        <pt x="800" y="-77" on="0"/>
        <pt x="800" y="78" on="1"/>
        <pt x="800" y="98" on="1"/>
        <pt x="695" y="-20" on="0"/>
        <pt x="522" y="-20" on="1"/>
        <pt x="392" y="-20" on="0"/>
        <pt x="190" y="123" on="0"/>
        <pt x="78" y="373" on="0"/>
        <pt x="78" y="530" on="1"/>
        <pt x="78" y="551" on="1"/>
        <pt x="78" y="714" on="0"/>
        <pt x="189" y="964" on="0"/>
        <pt x="391" y="1102" on="0"/>
        <pt x="524" y="1102" on="1"/>
        <pt x="714" y="1102" on="0"/>
        <pt x="819" y="969" on="1"/>
        <pt x="835" y="1082" on="1"/>
      </contour>
      <contour>
        <pt x="734" y="184" on="0"/>
        <pt x="800" y="308" on="1"/>
        <pt x="800" y="779" on="1"/>
        <pt x="734" y="899" on="0"/>
        <pt x="588" y="899" on="1"/>
        <pt x="504" y="899" on="0"/>
        <pt x="386" y="809" on="0"/>
        <pt x="327" y="651" on="0"/>
        <pt x="327" y="551" on="1"/>
        <pt x="327" y="530" on="1"/>
        <pt x="327" y="433" on="0"/>
        <pt x="386" y="276" on="0"/>
        <pt x="503" y="184" on="0"/>
        <pt x="586" y="184" on="1"/>
      </contour>
    </TTGlyph>
    <TTGlyph name="g.ss07" xMin="79" yMin="-426" xMax="1031" yMax="1102">
      <contour>
        <pt x="1031" y="1082" on="1"/>
        <pt x="1031" y="71" on="1"/>
        <pt x="1031" y="-87" on="0"/>
        <pt x="912" y="-310" on="0"/>
        <pt x="687" y="-426" on="0"/>
        <pt x="528" y="-426" on="1"/>
        <pt x="451" y="-426" on="0"/>
        <pt x="278" y="-387" on="0"/>
        <pt x="212" y="-348" on="1"/>
        <pt x="264" y="-169" on="1"/>
        <pt x="383" y="-230" on="0"/>
        <pt x="510" y="-230" on="1"/>
        <pt x="650" y="-230" on="0"/>
        <pt x="781" y="-83" on="0"/>
        <pt x="781" y="66" on="1"/>
        <pt x="781" y="98" on="1"/>
        <pt x="676" y="-20" on="0"/>
        <pt x="503" y="-20" on="1"/>
        <pt x="374" y="-20" on="0"/>
        <pt x="182" y="122" on="0"/>
        <pt x="79" y="372" on="0"/>
        <pt x="79" y="530" on="1"/>
        <pt x="79" y="551" on="1"/>
        <pt x="79" y="715" on="0"/>
        <pt x="181" y="965" on="0"/>
        <pt x="373" y="1102" on="0"/>
        <pt x="505" y="1102" on="1"/>
        <pt x="695" y="1102" on="0"/>
        <pt x="800" y="969" on="1"/>
        <pt x="816" y="1082" on="1"/>
      </contour>
      <contour>
        <pt x="717" y="184" on="0"/>
        <pt x="781" y="313" on="1"/>
        <pt x="781" y="775" on="1"/>
        <pt x="717" y="899" on="0"/>
        <pt x="569" y="899" on="1"/>
        <pt x="446" y="899" on="0"/>
        <pt x="328" y="709" on="0"/>
        <pt x="328" y="551" on="1"/>
        <pt x="328" y="530" on="1"/>
        <pt x="328" y="376" on="0"/>
        <pt x="445" y="184" on="0"/>
        <pt x="567" y="184" on="1"/>
      </contour>
    </TTGlyph>
    <TTGlyph name="germandbls" xMin="136" yMin="-20" xMax="1186" yMax="1558">
      <contour>
        <pt x="136" y="0" on="1"/>
        <pt x="136" y="1105" on="1"/>
        <pt x="136" y="1252" on="0"/>
        <pt x="244" y="1455" on="0"/>
        <pt x="443" y="1558" on="0"/>
        <pt x="577" y="1558" on="1"/>
        <pt x="694" y="1558" on="0"/>
        <pt x="877" y="1478" on="0"/>
        <pt x="981" y="1317" on="0"/>
        <pt x="981" y="1200" on="1"/>
        <pt x="981" y="1148" on="0"/>
        <pt x="962" y="1068" on="0"/>
        <pt x="937" y="1014" on="0"/>
        <pt x="915" y="977" on="1"/>
        <pt x="889" y="934" on="0"/>
        <pt x="864" y="869" on="0"/>
        <pt x="864" y="825" on="1"/>
        <pt x="864" y="793" on="0"/>
        <pt x="898" y="734" on="0"/>
        <pt x="950" y="683" on="0"/>
        <pt x="996" y="644" on="1"/>
        <pt x="1056" y="593" on="0"/>
        <pt x="1132" y="513" on="0"/>
        <pt x="1186" y="405" on="0"/>
        <pt x="1186" y="339" on="1"/>
        <pt x="1186" y="165" on="0"/>
        <pt x="965" y="-20" on="0"/>
        <pt x="767" y="-20" on="1"/>
        <pt x="688" y="-20" on="0"/>
        <pt x="519" y="17" on="0"/>
        <pt x="479" y="43" on="1"/>
        <pt x="529" y="243" on="1"/>
        <pt x="569" y="219" on="0"/>
        <pt x="690" y="180" on="0"/>
        <pt x="754" y="180" on="1"/>
        <pt x="846" y="180" on="0"/>
        <pt x="937" y="261" on="0"/>
        <pt x="937" y="331" on="1"/>
        <pt x="937" y="367" on="0"/>
        <pt x="902" y="430" on="0"/>
        <pt x="848" y="481" on="0"/>
        <pt x="802" y="519" on="1"/>
        <pt x="741" y="569" on="0"/>
        <pt x="668" y="644" on="0"/>
        <pt x="616" y="751" on="0"/>
        <pt x="616" y="819" on="1"/>
        <pt x="616" y="877" on="0"/>
        <pt x="648" y="957" on="0"/>
        <pt x="680" y="1011" on="1"/>
        <pt x="710" y="1060" on="0"/>
        <pt x="740" y="1134" on="0"/>
        <pt x="740" y="1184" on="1"/>
        <pt x="740" y="1266" on="0"/>
        <pt x="646" y="1358" on="0"/>
        <pt x="570" y="1358" on="1"/>
        <pt x="384" y="1358" on="0"/>
        <pt x="384" y="1103" on="1"/>
        <pt x="384" y="0" on="1"/>
      </contour>
    </TTGlyph>
    <TTGlyph name="grave" xMin="50" yMin="1233" xMax="528" yMax="1536">
      <contour>
        <pt x="321" y="1233" on="1"/>
        <pt x="50" y="1536" on="1"/>
        <pt x="332" y="1536" on="1"/>
        <pt x="528" y="1233" on="1"/>
      </contour>
    </TTGlyph>
    <TTGlyph name="gravecomb" xMin="-884" yMin="1233" xMax="-407" yMax="1536">
      <contour>
        <pt x="-613" y="1233" on="1"/>
        <pt x="-884" y="1536" on="1"/>
        <pt x="-603" y="1536" on="1"/>
        <pt x="-407" y="1233" on="1"/>
      </contour>
    </TTGlyph>
    <TTGlyph name="greater" xMin="128" yMin="161" xMax="992" yMax="1102">
      <contour>
        <pt x="992" y="732" on="1"/>
        <pt x="992" y="533" on="1"/>
        <pt x="128" y="161" on="1"/>
        <pt x="128" y="406" on="1"/>
        <pt x="740" y="635" on="1"/>
        <pt x="128" y="859" on="1"/>
        <pt x="128" y="1102" on="1"/>
      </contour>
    </TTGlyph>
    <TTGlyph name="guillemotleft" xMin="85" yMin="137" xMax="905" yMax="936">
      <component glyphName=".ttfautohint" x="85" y="137" flags="0x0"/>
      <component glyphName="guilsinglleft" x="-23" y="0" flags="0x0"/>
      <component glyphName="guilsinglleft" x="340" y="0" flags="0x0"/>
    </TTGlyph>
    <TTGlyph name="guillemotright" xMin="92" yMin="137" xMax="925" yMax="936">
      <component glyphName=".ttfautohint" x="92" y="137" flags="0x0"/>
      <component glyphName="guilsinglright" x="8" y="0" flags="0x0"/>
      <component glyphName="guilsinglright" x="384" y="0" flags="0x0"/>
    </TTGlyph>
    <TTGlyph name="guilsinglleft" xMin="108" yMin="137" xMax="565" yMax="936">
      <contour>
        <pt x="319" y="537" on="1"/>
        <pt x="565" y="137" on="1"/>
        <pt x="395" y="137" on="1"/>
        <pt x="108" y="527" on="1"/>
        <pt x="108" y="546" on="1"/>
        <pt x="395" y="936" on="1"/>
        <pt x="565" y="936" on="1"/>
      </contour>
    </TTGlyph>
    <TTGlyph name="guilsinglright" xMin="84" yMin="137" xMax="541" yMax="936">
      <contour>
        <pt x="541" y="546" on="1"/>
        <pt x="541" y="527" on="1"/>
        <pt x="254" y="137" on="1"/>
        <pt x="84" y="137" on="1"/>
        <pt x="330" y="537" on="1"/>
        <pt x="84" y="936" on="1"/>
        <pt x="254" y="936" on="1"/>
      </contour>
    </TTGlyph>
    <TTGlyph name="h" xMin="119" yMin="0" xMax="1020" yMax="1536">
      <contour>
        <pt x="1020" y="1102" on="0"/>
        <pt x="1020" y="695" on="1"/>
        <pt x="1020" y="0" on="1"/>
        <pt x="771" y="0" on="1"/>
        <pt x="771" y="697" on="1"/>
        <pt x="771" y="806" on="0"/>
        <pt x="678" y="899" on="0"/>
        <pt x="582" y="899" on="1"/>
        <pt x="510" y="899" on="0"/>
        <pt x="401" y="833" on="0"/>
        <pt x="368" y="773" on="1"/>
        <pt x="368" y="0" on="1"/>
        <pt x="119" y="0" on="1"/>
        <pt x="119" y="1536" on="1"/>
        <pt x="368" y="1536" on="1"/>
        <pt x="368" y="964" on="1"/>
        <pt x="424" y="1030" on="0"/>
        <pt x="577" y="1102" on="0"/>
        <pt x="667" y="1102" on="1"/>
      </contour>
    </TTGlyph>
    <TTGlyph name="hyphen" xMin="77" yMin="520" xMax="606" yMax="720">
      <contour>
        <pt x="77" y="520" on="1"/>
        <pt x="77" y="720" on="1"/>
        <pt x="606" y="720" on="1"/>
        <pt x="606" y="520" on="1"/>
      </contour>
    </TTGlyph>
    <TTGlyph name="i" xMin="123" yMin="0" xMax="405" yMax="1496">
      <contour>
        <pt x="329" y="1496" on="0"/>
        <pt x="405" y="1421" on="0"/>
        <pt x="405" y="1363" on="1"/>
        <pt x="405" y="1306" on="0"/>
        <pt x="329" y="1232" on="0"/>
        <pt x="264" y="1232" on="1"/>
        <pt x="199" y="1232" on="0"/>
        <pt x="123" y="1305" on="0"/>
        <pt x="123" y="1363" on="1"/>
        <pt x="123" y="1421" on="0"/>
        <pt x="199" y="1496" on="0"/>
        <pt x="264" y="1496" on="1"/>
      </contour>
      <contour>
        <pt x="139" y="0" on="1"/>
        <pt x="139" y="1082" on="1"/>
        <pt x="388" y="1082" on="1"/>
        <pt x="388" y="0" on="1"/>
      </contour>
    </TTGlyph>
    <TTGlyph name="iacute" xMin="143" yMin="0" xMax="625" yMax="1528">
      <component glyphName=".ttfautohint" x="143" y="0" flags="0x0"/>
      <component glyphName="dotlessi" x="0" y="0" flags="0x0"/>
      <component glyphName="acutecomb" x="823" y="-8" flags="0x4"/>
    </TTGlyph>
    <TTGlyph name="icircumflex" xMin="-76" yMin="0" xMax="620" yMax="1529">
      <component glyphName=".ttfautohint" x="0" y="0" flags="0x0"/>
      <component glyphName="dotlessi" x="0" y="0" flags="0x0"/>
      <component glyphName="circumflex" x="-222" y="-8" flags="0x4"/>
    </TTGlyph>
    <TTGlyph name="idieresis" xMin="-87" yMin="0" xMax="630" yMax="1478">
      <component glyphName=".ttfautohint" x="0" y="0" flags="0x0"/>
      <component glyphName="dotlessi" x="0" y="0" flags="0x0"/>
      <component glyphName="dieresis" x="-181" y="-8" flags="0x4"/>
    </TTGlyph>
    <TTGlyph name="igrave" xMin="-79" yMin="0" xMax="398" yMax="1528">
      <component glyphName=".ttfautohint" x="0" y="0" flags="0x0"/>
      <component glyphName="dotlessi" x="0" y="0" flags="0x0"/>
      <component glyphName="gravecomb" x="805" y="-8" flags="0x4"/>
    </TTGlyph>
    <TTGlyph name="j" xMin="-78" yMin="-437" xMax="395" yMax="1496">
      <contour>
        <pt x="319" y="1496" on="0"/>
        <pt x="395" y="1421" on="0"/>
        <pt x="395" y="1363" on="1"/>
        <pt x="395" y="1306" on="0"/>
        <pt x="319" y="1232" on="0"/>
        <pt x="254" y="1232" on="1"/>
        <pt x="189" y="1232" on="0"/>
        <pt x="113" y="1305" on="0"/>
        <pt x="113" y="1363" on="1"/>
        <pt x="113" y="1421" on="0"/>
        <pt x="189" y="1496" on="0"/>
        <pt x="254" y="1496" on="1"/>
      </contour>
      <contour>
        <pt x="383" y="-91" on="1"/>
        <pt x="383" y="-259" on="0"/>
        <pt x="214" y="-437" on="0"/>
        <pt x="53" y="-437" on="1"/>
        <pt x="-16" y="-437" on="0"/>
        <pt x="-78" y="-420" on="1"/>
        <pt x="-78" y="-224" on="1"/>
        <pt x="-32" y="-232" on="0"/>
        <pt x="10" y="-232" on="1"/>
        <pt x="72" y="-232" on="0"/>
        <pt x="134" y="-165" on="0"/>
        <pt x="134" y="-91" on="1"/>
        <pt x="134" y="1082" on="1"/>
        <pt x="383" y="1082" on="1"/>
      </contour>
    </TTGlyph>
    <TTGlyph name="k" xMin="124" yMin="0" xMax="1084" yMax="1536">
      <contour>
        <pt x="481" y="462" on="1"/>
        <pt x="372" y="351" on="1"/>
        <pt x="372" y="0" on="1"/>
        <pt x="124" y="0" on="1"/>
        <pt x="124" y="1536" on="1"/>
        <pt x="372" y="1536" on="1"/>
        <pt x="372" y="655" on="1"/>
        <pt x="446" y="747" on="1"/>
        <pt x="742" y="1082" on="1"/>
        <pt x="1042" y="1082" on="1"/>
        <pt x="641" y="632" on="1"/>
        <pt x="1084" y="0" on="1"/>
        <pt x="796" y="0" on="1"/>
      </contour>
    </TTGlyph>
    <TTGlyph name="k.alt" xMin="127" yMin="0" xMax="1081" yMax="1536">
      <contour>
        <pt x="485" y="470" on="1"/>
        <pt x="376" y="470" on="1"/>
        <pt x="376" y="0" on="1"/>
        <pt x="127" y="0" on="1"/>
        <pt x="127" y="1536" on="1"/>
        <pt x="376" y="1536" on="1"/>
        <pt x="376" y="669" on="1"/>
        <pt x="477" y="669" on="1"/>
        <pt x="745" y="1082" on="1"/>
        <pt x="1035" y="1082" on="1"/>
        <pt x="685" y="588" on="1"/>
        <pt x="1081" y="0" on="1"/>
        <pt x="792" y="0" on="1"/>
      </contour>
    </TTGlyph>
    <TTGlyph name="k.alt2" xMin="127" yMin="0" xMax="1063" yMax="1560">
      <contour>
        <pt x="764" y="0" on="1"/>
        <pt x="376" y="489" on="1"/>
        <pt x="376" y="0" on="1"/>
        <pt x="127" y="0" on="1"/>
        <pt x="127" y="1560" on="1"/>
        <pt x="376" y="1560" on="1"/>
        <pt x="376" y="670" on="1"/>
        <pt x="716" y="1082" on="1"/>
        <pt x="1019" y="1082" on="1"/>
        <pt x="591" y="583" on="1"/>
        <pt x="1063" y="0" on="1"/>
      </contour>
    </TTGlyph>
    <TTGlyph name="l" xMin="139" yMin="0" xMax="388" yMax="1536">
      <contour>
        <pt x="139" y="0" on="1"/>
        <pt x="139" y="1536" on="1"/>
        <pt x="388" y="1536" on="1"/>
        <pt x="388" y="0" on="1"/>
      </contour>
    </TTGlyph>
    <TTGlyph name="less" xMin="62" yMin="161" xMax="903" yMax="1102">
      <contour>
        <pt x="903" y="855" on="1"/>
        <pt x="316" y="630" on="1"/>
        <pt x="903" y="409" on="1"/>
        <pt x="903" y="161" on="1"/>
        <pt x="62" y="533" on="1"/>
        <pt x="62" y="731" on="1"/>
        <pt x="903" y="1102" on="1"/>
      </contour>
    </TTGlyph>
    <TTGlyph name="logicalnot" xMin="127" yMin="374" xMax="962" yMax="805">
      <contour>
        <pt x="962" y="805" on="1"/>
        <pt x="962" y="374" on="1"/>
        <pt x="762" y="374" on="1"/>
        <pt x="762" y="634" on="1"/>
        <pt x="127" y="634" on="1"/>
        <pt x="127" y="805" on="1"/>
      </contour>
    </TTGlyph>
    <TTGlyph name="longs" xMin="136" yMin="0" xMax="663" yMax="1557">
      <contour>
        <pt x="136" y="1184" on="1"/>
        <pt x="136" y="1363" on="0"/>
        <pt x="334" y="1557" on="0"/>
        <pt x="510" y="1557" on="1"/>
        <pt x="574" y="1557" on="0"/>
        <pt x="663" y="1536" on="1"/>
        <pt x="639" y="1346" on="1"/>
        <pt x="591" y="1357" on="0"/>
        <pt x="546" y="1357" on="1"/>
        <pt x="468" y="1357" on="0"/>
        <pt x="385" y="1266" on="0"/>
        <pt x="385" y="1184" on="1"/>
        <pt x="385" y="0" on="1"/>
        <pt x="136" y="0" on="1"/>
      </contour>
    </TTGlyph>
    <TTGlyph name="longst" xMin="43" yMin="-20" xMax="1240" yMax="1557">
      <contour>
        <pt x="1195" y="186" on="0"/>
        <pt x="1240" y="196" on="1"/>
        <pt x="1240" y="4" on="1"/>
        <pt x="1168" y="-20" on="0"/>
        <pt x="1078" y="-20" on="1"/>
        <pt x="946" y="-20" on="0"/>
        <pt x="794" y="126" on="0"/>
        <pt x="794" y="286" on="1"/>
        <pt x="794" y="898" on="1"/>
        <pt x="618" y="898" on="1"/>
        <pt x="618" y="1082" on="1"/>
        <pt x="794" y="1082" on="1"/>
        <pt x="794" y="1326" on="1"/>
        <pt x="768" y="1338" on="0"/>
        <pt x="667" y="1357" on="0"/>
        <pt x="618" y="1357" on="1"/>
        <pt x="540" y="1357" on="0"/>
        <pt x="457" y="1266" on="0"/>
        <pt x="457" y="1184" on="1"/>
        <pt x="457" y="0" on="1"/>
        <pt x="208" y="0" on="1"/>
        <pt x="208" y="898" on="1"/>
        <pt x="43" y="898" on="1"/>
        <pt x="43" y="1082" on="1"/>
        <pt x="208" y="1082" on="1"/>
        <pt x="208" y="1184" on="1"/>
        <pt x="208" y="1363" on="0"/>
        <pt x="405" y="1557" on="0"/>
        <pt x="582" y="1557" on="1"/>
        <pt x="693" y="1557" on="0"/>
        <pt x="935" y="1498" on="0"/>
        <pt x="1043" y="1452" on="1"/>
        <pt x="1043" y="1082" on="1"/>
        <pt x="1233" y="1082" on="1"/>
        <pt x="1233" y="898" on="1"/>
        <pt x="1043" y="898" on="1"/>
        <pt x="1043" y="303" on="1"/>
        <pt x="1043" y="235" on="0"/>
        <pt x="1099" y="186" on="0"/>
        <pt x="1155" y="186" on="1"/>
      </contour>
    </TTGlyph>
    <TTGlyph name="m" xMin="123" yMin="0" xMax="1658" yMax="1102">
      <contour>
        <pt x="1476" y="1102" on="0"/>
        <pt x="1658" y="909" on="0"/>
        <pt x="1658" y="700" on="1"/>
        <pt x="1658" y="0" on="1"/>
        <pt x="1409" y="0" on="1"/>
        <pt x="1409" y="701" on="1"/>
        <pt x="1409" y="812" on="0"/>
        <pt x="1314" y="899" on="0"/>
        <pt x="1219" y="899" on="1"/>
        <pt x="1141" y="899" on="0"/>
        <pt x="1037" y="816" on="0"/>
        <pt x="1015" y="744" on="1"/>
        <pt x="1015" y="721" on="1"/>
        <pt x="1015" y="0" on="1"/>
        <pt x="766" y="0" on="1"/>
        <pt x="766" y="698" on="1"/>
        <pt x="766" y="807" on="0"/>
        <pt x="669" y="899" on="0"/>
        <pt x="575" y="899" on="1"/>
        <pt x="432" y="899" on="0"/>
        <pt x="372" y="782" on="1"/>
        <pt x="372" y="0" on="1"/>
        <pt x="123" y="0" on="1"/>
        <pt x="123" y="1082" on="1"/>
        <pt x="357" y="1082" on="1"/>
        <pt x="365" y="968" on="1"/>
        <pt x="420" y="1033" on="0"/>
        <pt x="577" y="1102" on="0"/>
        <pt x="677" y="1102" on="1"/>
        <pt x="779" y="1102" on="0"/>
        <pt x="931" y="1021" on="0"/>
        <pt x="972" y="937" on="1"/>
        <pt x="1027" y="1015" on="0"/>
        <pt x="1195" y="1102" on="0"/>
        <pt x="1304" y="1102" on="1"/>
      </contour>
    </TTGlyph>
    <TTGlyph name="macron" xMin="157" yMin="1292" xMax="844" yMax="1451">
      <contour>
        <pt x="157" y="1292" on="1"/>
        <pt x="157" y="1451" on="1"/>
        <pt x="844" y="1451" on="1"/>
        <pt x="844" y="1292" on="1"/>
      </contour>
    </TTGlyph>
    <TTGlyph name="minus" xMin="157" yMin="618" xMax="1008" yMax="820">
      <contour>
        <pt x="157" y="618" on="1"/>
        <pt x="157" y="820" on="1"/>
        <pt x="1008" y="820" on="1"/>
        <pt x="1008" y="618" on="1"/>
      </contour>
    </TTGlyph>
    <TTGlyph name="multiply" xMin="76" yMin="214" xMax="1006" yMax="1159">
      <contour>
        <pt x="691" y="687" on="1"/>
        <pt x="1006" y="365" on="1"/>
        <pt x="855" y="214" on="1"/>
        <pt x="541" y="534" on="1"/>
        <pt x="227" y="214" on="1"/>
        <pt x="76" y="365" on="1"/>
        <pt x="391" y="687" on="1"/>
        <pt x="76" y="1008" on="1"/>
        <pt x="227" y="1159" on="1"/>
        <pt x="541" y="839" on="1"/>
        <pt x="855" y="1159" on="1"/>
        <pt x="1006" y="1008" on="1"/>
      </contour>
    </TTGlyph>
    <TTGlyph name="n" xMin="120" yMin="0" xMax="1020" yMax="1102">
      <contour>
        <pt x="841" y="1102" on="0"/>
        <pt x="1020" y="911" on="0"/>
        <pt x="1020" y="698" on="1"/>
        <pt x="1020" y="0" on="1"/>
        <pt x="771" y="0" on="1"/>
        <pt x="771" y="700" on="1"/>
        <pt x="771" y="808" on="0"/>
        <pt x="678" y="899" on="0"/>
        <pt x="582" y="899" on="1"/>
        <pt x="512" y="899" on="0"/>
        <pt x="403" y="831" on="0"/>
        <pt x="369" y="771" on="1"/>
        <pt x="369" y="0" on="1"/>
        <pt x="120" y="0" on="1"/>
        <pt x="120" y="1082" on="1"/>
        <pt x="354" y="1082" on="1"/>
        <pt x="362" y="957" on="1"/>
        <pt x="420" y="1027" on="0"/>
        <pt x="580" y="1102" on="0"/>
        <pt x="676" y="1102" on="1"/>
      </contour>
    </TTGlyph>
    <TTGlyph name="nine" xMin="93" yMin="-8" xMax="1046" yMax="1476">
      <contour>
        <pt x="719" y="1476" on="0"/>
        <pt x="936" y="1319" on="0"/>
        <pt x="1046" y="1050" on="0"/>
        <pt x="1046" y="884" on="1"/>
        <pt x="1046" y="802" on="1"/>
        <pt x="1046" y="442" on="0"/>
        <pt x="711" y="-8" on="0"/>
        <pt x="325" y="-8" on="1"/>
        <pt x="305" y="-8" on="1"/>
        <pt x="305" y="200" on="1"/>
        <pt x="323" y="200" on="1"/>
        <pt x="563" y="200" on="0"/>
        <pt x="782" y="415" on="0"/>
        <pt x="796" y="605" on="1"/>
        <pt x="740" y="547" on="0"/>
        <pt x="594" y="479" on="0"/>
        <pt x="513" y="479" on="1"/>
        <pt x="377" y="479" on="0"/>
        <pt x="188" y="612" on="0"/>
        <pt x="93" y="834" on="0"/>
        <pt x="93" y="967" on="1"/>
        <pt x="93" y="1109" on="0"/>
        <pt x="206" y="1341" on="0"/>
        <pt x="420" y="1476" on="0"/>
        <pt x="566" y="1476" on="1"/>
      </contour>
      <contour>
        <pt x="642" y="674" on="0"/>
        <pt x="766" y="760" on="0"/>
        <pt x="798" y="827" on="1"/>
        <pt x="798" y="925" on="1"/>
        <pt x="798" y="1036" on="0"/>
        <pt x="735" y="1194" on="0"/>
        <pt x="629" y="1275" on="0"/>
        <pt x="565" y="1275" on="1"/>
        <pt x="495" y="1275" on="0"/>
        <pt x="393" y="1194" on="0"/>
        <pt x="339" y="1057" on="0"/>
        <pt x="339" y="974" on="1"/>
        <pt x="339" y="893" on="0"/>
        <pt x="390" y="756" on="0"/>
        <pt x="493" y="674" on="0"/>
        <pt x="567" y="674" on="1"/>
      </contour>
    </TTGlyph>
    <TTGlyph name="nine.frac" xMin="70" yMin="654" xMax="677" yMax="1464">
      <component glyphName=".ttfautohint" x="70" y="654" flags="0x0"/>
      <component glyphName="nine.sup" x="0" y="664" flags="0x4"/>
    </TTGlyph>
    <TTGlyph name="nine.smcp" xMin="79" yMin="-12" xMax="955" yMax="1181">
      <contour>
        <pt x="651" y="1181" on="0"/>
        <pt x="849" y="1067" on="0"/>
        <pt x="955" y="852" on="0"/>
        <pt x="955" y="704" on="1"/>
        <pt x="955" y="633" on="1"/>
        <pt x="955" y="317" on="0"/>
        <pt x="632" y="-12" on="0"/>
        <pt x="301" y="-12" on="1"/>
        <pt x="281" y="-12" on="1"/>
        <pt x="281" y="188" on="1"/>
        <pt x="299" y="188" on="1"/>
        <pt x="493" y="188" on="0"/>
        <pt x="687" y="323" on="0"/>
        <pt x="703" y="467" on="1"/>
        <pt x="657" y="425" on="0"/>
        <pt x="533" y="377" on="0"/>
        <pt x="461" y="377" on="1"/>
        <pt x="338" y="377" on="0"/>
        <pt x="167" y="474" on="0"/>
        <pt x="79" y="650" on="0"/>
        <pt x="79" y="767" on="1"/>
        <pt x="79" y="881" on="0"/>
        <pt x="186" y="1070" on="0"/>
        <pt x="384" y="1181" on="0"/>
        <pt x="515" y="1181" on="1"/>
      </contour>
      <contour>
        <pt x="582" y="565" on="0"/>
        <pt x="681" y="620" on="0"/>
        <pt x="706" y="662" on="1"/>
        <pt x="706" y="752" on="1"/>
        <pt x="706" y="864" on="0"/>
        <pt x="599" y="981" on="0"/>
        <pt x="515" y="981" on="1"/>
        <pt x="457" y="981" on="0"/>
        <pt x="371" y="924" on="0"/>
        <pt x="326" y="826" on="0"/>
        <pt x="326" y="767" on="1"/>
        <pt x="326" y="677" on="0"/>
        <pt x="425" y="565" on="0"/>
        <pt x="519" y="565" on="1"/>
      </contour>
    </TTGlyph>
    <TTGlyph name="nine.sup" xMin="70" yMin="-10" xMax="677" yMax="800">
      <contour>
        <pt x="464" y="800" on="0"/>
        <pt x="600" y="728" on="0"/>
        <pt x="677" y="583" on="0"/>
        <pt x="677" y="477" on="1"/>
        <pt x="677" y="424" on="1"/>
        <pt x="677" y="-10" on="0"/>
        <pt x="228" y="-10" on="1"/>
        <pt x="213" y="-10" on="1"/>
        <pt x="213" y="140" on="1"/>
        <pt x="226" y="140" on="1"/>
        <pt x="349" y="140" on="0"/>
        <pt x="474" y="215" on="0"/>
        <pt x="486" y="309" on="1"/>
        <pt x="454" y="283" on="0"/>
        <pt x="375" y="253" on="0"/>
        <pt x="331" y="253" on="1"/>
        <pt x="207" y="253" on="0"/>
        <pt x="70" y="391" on="0"/>
        <pt x="70" y="516" on="1"/>
        <pt x="70" y="593" on="0"/>
        <pt x="147" y="724" on="0"/>
        <pt x="285" y="800" on="0"/>
        <pt x="373" y="800" on="1"/>
      </contour>
      <contour>
        <pt x="417" y="394" on="0"/>
        <pt x="474" y="423" on="0"/>
        <pt x="489" y="444" on="1"/>
        <pt x="489" y="514" on="1"/>
        <pt x="489" y="582" on="0"/>
        <pt x="427" y="648" on="0"/>
        <pt x="373" y="648" on="1"/>
        <pt x="321" y="648" on="0"/>
        <pt x="259" y="572" on="0"/>
        <pt x="259" y="515" on="1"/>
        <pt x="259" y="459" on="0"/>
        <pt x="320" y="394" on="0"/>
        <pt x="379" y="394" on="1"/>
      </contour>
    </TTGlyph>
    <TTGlyph name="ntilde" xMin="120" yMin="0" xMax="1020" yMax="1527">
      <component glyphName=".ttfautohint" x="120" y="0" flags="0x0"/>
      <component glyphName="n" x="0" y="0" flags="0x0"/>
      <component glyphName="tilde" x="84" y="0" flags="0x0"/>
    </TTGlyph>
    <TTGlyph name="numbersign" xMin="93" yMin="0" xMax="1209" yMax="1456">
      <contour>
        <pt x="969" y="879" on="1"/>
        <pt x="912" y="570" on="1"/>
        <pt x="1133" y="570" on="1"/>
        <pt x="1133" y="410" on="1"/>
        <pt x="883" y="410" on="1"/>
        <pt x="807" y="0" on="1"/>
        <pt x="637" y="0" on="1"/>
        <pt x="713" y="410" on="1"/>
        <pt x="493" y="410" on="1"/>
        <pt x="417" y="0" on="1"/>
        <pt x="248" y="0" on="1"/>
        <pt x="324" y="410" on="1"/>
        <pt x="93" y="410" on="1"/>
        <pt x="93" y="570" on="1"/>
        <pt x="353" y="570" on="1"/>
        <pt x="410" y="879" on="1"/>
        <pt x="168" y="879" on="1"/>
        <pt x="168" y="1040" on="1"/>
        <pt x="440" y="1040" on="1"/>
        <pt x="517" y="1456" on="1"/>
        <pt x="686" y="1456" on="1"/>
        <pt x="609" y="1040" on="1"/>
        <pt x="830" y="1040" on="1"/>
        <pt x="907" y="1456" on="1"/>
        <pt x="1076" y="1456" on="1"/>
        <pt x="999" y="1040" on="1"/>
        <pt x="1209" y="1040" on="1"/>
        <pt x="1209" y="879" on="1"/>
      </contour>
      <contour>
        <pt x="800" y="879" on="1"/>
        <pt x="579" y="879" on="1"/>
        <pt x="522" y="570" on="1"/>
        <pt x="743" y="570" on="1"/>
      </contour>
    </TTGlyph>
    <TTGlyph name="o" xMin="78" yMin="-20" xMax="1087" yMax="1102">
      <contour>
        <pt x="78" y="709" on="0"/>
        <pt x="199" y="959" on="0"/>
        <pt x="427" y="1102" on="0"/>
        <pt x="581" y="1102" on="1"/>
        <pt x="737" y="1102" on="0"/>
        <pt x="966" y="959" on="0"/>
        <pt x="1087" y="709" on="0"/>
        <pt x="1087" y="551" on="1"/>
        <pt x="1087" y="530" on="1"/>
        <pt x="1087" y="372" on="0"/>
        <pt x="966" y="122" on="0"/>
        <pt x="738" y="-20" on="0"/>
        <pt x="583" y="-20" on="1"/>
        <pt x="428" y="-20" on="0"/>
        <pt x="199" y="122" on="0"/>
        <pt x="78" y="372" on="0"/>
        <pt x="78" y="530" on="1"/>
        <pt x="78" y="551" on="1"/>
      </contour>
      <contour>
        <pt x="327" y="376" on="0"/>
        <pt x="455" y="180" on="0"/>
        <pt x="583" y="180" on="1"/>
        <pt x="668" y="180" on="0"/>
        <pt x="783" y="273" on="0"/>
        <pt x="838" y="431" on="0"/>
        <pt x="838" y="530" on="1"/>
        <pt x="838" y="551" on="1"/>
        <pt x="838" y="649" on="0"/>
        <pt x="783" y="808" on="0"/>
        <pt x="667" y="902" on="0"/>
        <pt x="581" y="902" on="1"/>
        <pt x="496" y="902" on="0"/>
        <pt x="382" y="808" on="0"/>
        <pt x="327" y="649" on="0"/>
        <pt x="327" y="551" on="1"/>
        <pt x="327" y="530" on="1"/>
      </contour>
    </TTGlyph>
    <TTGlyph name="o.ss06" xMin="74" yMin="-20" xMax="1111" yMax="1102">
      <contour>
        <pt x="74" y="708" on="0"/>
        <pt x="202" y="959" on="0"/>
        <pt x="436" y="1102" on="0"/>
        <pt x="591" y="1102" on="1"/>
        <pt x="748" y="1102" on="0"/>
        <pt x="984" y="959" on="0"/>
        <pt x="1111" y="708" on="0"/>
        <pt x="1111" y="551" on="1"/>
        <pt x="1111" y="530" on="1"/>
        <pt x="1111" y="373" on="0"/>
        <pt x="984" y="123" on="0"/>
        <pt x="749" y="-20" on="0"/>
        <pt x="593" y="-20" on="1"/>
        <pt x="437" y="-20" on="0"/>
        <pt x="202" y="123" on="0"/>
        <pt x="74" y="373" on="0"/>
        <pt x="74" y="530" on="1"/>
        <pt x="74" y="551" on="1"/>
      </contour>
      <contour>
        <pt x="323" y="432" on="0"/>
        <pt x="384" y="273" on="0"/>
        <pt x="506" y="180" on="0"/>
        <pt x="593" y="180" on="1"/>
        <pt x="679" y="180" on="0"/>
        <pt x="800" y="273" on="0"/>
        <pt x="862" y="432" on="0"/>
        <pt x="862" y="530" on="1"/>
        <pt x="862" y="551" on="1"/>
        <pt x="862" y="648" on="0"/>
        <pt x="800" y="808" on="0"/>
        <pt x="678" y="902" on="0"/>
        <pt x="591" y="902" on="1"/>
        <pt x="506" y="902" on="0"/>
        <pt x="385" y="807" on="0"/>
        <pt x="323" y="648" on="0"/>
        <pt x="323" y="551" on="1"/>
        <pt x="323" y="530" on="1"/>
      </contour>
    </TTGlyph>
    <TTGlyph name="oacute" xMin="78" yMin="-20" xMax="1087" yMax="1536">
      <component glyphName=".ttfautohint" x="78" y="0" flags="0x0"/>
      <component glyphName="o" x="0" y="0" flags="0x0"/>
      <component glyphName="acutecomb" x="1129" y="0" flags="0x0"/>
    </TTGlyph>
    <TTGlyph name="ocircumflex" xMin="78" yMin="-20" xMax="1087" yMax="1537">
      <component glyphName=".ttfautohint" x="78" y="0" flags="0x0"/>
      <component glyphName="o" x="0" y="0" flags="0x0"/>
      <component glyphName="circumflex" x="84" y="0" flags="0x0"/>
    </TTGlyph>
    <TTGlyph name="odieresis" xMin="78" yMin="-20" xMax="1087" yMax="1486">
      <component glyphName=".ttfautohint" x="78" y="0" flags="0x0"/>
      <component glyphName="o" x="0" y="0" flags="0x0"/>
      <component glyphName="dieresis" x="125" y="0" flags="0x0"/>
    </TTGlyph>
</ttFont>
